<svg width="602" height="302" viewBox="0 0 602 302" fill="none" xmlns="http://www.w3.org/2000/svg">
<path d="M508.231 85.7209H598C600.209 85.7209 602 87.5118 602 89.7209V249.163C602 251.372 600.209 253.163 598 253.163H508.231H311.564C309.355 253.163 307.564 251.372 307.564 249.163V89.7209C307.564 87.5118 309.355 85.7209 311.564 85.7209H508.231Z" fill="#D9D9D9"/>
<path d="M508.231 85.7209V6C508.231 3.79086 506.44 2 504.231 2H4C1.79086 2 0 3.79086 0 6V302M508.231 85.7209H598C600.209 85.7209 602 87.5118 602 89.7209V249.163C602 251.372 600.209 253.163 598 253.163H508.231M508.231 85.7209H311.564C309.355 85.7209 307.564 87.5118 307.564 89.7209V249.163C307.564 251.372 309.355 253.163 311.564 253.163H508.231M508.231 253.163V302" stroke="black" stroke-width="4"/>
</svg>
