<svg width="1352" height="494" viewBox="0 0 1352 494" fill="none" xmlns="http://www.w3.org/2000/svg">
<g clip-path="url(#clip0_38_23)">
<rect width="1352" height="494" fill="#111111"/>
<mask id="path-1-inside-1_38_23" fill="white">
<path d="M1607 576H1505C1488.98 576 1476 587.685 1476 602.1V693.9C1476 708.315 1488.98 720 1505 720H1607C1623.02 720 1636 708.315 1636 693.9V602.1C1636 587.685 1623.02 576 1607 576Z"/>
<path d="M967 720H865C848.984 720 836 731.685 836 746.1V837.9C836 852.315 848.984 864 865 864H967C983.016 864 996 852.315 996 837.9V746.1C996 731.685 983.016 720 967 720Z"/>
<path d="M487 720H385C368.984 720 356 731.685 356 746.1V837.9C356 852.315 368.984 864 385 864H487C503.016 864 516 852.315 516 837.9V746.1C516 731.685 503.016 720 487 720Z"/>
<path d="M1447 720H1345C1328.98 720 1316 731.685 1316 746.1V837.9C1316 852.315 1328.98 864 1345 864H1447C1463.02 864 1476 852.315 1476 837.9V746.1C1476 731.685 1463.02 720 1447 720Z"/>
<path d="M1287 576H1185C1168.98 576 1156 587.685 1156 602.1V693.9C1156 708.315 1168.98 720 1185 720H1287C1303.02 720 1316 708.315 1316 693.9V602.1C1316 587.685 1303.02 576 1287 576Z"/>
<path d="M327 576H225C208.984 576 196 587.685 196 602.1V693.9C196 708.315 208.984 720 225 720H327C343.016 720 356 708.315 356 693.9V602.1C356 587.685 343.016 576 327 576Z"/>
<path d="M-124 26.1V117.9C-124 132.315 -111.016 144 -95 144H7C23.0163 144 36 132.315 36 117.9V26.1C36 11.6854 23.0163 0 7 0H-95C-111.016 0 -124 11.6854 -124 26.1Z"/>
<path d="M167 144H65C48.9837 144 36 155.685 36 170.1V261.9C36 276.315 48.9837 288 65 288H167C183.016 288 196 276.315 196 261.9V170.1C196 155.685 183.016 144 167 144Z"/>
<path d="M647 288H545C528.984 288 516 299.685 516 314.1V405.9C516 420.315 528.984 432 545 432H647C663.016 432 676 420.315 676 405.9V314.1C676 299.685 663.016 288 647 288Z"/>
<path d="M327 288H225C208.984 288 196 299.685 196 314.1V405.9C196 420.315 208.984 432 225 432H327C343.016 432 356 420.315 356 405.9V314.1C356 299.685 343.016 288 327 288Z"/>
<path d="M967 432H865C848.984 432 836 443.685 836 458.1V549.9C836 564.315 848.984 576 865 576H967C983.016 576 996 564.315 996 549.9V458.1C996 443.685 983.016 432 967 432Z"/>
<path d="M1287 432H1185C1168.98 432 1156 443.685 1156 458.1V549.9C1156 564.315 1168.98 576 1185 576H1287C1303.02 576 1316 564.315 1316 549.9V458.1C1316 443.685 1303.02 432 1287 432Z"/>
<path d="M1316 26.1V117.9C1316 132.315 1328.98 144 1345 144H1447C1463.02 144 1476 132.315 1476 117.9V26.1C1476 11.6854 1463.02 0 1447 0H1345C1328.98 0 1316 11.6854 1316 26.1Z"/>
<path d="M807 144H705C688.984 144 676 155.685 676 170.1V261.9C676 276.315 688.984 288 705 288H807C823.016 288 836 276.315 836 261.9V170.1C836 155.685 823.016 144 807 144Z"/>
<path d="M516 26.1V117.9C516 132.315 528.984 144 545 144H647C663.016 144 676 132.315 676 117.9V26.1C676 11.6854 663.016 0 647 0H545C528.984 0 516 11.6854 516 26.1Z"/>
<path d="M167 432H65C48.9837 432 36 443.685 36 458.1V549.9C36 564.315 48.9837 576 65 576H167C183.016 576 196 564.315 196 549.9V458.1C196 443.685 183.016 432 167 432Z"/>
<path d="M1127 288H1025C1008.98 288 996 299.685 996 314.1V405.9C996 420.315 1008.98 432 1025 432H1127C1143.02 432 1156 420.315 1156 405.9V314.1C1156 299.685 1143.02 288 1127 288Z"/>
<path d="M807 432H705C688.984 432 676 443.685 676 458.1V549.9C676 564.315 688.984 576 705 576H807C823.016 576 836 564.315 836 549.9V458.1C836 443.685 823.016 432 807 432Z"/>
<path d="M807 288H705C688.984 288 676 299.685 676 314.1V405.9C676 420.315 688.984 432 705 432H807C823.016 432 836 420.315 836 405.9V314.1C836 299.685 823.016 288 807 288Z"/>
<path d="M967 288H865C848.984 288 836 299.685 836 314.1V405.9C836 420.315 848.984 432 865 432H967C983.016 432 996 420.315 996 405.9V314.1C996 299.685 983.016 288 967 288Z"/>
<path d="M967 144H865C848.984 144 836 155.685 836 170.1V261.9C836 276.315 848.984 288 865 288H967C983.016 288 996 276.315 996 261.9V170.1C996 155.685 983.016 144 967 144Z"/>
<path d="M1127 144H1025C1008.98 144 996 155.685 996 170.1V261.9C996 276.315 1008.98 288 1025 288H1127C1143.02 288 1156 276.315 1156 261.9V170.1C1156 155.685 1143.02 144 1127 144Z"/>
<path d="M1127 432H1025C1008.98 432 996 443.685 996 458.1V549.9C996 564.315 1008.98 576 1025 576H1127C1143.02 576 1156 564.315 1156 549.9V458.1C1156 443.685 1143.02 432 1127 432Z"/>
<path d="M1287 288H1185C1168.98 288 1156 299.685 1156 314.1V405.9C1156 420.315 1168.98 432 1185 432H1287C1303.02 432 1316 420.315 1316 405.9V314.1C1316 299.685 1303.02 288 1287 288Z"/>
<path d="M1447 432H1345C1328.98 432 1316 443.685 1316 458.1V549.9C1316 564.315 1328.98 576 1345 576H1447C1463.02 576 1476 564.315 1476 549.9V458.1C1476 443.685 1463.02 432 1447 432Z"/>
<path d="M1447 288H1345C1328.98 288 1316 299.685 1316 314.1V405.9C1316 420.315 1328.98 432 1345 432H1447C1463.02 432 1476 420.315 1476 405.9V314.1C1476 299.685 1463.02 288 1447 288Z"/>
<path d="M1287 144H1185C1168.98 144 1156 155.685 1156 170.1V261.9C1156 276.315 1168.98 288 1185 288H1287C1303.02 288 1316 276.315 1316 261.9V170.1C1316 155.685 1303.02 144 1287 144Z"/>
<path d="M1156 26.1V117.9C1156 132.315 1168.98 144 1185 144H1287C1303.02 144 1316 132.315 1316 117.9V26.1C1316 11.6854 1303.02 0 1287 0H1185C1168.98 0 1156 11.6854 1156 26.1Z"/>
<path d="M996 26.1V117.9C996 132.315 1008.98 144 1025 144H1127C1143.02 144 1156 132.315 1156 117.9V26.1C1156 11.6854 1143.02 0 1127 0H1025C1008.98 0 996 11.6854 996 26.1Z"/>
<path d="M836 26.1V117.9C836 132.315 848.984 144 865 144H967C983.016 144 996 132.315 996 117.9V26.1C996 11.6854 983.016 0 967 0H865C848.984 0 836 11.6854 836 26.1Z"/>
<path d="M676 26.1V117.9C676 132.315 688.984 144 705 144H807C823.016 144 836 132.315 836 117.9V26.1C836 11.6854 823.016 0 807 0H705C688.984 0 676 11.6854 676 26.1Z"/>
<path d="M647 432H545C528.984 432 516 443.685 516 458.1V549.9C516 564.315 528.984 576 545 576H647C663.016 576 676 564.315 676 549.9V458.1C676 443.685 663.016 432 647 432Z"/>
<path d="M487 432H385C368.984 432 356 443.685 356 458.1V549.9C356 564.315 368.984 576 385 576H487C503.016 576 516 564.315 516 549.9V458.1C516 443.685 503.016 432 487 432Z"/>
<path d="M327 432H225C208.984 432 196 443.685 196 458.1V549.9C196 564.315 208.984 576 225 576H327C343.016 576 356 564.315 356 549.9V458.1C356 443.685 343.016 432 327 432Z"/>
<path d="M167 288H65C48.9837 288 36 299.685 36 314.1V405.9C36 420.315 48.9837 432 65 432H167C183.016 432 196 420.315 196 405.9V314.1C196 299.685 183.016 288 167 288Z"/>
<path d="M7 432H-95C-111.016 432 -124 443.685 -124 458.1V549.9C-124 564.315 -111.016 576 -95 576H7C23.0163 576 36 564.315 36 549.9V458.1C36 443.685 23.0163 432 7 432Z"/>
<path d="M7 288H-95C-111.016 288 -124 299.685 -124 314.1V405.9C-124 420.315 -111.016 432 -95 432H7C23.0163 432 36 420.315 36 405.9V314.1C36 299.685 23.0163 288 7 288Z"/>
<path d="M7 144H-95C-111.016 144 -124 155.685 -124 170.1V261.9C-124 276.315 -111.016 288 -95 288H7C23.0163 288 36 276.315 36 261.9V170.1C36 155.685 23.0163 144 7 144Z"/>
<path d="M36 26.1V117.9C36 132.315 48.9837 144 65 144H167C183.016 144 196 132.315 196 117.9V26.1C196 11.6854 183.016 0 167 0H65C48.9837 0 36 11.6854 36 26.1Z"/>
<path d="M196 26.1V117.9C196 132.315 208.984 144 225 144H327C343.016 144 356 132.315 356 117.9V26.1C356 11.6854 343.016 0 327 0H225C208.984 0 196 11.6854 196 26.1Z"/>
<path d="M356 26.1V117.9C356 132.315 368.984 144 385 144H487C503.016 144 516 132.315 516 117.9V26.1C516 11.6854 503.016 0 487 0H385C368.984 0 356 11.6854 356 26.1Z"/>
<path d="M487 288H385C368.984 288 356 299.685 356 314.1V405.9C356 420.315 368.984 432 385 432H487C503.016 432 516 420.315 516 405.9V314.1C516 299.685 503.016 288 487 288Z"/>
<path d="M487 144H385C368.984 144 356 155.685 356 170.1V261.9C356 276.315 368.984 288 385 288H487C503.016 288 516 276.315 516 261.9V170.1C516 155.685 503.016 144 487 144Z"/>
<path d="M647 144H545C528.984 144 516 155.685 516 170.1V261.9C516 276.315 528.984 288 545 288H647C663.016 288 676 276.315 676 261.9V170.1C676 155.685 663.016 144 647 144Z"/>
<path d="M327 144H225C208.984 144 196 155.685 196 170.1V261.9C196 276.315 208.984 288 225 288H327C343.016 288 356 276.315 356 261.9V170.1C356 155.685 343.016 144 327 144Z"/>
</mask>
<path d="M-255 0.5H-153V-0.5H-255V0.5ZM-153 143.5H-255V144.5H-153V143.5ZM-283.5 117.9V26.1H-284.5V117.9H-283.5ZM-255 143.5C-270.791 143.5 -283.5 131.99 -283.5 117.9H-284.5C-284.5 132.639 -271.242 144.5 -255 144.5V143.5ZM-124.5 117.9C-124.5 131.99 -137.209 143.5 -153 143.5V144.5C-136.758 144.5 -123.5 132.639 -123.5 117.9H-124.5ZM-153 0.5C-137.209 0.5 -124.5 12.0098 -124.5 26.1H-123.5C-123.5 11.361 -136.758 -0.5 -153 -0.5V0.5ZM-255 -0.5C-271.242 -0.5 -284.5 11.361 -284.5 26.1H-283.5C-283.5 12.0098 -270.791 0.5 -255 0.5V-0.5ZM35.5 26.1V117.9H36.5V26.1H35.5ZM7 143.5H-95V144.5H7V143.5ZM195.5 26.1V117.9H196.5V26.1H195.5ZM167 143.5H65V144.5H167V143.5ZM355.5 26.1V117.9H356.5V26.1H355.5ZM327 143.5H225V144.5H327V143.5ZM515.5 26.1V117.9H516.5V26.1H515.5ZM487 143.5H385V144.5H487V143.5ZM675.5 26.1V117.9H676.5V26.1H675.5ZM647 143.5H545V144.5H647V143.5ZM835.5 26.1V117.9H836.5V26.1H835.5ZM807 143.5H705V144.5H807V143.5ZM995.5 26.1V117.9H996.5V26.1H995.5ZM967 143.5H865V144.5H967V143.5ZM1155.5 26.1V117.9H1156.5V26.1H1155.5ZM1127 143.5H1025V144.5H1127V143.5ZM1315.5 26.1V117.9H1316.5V26.1H1315.5ZM1287 143.5H1185V144.5H1287V143.5ZM1505 0.5H1607V-0.5H1505V0.5ZM1635.5 26.1V117.9H1636.5V26.1H1635.5ZM1607 143.5H1505V144.5H1607V143.5ZM1505 143.5C1489.21 143.5 1476.5 131.99 1476.5 117.9H1475.5C1475.5 132.639 1488.76 144.5 1505 144.5V143.5ZM1635.5 117.9C1635.5 131.99 1622.79 143.5 1607 143.5V144.5C1623.24 144.5 1636.5 132.639 1636.5 117.9H1635.5ZM1607 0.5C1622.79 0.5 1635.5 12.0098 1635.5 26.1H1636.5C1636.5 11.361 1623.24 -0.5 1607 -0.5V0.5ZM1505 -0.5C1488.76 -0.5 1475.5 11.361 1475.5 26.1H1476.5C1476.5 12.0098 1489.21 0.5 1505 0.5V-0.5ZM-153 287.5H-255V288.5H-153V287.5ZM-283.5 261.9V170.1H-284.5V261.9H-283.5ZM-255 287.5C-270.791 287.5 -283.5 275.99 -283.5 261.9H-284.5C-284.5 276.639 -271.242 288.5 -255 288.5V287.5ZM-124.5 261.9C-124.5 275.99 -137.209 287.5 -153 287.5V288.5C-136.758 288.5 -123.5 276.639 -123.5 261.9H-124.5ZM-153 144.5C-137.209 144.5 -124.5 156.01 -124.5 170.1H-123.5C-123.5 155.361 -136.758 143.5 -153 143.5V144.5ZM-255 143.5C-271.242 143.5 -284.5 155.361 -284.5 170.1H-283.5C-283.5 156.01 -270.791 144.5 -255 144.5V143.5ZM35.5 170.1V261.9H36.5V170.1H35.5ZM7 287.5H-95V288.5H7V287.5ZM195.5 170.1V261.9H196.5V170.1H195.5ZM167 287.5H65V288.5H167V287.5ZM355.5 170.1V261.9H356.5V170.1H355.5ZM327 287.5H225V288.5H327V287.5ZM515.5 170.1V261.9H516.5V170.1H515.5ZM487 287.5H385V288.5H487V287.5ZM675.5 170.1V261.9H676.5V170.1H675.5ZM647 287.5H545V288.5H647V287.5ZM835.5 170.1V261.9H836.5V170.1H835.5ZM807 287.5H705V288.5H807V287.5ZM995.5 170.1V261.9H996.5V170.1H995.5ZM967 287.5H865V288.5H967V287.5ZM1155.5 170.1V261.9H1156.5V170.1H1155.5ZM1127 287.5H1025V288.5H1127V287.5ZM1287 287.5H1185V288.5H1287V287.5ZM1475.5 170.1V261.9H1476.5V170.1H1475.5ZM1345 287.5C1329.21 287.5 1316.5 275.99 1316.5 261.9H1315.5C1315.5 276.639 1328.76 288.5 1345 288.5V287.5ZM1475.5 261.9C1475.5 275.99 1462.79 287.5 1447 287.5V288.5C1463.24 288.5 1476.5 276.639 1476.5 261.9H1475.5ZM1447 144.5C1462.79 144.5 1475.5 156.01 1475.5 170.1H1476.5C1476.5 155.361 1463.24 143.5 1447 143.5V144.5ZM1345 143.5C1328.76 143.5 1315.5 155.361 1315.5 170.1H1316.5C1316.5 156.01 1329.21 144.5 1345 144.5V143.5ZM1635.5 170.1V261.9H1636.5V170.1H1635.5ZM1607 287.5H1505V288.5H1607V287.5ZM1505 287.5C1489.21 287.5 1476.5 275.99 1476.5 261.9H1475.5C1475.5 276.639 1488.76 288.5 1505 288.5V287.5ZM1635.5 261.9C1635.5 275.99 1622.79 287.5 1607 287.5V288.5C1623.24 288.5 1636.5 276.639 1636.5 261.9H1635.5ZM1607 144.5C1622.79 144.5 1635.5 156.01 1635.5 170.1H1636.5C1636.5 155.361 1623.24 143.5 1607 143.5V144.5ZM1505 143.5C1488.76 143.5 1475.5 155.361 1475.5 170.1H1476.5C1476.5 156.01 1489.21 144.5 1505 144.5V143.5ZM-153 431.5H-255V432.5H-153V431.5ZM-283.5 405.9V314.1H-284.5V405.9H-283.5ZM-255 431.5C-270.791 431.5 -283.5 419.99 -283.5 405.9H-284.5C-284.5 420.639 -271.242 432.5 -255 432.5V431.5ZM-124.5 405.9C-124.5 419.99 -137.209 431.5 -153 431.5V432.5C-136.758 432.5 -123.5 420.639 -123.5 405.9H-124.5ZM-153 288.5C-137.209 288.5 -124.5 300.01 -124.5 314.1H-123.5C-123.5 299.361 -136.758 287.5 -153 287.5V288.5ZM-255 287.5C-271.242 287.5 -284.5 299.361 -284.5 314.1H-283.5C-283.5 300.01 -270.791 288.5 -255 288.5V287.5ZM35.5 314.1V405.9H36.5V314.1H35.5ZM7 431.5H-95V432.5H7V431.5ZM195.5 314.1V405.9H196.5V314.1H195.5ZM167 431.5H65V432.5H167V431.5ZM355.5 314.1V405.9H356.5V314.1H355.5ZM327 431.5H225V432.5H327V431.5ZM515.5 314.1V405.9H516.5V314.1H515.5ZM487 431.5H385V432.5H487V431.5ZM675.5 314.1V405.9H676.5V314.1H675.5ZM647 431.5H545V432.5H647V431.5ZM835.5 314.1V405.9H836.5V314.1H835.5ZM807 431.5H705V432.5H807V431.5ZM995.5 314.1V405.9H996.5V314.1H995.5ZM967 431.5H865V432.5H967V431.5ZM1155.5 314.1V405.9H1156.5V314.1H1155.5ZM1127 431.5H1025V432.5H1127V431.5ZM1315.5 314.1V405.9H1316.5V314.1H1315.5ZM1287 431.5H1185V432.5H1287V431.5ZM1447 431.5H1345V432.5H1447V431.5ZM1635.5 314.1V405.9H1636.5V314.1H1635.5ZM1607 431.5H1505V432.5H1607V431.5ZM1505 431.5C1489.21 431.5 1476.5 419.99 1476.5 405.9H1475.5C1475.5 420.639 1488.76 432.5 1505 432.5V431.5ZM1635.5 405.9C1635.5 419.99 1622.79 431.5 1607 431.5V432.5C1623.24 432.5 1636.5 420.639 1636.5 405.9H1635.5ZM1607 288.5C1622.79 288.5 1635.5 300.01 1635.5 314.1H1636.5C1636.5 299.361 1623.24 287.5 1607 287.5V288.5ZM1505 287.5C1488.76 287.5 1475.5 299.361 1475.5 314.1H1476.5C1476.5 300.01 1489.21 288.5 1505 288.5V287.5ZM-153 575.5H-255V576.5H-153V575.5ZM-283.5 549.9V458.1H-284.5V549.9H-283.5ZM-255 575.5C-270.791 575.5 -283.5 563.99 -283.5 549.9H-284.5C-284.5 564.639 -271.242 576.5 -255 576.5V575.5ZM-124.5 549.9C-124.5 563.99 -137.209 575.5 -153 575.5V576.5C-136.758 576.5 -123.5 564.639 -123.5 549.9H-124.5ZM-153 432.5C-137.209 432.5 -124.5 444.01 -124.5 458.1H-123.5C-123.5 443.361 -136.758 431.5 -153 431.5V432.5ZM-255 431.5C-271.242 431.5 -284.5 443.361 -284.5 458.1H-283.5C-283.5 444.01 -270.791 432.5 -255 432.5V431.5ZM35.5 458.1V549.9H36.5V458.1H35.5ZM195.5 458.1V549.9H196.5V458.1H195.5ZM355.5 458.1V549.9H356.5V458.1H355.5ZM327 575.5H225V576.5H327V575.5ZM515.5 458.1V549.9H516.5V458.1H515.5ZM675.5 458.1V549.9H676.5V458.1H675.5ZM835.5 458.1V549.9H836.5V458.1H835.5ZM995.5 458.1V549.9H996.5V458.1H995.5ZM1155.5 458.1V549.9H1156.5V458.1H1155.5ZM1315.5 458.1V549.9H1316.5V458.1H1315.5ZM1287 575.5H1185V576.5H1287V575.5ZM1635.5 458.1V549.9H1636.5V458.1H1635.5ZM1505 575.5C1489.21 575.5 1476.5 563.99 1476.5 549.9H1475.5C1475.5 564.639 1488.76 576.5 1505 576.5V575.5ZM1635.5 549.9C1635.5 563.99 1622.79 575.5 1607 575.5V576.5C1623.24 576.5 1636.5 564.639 1636.5 549.9H1635.5ZM1607 432.5C1622.79 432.5 1635.5 444.01 1635.5 458.1H1636.5C1636.5 443.361 1623.24 431.5 1607 431.5V432.5ZM1505 431.5C1488.76 431.5 1475.5 443.361 1475.5 458.1H1476.5C1476.5 444.01 1489.21 432.5 1505 432.5V431.5ZM-124.5 602.1V693.9H-123.5V602.1H-124.5ZM-153 719.5H-255V720.5H-153V719.5ZM-283.5 693.9V602.1H-284.5V693.9H-283.5ZM-255 719.5C-270.791 719.5 -283.5 707.99 -283.5 693.9H-284.5C-284.5 708.639 -271.242 720.5 -255 720.5V719.5ZM-124.5 693.9C-124.5 707.99 -137.209 719.5 -153 719.5V720.5C-136.758 720.5 -123.5 708.639 -123.5 693.9H-124.5ZM-153 576.5C-137.209 576.5 -124.5 588.01 -124.5 602.1H-123.5C-123.5 587.361 -136.758 575.5 -153 575.5V576.5ZM-255 575.5C-271.242 575.5 -284.5 587.361 -284.5 602.1H-283.5C-283.5 588.01 -270.791 576.5 -255 576.5V575.5ZM35.5 602.1V693.9H36.5V602.1H35.5ZM7 719.5H-95V720.5H7V719.5ZM-95 719.5C-110.791 719.5 -123.5 707.99 -123.5 693.9H-124.5C-124.5 708.639 -111.242 720.5 -95 720.5V719.5ZM35.5 693.9C35.5 707.99 22.791 719.5 7 719.5V720.5C23.2415 720.5 36.5 708.639 36.5 693.9H35.5ZM7 576.5C22.791 576.5 35.5 588.01 35.5 602.1H36.5C36.5 587.361 23.2415 575.5 7 575.5V576.5ZM-95 575.5C-111.242 575.5 -124.5 587.361 -124.5 602.1H-123.5C-123.5 588.01 -110.791 576.5 -95 576.5V575.5ZM167 719.5H65V720.5H167V719.5ZM65 719.5C49.209 719.5 36.5 707.99 36.5 693.9H35.5C35.5 708.639 48.7585 720.5 65 720.5V719.5ZM195.5 693.9C195.5 707.99 182.791 719.5 167 719.5V720.5C183.242 720.5 196.5 708.639 196.5 693.9H195.5ZM167 576.5C182.791 576.5 195.5 588.01 195.5 602.1H196.5C196.5 587.361 183.242 575.5 167 575.5V576.5ZM65 575.5C48.7585 575.5 35.5 587.361 35.5 602.1H36.5C36.5 588.01 49.209 576.5 65 576.5V575.5ZM515.5 602.1V693.9H516.5V602.1H515.5ZM385 719.5C369.209 719.5 356.5 707.99 356.5 693.9H355.5C355.5 708.639 368.758 720.5 385 720.5V719.5ZM515.5 693.9C515.5 707.99 502.791 719.5 487 719.5V720.5C503.242 720.5 516.5 708.639 516.5 693.9H515.5ZM487 576.5C502.791 576.5 515.5 588.01 515.5 602.1H516.5C516.5 587.361 503.242 575.5 487 575.5V576.5ZM385 575.5C368.758 575.5 355.5 587.361 355.5 602.1H356.5C356.5 588.01 369.209 576.5 385 576.5V575.5ZM675.5 602.1V693.9H676.5V602.1H675.5ZM647 719.5H545V720.5H647V719.5ZM545 719.5C529.209 719.5 516.5 707.99 516.5 693.9H515.5C515.5 708.639 528.758 720.5 545 720.5V719.5ZM675.5 693.9C675.5 707.99 662.791 719.5 647 719.5V720.5C663.242 720.5 676.5 708.639 676.5 693.9H675.5ZM647 576.5C662.791 576.5 675.5 588.01 675.5 602.1H676.5C676.5 587.361 663.242 575.5 647 575.5V576.5ZM545 575.5C528.758 575.5 515.5 587.361 515.5 602.1H516.5C516.5 588.01 529.209 576.5 545 576.5V575.5ZM835.5 602.1V693.9H836.5V602.1H835.5ZM807 719.5H705V720.5H807V719.5ZM705 719.5C689.209 719.5 676.5 707.99 676.5 693.9H675.5C675.5 708.639 688.758 720.5 705 720.5V719.5ZM835.5 693.9C835.5 707.99 822.791 719.5 807 719.5V720.5C823.242 720.5 836.5 708.639 836.5 693.9H835.5ZM807 576.5C822.791 576.5 835.5 588.01 835.5 602.1H836.5C836.5 587.361 823.242 575.5 807 575.5V576.5ZM705 575.5C688.758 575.5 675.5 587.361 675.5 602.1H676.5C676.5 588.01 689.209 576.5 705 576.5V575.5ZM995.5 602.1V693.9H996.5V602.1H995.5ZM865 719.5C849.209 719.5 836.5 707.99 836.5 693.9H835.5C835.5 708.639 848.758 720.5 865 720.5V719.5ZM995.5 693.9C995.5 707.99 982.791 719.5 967 719.5V720.5C983.242 720.5 996.5 708.639 996.5 693.9H995.5ZM967 576.5C982.791 576.5 995.5 588.01 995.5 602.1H996.5C996.5 587.361 983.242 575.5 967 575.5V576.5ZM865 575.5C848.758 575.5 835.5 587.361 835.5 602.1H836.5C836.5 588.01 849.209 576.5 865 576.5V575.5ZM1127 719.5H1025V720.5H1127V719.5ZM1025 719.5C1009.21 719.5 996.5 707.99 996.5 693.9H995.5C995.5 708.639 1008.76 720.5 1025 720.5V719.5ZM1155.5 693.9C1155.5 707.99 1142.79 719.5 1127 719.5V720.5C1143.24 720.5 1156.5 708.639 1156.5 693.9H1155.5ZM1127 576.5C1142.79 576.5 1155.5 588.01 1155.5 602.1H1156.5C1156.5 587.361 1143.24 575.5 1127 575.5V576.5ZM1025 575.5C1008.76 575.5 995.5 587.361 995.5 602.1H996.5C996.5 588.01 1009.21 576.5 1025 576.5V575.5ZM1345 719.5C1329.21 719.5 1316.5 707.99 1316.5 693.9H1315.5C1315.5 708.639 1328.76 720.5 1345 720.5V719.5ZM1475.5 693.9C1475.5 707.99 1462.79 719.5 1447 719.5V720.5C1463.24 720.5 1476.5 708.639 1476.5 693.9H1475.5ZM1447 576.5C1462.79 576.5 1475.5 588.01 1475.5 602.1H1476.5C1476.5 587.361 1463.24 575.5 1447 575.5V576.5ZM1345 575.5C1328.76 575.5 1315.5 587.361 1315.5 602.1H1316.5C1316.5 588.01 1329.21 576.5 1345 576.5V575.5ZM-124.5 746.1V837.9H-123.5V746.1H-124.5ZM-153 863.5H-255V864.5H-153V863.5ZM-283.5 837.9V746.1H-284.5V837.9H-283.5ZM-255 863.5C-270.791 863.5 -283.5 851.99 -283.5 837.9H-284.5C-284.5 852.639 -271.242 864.5 -255 864.5V863.5ZM-124.5 837.9C-124.5 851.99 -137.209 863.5 -153 863.5V864.5C-136.758 864.5 -123.5 852.639 -123.5 837.9H-124.5ZM-153 720.5C-137.209 720.5 -124.5 732.01 -124.5 746.1H-123.5C-123.5 731.361 -136.758 719.5 -153 719.5V720.5ZM-255 719.5C-271.242 719.5 -284.5 731.361 -284.5 746.1H-283.5C-283.5 732.01 -270.791 720.5 -255 720.5V719.5ZM35.5 746.1V837.9H36.5V746.1H35.5ZM7 863.5H-95V864.5H7V863.5ZM-95 863.5C-110.791 863.5 -123.5 851.99 -123.5 837.9H-124.5C-124.5 852.639 -111.242 864.5 -95 864.5V863.5ZM35.5 837.9C35.5 851.99 22.791 863.5 7 863.5V864.5C23.2415 864.5 36.5 852.639 36.5 837.9H35.5ZM7 720.5C22.791 720.5 35.5 732.01 35.5 746.1H36.5C36.5 731.361 23.2415 719.5 7 719.5V720.5ZM-95 719.5C-111.242 719.5 -124.5 731.361 -124.5 746.1H-123.5C-123.5 732.01 -110.791 720.5 -95 720.5V719.5ZM195.5 746.1V837.9H196.5V746.1H195.5ZM167 863.5H65V864.5H167V863.5ZM65 863.5C49.209 863.5 36.5 851.99 36.5 837.9H35.5C35.5 852.639 48.7585 864.5 65 864.5V863.5ZM195.5 837.9C195.5 851.99 182.791 863.5 167 863.5V864.5C183.242 864.5 196.5 852.639 196.5 837.9H195.5ZM167 720.5C182.791 720.5 195.5 732.01 195.5 746.1H196.5C196.5 731.361 183.242 719.5 167 719.5V720.5ZM65 719.5C48.7585 719.5 35.5 731.361 35.5 746.1H36.5C36.5 732.01 49.209 720.5 65 720.5V719.5ZM327 863.5H225V864.5H327V863.5ZM225 863.5C209.209 863.5 196.5 851.99 196.5 837.9H195.5C195.5 852.639 208.758 864.5 225 864.5V863.5ZM355.5 837.9C355.5 851.99 342.791 863.5 327 863.5V864.5C343.242 864.5 356.5 852.639 356.5 837.9H355.5ZM327 720.5C342.791 720.5 355.5 732.01 355.5 746.1H356.5C356.5 731.361 343.242 719.5 327 719.5V720.5ZM225 719.5C208.758 719.5 195.5 731.361 195.5 746.1H196.5C196.5 732.01 209.209 720.5 225 720.5V719.5ZM675.5 746.1V837.9H676.5V746.1H675.5ZM647 863.5H545V864.5H647V863.5ZM545 863.5C529.209 863.5 516.5 851.99 516.5 837.9H515.5C515.5 852.639 528.758 864.5 545 864.5V863.5ZM675.5 837.9C675.5 851.99 662.791 863.5 647 863.5V864.5C663.242 864.5 676.5 852.639 676.5 837.9H675.5ZM647 720.5C662.791 720.5 675.5 732.01 675.5 746.1H676.5C676.5 731.361 663.242 719.5 647 719.5V720.5ZM545 719.5C528.758 719.5 515.5 731.361 515.5 746.1H516.5C516.5 732.01 529.209 720.5 545 720.5V719.5ZM807 863.5H705V864.5H807V863.5ZM705 863.5C689.209 863.5 676.5 851.99 676.5 837.9H675.5C675.5 852.639 688.758 864.5 705 864.5V863.5ZM835.5 837.9C835.5 851.99 822.791 863.5 807 863.5V864.5C823.242 864.5 836.5 852.639 836.5 837.9H835.5ZM807 720.5C822.791 720.5 835.5 732.01 835.5 746.1H836.5C836.5 731.361 823.242 719.5 807 719.5V720.5ZM705 719.5C688.758 719.5 675.5 731.361 675.5 746.1H676.5C676.5 732.01 689.209 720.5 705 720.5V719.5ZM1155.5 746.1V837.9H1156.5V746.1H1155.5ZM1127 863.5H1025V864.5H1127V863.5ZM1025 863.5C1009.21 863.5 996.5 851.99 996.5 837.9H995.5C995.5 852.639 1008.76 864.5 1025 864.5V863.5ZM1155.5 837.9C1155.5 851.99 1142.79 863.5 1127 863.5V864.5C1143.24 864.5 1156.5 852.639 1156.5 837.9H1155.5ZM1127 720.5C1142.79 720.5 1155.5 732.01 1155.5 746.1H1156.5C1156.5 731.361 1143.24 719.5 1127 719.5V720.5ZM1025 719.5C1008.76 719.5 995.5 731.361 995.5 746.1H996.5C996.5 732.01 1009.21 720.5 1025 720.5V719.5ZM1287 863.5H1185V864.5H1287V863.5ZM1185 863.5C1169.21 863.5 1156.5 851.99 1156.5 837.9H1155.5C1155.5 852.639 1168.76 864.5 1185 864.5V863.5ZM1315.5 837.9C1315.5 851.99 1302.79 863.5 1287 863.5V864.5C1303.24 864.5 1316.5 852.639 1316.5 837.9H1315.5ZM1287 720.5C1302.79 720.5 1315.5 732.01 1315.5 746.1H1316.5C1316.5 731.361 1303.24 719.5 1287 719.5V720.5ZM1185 719.5C1168.76 719.5 1155.5 731.361 1155.5 746.1H1156.5C1156.5 732.01 1169.21 720.5 1185 720.5V719.5ZM1635.5 746.1V837.9H1636.5V746.1H1635.5ZM1607 863.5H1505V864.5H1607V863.5ZM1505 863.5C1489.21 863.5 1476.5 851.99 1476.5 837.9H1475.5C1475.5 852.639 1488.76 864.5 1505 864.5V863.5ZM1635.5 837.9C1635.5 851.99 1622.79 863.5 1607 863.5V864.5C1623.24 864.5 1636.5 852.639 1636.5 837.9H1635.5ZM1607 720.5C1622.79 720.5 1635.5 732.01 1635.5 746.1H1636.5C1636.5 731.361 1623.24 719.5 1607 719.5V720.5ZM1505 719.5C1488.76 719.5 1475.5 731.361 1475.5 746.1H1476.5C1476.5 732.01 1489.21 720.5 1505 720.5V719.5ZM-125 26.1V117.9H-123V26.1H-125ZM-95 1H7V-1H-95V1ZM-95 143C-110.566 143 -123 131.666 -123 117.9H-125C-125 132.963 -111.467 145 -95 145V143ZM35 117.9C35 131.666 22.5657 143 7 143V145C23.4668 145 37 132.963 37 117.9H35ZM7 1C22.5657 1 35 12.3342 35 26.1H37C37 11.0366 23.4668 -1 7 -1V1ZM-95 -1C-111.467 -1 -125 11.0366 -125 26.1H-123C-123 12.3342 -110.566 1 -95 1V-1ZM65 1H167V-1H65V1ZM65 143C49.4343 143 37 131.666 37 117.9H35C35 132.963 48.5332 145 65 145V143ZM195 117.9C195 131.666 182.566 143 167 143V145C183.467 145 197 132.963 197 117.9H195ZM167 1C182.566 1 195 12.3342 195 26.1H197C197 11.0366 183.467 -1 167 -1V1ZM65 -1C48.5332 -1 35 11.0366 35 26.1H37C37 12.3342 49.4343 1 65 1V-1ZM225 1H327V-1H225V1ZM225 143C209.434 143 197 131.666 197 117.9H195C195 132.963 208.533 145 225 145V143ZM355 117.9C355 131.666 342.566 143 327 143V145C343.467 145 357 132.963 357 117.9H355ZM327 1C342.566 1 355 12.3342 355 26.1H357C357 11.0366 343.467 -1 327 -1V1ZM225 -1C208.533 -1 195 11.0366 195 26.1H197C197 12.3342 209.434 1 225 1V-1ZM385 1H487V-1H385V1ZM385 143C369.434 143 357 131.666 357 117.9H355C355 132.963 368.533 145 385 145V143ZM515 117.9C515 131.666 502.566 143 487 143V145C503.467 145 517 132.963 517 117.9H515ZM487 1C502.566 1 515 12.3342 515 26.1H517C517 11.0366 503.467 -1 487 -1V1ZM385 -1C368.533 -1 355 11.0366 355 26.1H357C357 12.3342 369.434 1 385 1V-1ZM545 1H647V-1H545V1ZM545 143C529.434 143 517 131.666 517 117.9H515C515 132.963 528.533 145 545 145V143ZM675 117.9C675 131.666 662.566 143 647 143V145C663.467 145 677 132.963 677 117.9H675ZM647 1C662.566 1 675 12.3342 675 26.1H677C677 11.0366 663.467 -1 647 -1V1ZM545 -1C528.533 -1 515 11.0366 515 26.1H517C517 12.3342 529.434 1 545 1V-1ZM705 1H807V-1H705V1ZM705 143C689.434 143 677 131.666 677 117.9H675C675 132.963 688.533 145 705 145V143ZM835 117.9C835 131.666 822.566 143 807 143V145C823.467 145 837 132.963 837 117.9H835ZM807 1C822.566 1 835 12.3342 835 26.1H837C837 11.0366 823.467 -1 807 -1V1ZM705 -1C688.533 -1 675 11.0366 675 26.1H677C677 12.3342 689.434 1 705 1V-1ZM865 1H967V-1H865V1ZM865 143C849.434 143 837 131.666 837 117.9H835C835 132.963 848.533 145 865 145V143ZM995 117.9C995 131.666 982.566 143 967 143V145C983.467 145 997 132.963 997 117.9H995ZM967 1C982.566 1 995 12.3342 995 26.1H997C997 11.0366 983.467 -1 967 -1V1ZM865 -1C848.533 -1 835 11.0366 835 26.1H837C837 12.3342 849.434 1 865 1V-1ZM1025 1H1127V-1H1025V1ZM1025 143C1009.43 143 997 131.666 997 117.9H995C995 132.963 1008.53 145 1025 145V143ZM1155 117.9C1155 131.666 1142.57 143 1127 143V145C1143.47 145 1157 132.963 1157 117.9H1155ZM1127 1C1142.57 1 1155 12.3342 1155 26.1H1157C1157 11.0366 1143.47 -1 1127 -1V1ZM1025 -1C1008.53 -1 995 11.0366 995 26.1H997C997 12.3342 1009.43 1 1025 1V-1ZM1185 1H1287V-1H1185V1ZM1185 143C1169.43 143 1157 131.666 1157 117.9H1155C1155 132.963 1168.53 145 1185 145V143ZM1315 117.9C1315 131.666 1302.57 143 1287 143V145C1303.47 145 1317 132.963 1317 117.9H1315ZM1287 1C1302.57 1 1315 12.3342 1315 26.1H1317C1317 11.0366 1303.47 -1 1287 -1V1ZM1185 -1C1168.53 -1 1155 11.0366 1155 26.1H1157C1157 12.3342 1169.43 1 1185 1V-1ZM1345 1H1447V-1H1345V1ZM1475 26.1V117.9H1477V26.1H1475ZM1447 143H1345V145H1447V143ZM1345 143C1329.43 143 1317 131.666 1317 117.9H1315C1315 132.963 1328.53 145 1345 145V143ZM1475 117.9C1475 131.666 1462.57 143 1447 143V145C1463.47 145 1477 132.963 1477 117.9H1475ZM1447 1C1462.57 1 1475 12.3342 1475 26.1H1477C1477 11.0366 1463.47 -1 1447 -1V1ZM1345 -1C1328.53 -1 1315 11.0366 1315 26.1H1317C1317 12.3342 1329.43 1 1345 1V-1ZM-125 170.1V261.9H-123V170.1H-125ZM-95 287C-110.566 287 -123 275.666 -123 261.9H-125C-125 276.963 -111.467 289 -95 289V287ZM35 261.9C35 275.666 22.5657 287 7 287V289C23.4668 289 37 276.963 37 261.9H35ZM7 145C22.5657 145 35 156.334 35 170.1H37C37 155.037 23.4668 143 7 143V145ZM-95 143C-111.467 143 -125 155.037 -125 170.1H-123C-123 156.334 -110.566 145 -95 145V143ZM65 287C49.4343 287 37 275.666 37 261.9H35C35 276.963 48.5332 289 65 289V287ZM195 261.9C195 275.666 182.566 287 167 287V289C183.467 289 197 276.963 197 261.9H195ZM167 145C182.566 145 195 156.334 195 170.1H197C197 155.037 183.467 143 167 143V145ZM65 143C48.5332 143 35 155.037 35 170.1H37C37 156.334 49.4343 145 65 145V143ZM225 287C209.434 287 197 275.666 197 261.9H195C195 276.963 208.533 289 225 289V287ZM355 261.9C355 275.666 342.566 287 327 287V289C343.467 289 357 276.963 357 261.9H355ZM327 145C342.566 145 355 156.334 355 170.1H357C357 155.037 343.467 143 327 143V145ZM225 143C208.533 143 195 155.037 195 170.1H197C197 156.334 209.434 145 225 145V143ZM385 287C369.434 287 357 275.666 357 261.9H355C355 276.963 368.533 289 385 289V287ZM515 261.9C515 275.666 502.566 287 487 287V289C503.467 289 517 276.963 517 261.9H515ZM487 145C502.566 145 515 156.334 515 170.1H517C517 155.037 503.467 143 487 143V145ZM385 143C368.533 143 355 155.037 355 170.1H357C357 156.334 369.434 145 385 145V143ZM545 287C529.434 287 517 275.666 517 261.9H515C515 276.963 528.533 289 545 289V287ZM675 261.9C675 275.666 662.566 287 647 287V289C663.467 289 677 276.963 677 261.9H675ZM647 145C662.566 145 675 156.334 675 170.1H677C677 155.037 663.467 143 647 143V145ZM545 143C528.533 143 515 155.037 515 170.1H517C517 156.334 529.434 145 545 145V143ZM705 287C689.434 287 677 275.666 677 261.9H675C675 276.963 688.533 289 705 289V287ZM835 261.9C835 275.666 822.566 287 807 287V289C823.467 289 837 276.963 837 261.9H835ZM807 145C822.566 145 835 156.334 835 170.1H837C837 155.037 823.467 143 807 143V145ZM705 143C688.533 143 675 155.037 675 170.1H677C677 156.334 689.434 145 705 145V143ZM865 287C849.434 287 837 275.666 837 261.9H835C835 276.963 848.533 289 865 289V287ZM995 261.9C995 275.666 982.566 287 967 287V289C983.467 289 997 276.963 997 261.9H995ZM967 145C982.566 145 995 156.334 995 170.1H997C997 155.037 983.467 143 967 143V145ZM865 143C848.533 143 835 155.037 835 170.1H837C837 156.334 849.434 145 865 145V143ZM1025 287C1009.43 287 997 275.666 997 261.9H995C995 276.963 1008.53 289 1025 289V287ZM1155 261.9C1155 275.666 1142.57 287 1127 287V289C1143.47 289 1157 276.963 1157 261.9H1155ZM1127 145C1142.57 145 1155 156.334 1155 170.1H1157C1157 155.037 1143.47 143 1127 143V145ZM1025 143C1008.53 143 995 155.037 995 170.1H997C997 156.334 1009.43 145 1025 145V143ZM1315 170.1V261.9H1317V170.1H1315ZM1185 287C1169.43 287 1157 275.666 1157 261.9H1155C1155 276.963 1168.53 289 1185 289V287ZM1315 261.9C1315 275.666 1302.57 287 1287 287V289C1303.47 289 1317 276.963 1317 261.9H1315ZM1287 145C1302.57 145 1315 156.334 1315 170.1H1317C1317 155.037 1303.47 143 1287 143V145ZM1185 143C1168.53 143 1155 155.037 1155 170.1H1157C1157 156.334 1169.43 145 1185 145V143ZM1447 287H1345V289H1447V287ZM-125 314.1V405.9H-123V314.1H-125ZM-95 431C-110.566 431 -123 419.666 -123 405.9H-125C-125 420.963 -111.467 433 -95 433V431ZM35 405.9C35 419.666 22.5657 431 7 431V433C23.4668 433 37 420.963 37 405.9H35ZM7 289C22.5657 289 35 300.334 35 314.1H37C37 299.037 23.4668 287 7 287V289ZM-95 287C-111.467 287 -125 299.037 -125 314.1H-123C-123 300.334 -110.566 289 -95 289V287ZM65 431C49.4343 431 37 419.666 37 405.9H35C35 420.963 48.5332 433 65 433V431ZM195 405.9C195 419.666 182.566 431 167 431V433C183.467 433 197 420.963 197 405.9H195ZM167 289C182.566 289 195 300.334 195 314.1H197C197 299.037 183.467 287 167 287V289ZM65 287C48.5332 287 35 299.037 35 314.1H37C37 300.334 49.4343 289 65 289V287ZM225 431C209.434 431 197 419.666 197 405.9H195C195 420.963 208.533 433 225 433V431ZM355 405.9C355 419.666 342.566 431 327 431V433C343.467 433 357 420.963 357 405.9H355ZM327 289C342.566 289 355 300.334 355 314.1H357C357 299.037 343.467 287 327 287V289ZM225 287C208.533 287 195 299.037 195 314.1H197C197 300.334 209.434 289 225 289V287ZM385 431C369.434 431 357 419.666 357 405.9H355C355 420.963 368.533 433 385 433V431ZM515 405.9C515 419.666 502.566 431 487 431V433C503.467 433 517 420.963 517 405.9H515ZM487 289C502.566 289 515 300.334 515 314.1H517C517 299.037 503.467 287 487 287V289ZM385 287C368.533 287 355 299.037 355 314.1H357C357 300.334 369.434 289 385 289V287ZM545 431C529.434 431 517 419.666 517 405.9H515C515 420.963 528.533 433 545 433V431ZM675 405.9C675 419.666 662.566 431 647 431V433C663.467 433 677 420.963 677 405.9H675ZM647 289C662.566 289 675 300.334 675 314.1H677C677 299.037 663.467 287 647 287V289ZM545 287C528.533 287 515 299.037 515 314.1H517C517 300.334 529.434 289 545 289V287ZM705 431C689.434 431 677 419.666 677 405.9H675C675 420.963 688.533 433 705 433V431ZM835 405.9C835 419.666 822.566 431 807 431V433C823.467 433 837 420.963 837 405.9H835ZM807 289C822.566 289 835 300.334 835 314.1H837C837 299.037 823.467 287 807 287V289ZM705 287C688.533 287 675 299.037 675 314.1H677C677 300.334 689.434 289 705 289V287ZM865 431C849.434 431 837 419.666 837 405.9H835C835 420.963 848.533 433 865 433V431ZM995 405.9C995 419.666 982.566 431 967 431V433C983.467 433 997 420.963 997 405.9H995ZM967 289C982.566 289 995 300.334 995 314.1H997C997 299.037 983.467 287 967 287V289ZM865 287C848.533 287 835 299.037 835 314.1H837C837 300.334 849.434 289 865 289V287ZM1025 431C1009.43 431 997 419.666 997 405.9H995C995 420.963 1008.53 433 1025 433V431ZM1155 405.9C1155 419.666 1142.57 431 1127 431V433C1143.47 433 1157 420.963 1157 405.9H1155ZM1127 289C1142.57 289 1155 300.334 1155 314.1H1157C1157 299.037 1143.47 287 1127 287V289ZM1025 287C1008.53 287 995 299.037 995 314.1H997C997 300.334 1009.43 289 1025 289V287ZM1185 431C1169.43 431 1157 419.666 1157 405.9H1155C1155 420.963 1168.53 433 1185 433V431ZM1315 405.9C1315 419.666 1302.57 431 1287 431V433C1303.47 433 1317 420.963 1317 405.9H1315ZM1287 289C1302.57 289 1315 300.334 1315 314.1H1317C1317 299.037 1303.47 287 1287 287V289ZM1185 287C1168.53 287 1155 299.037 1155 314.1H1157C1157 300.334 1169.43 289 1185 289V287ZM1475 314.1V405.9H1477V314.1H1475ZM1345 431C1329.43 431 1317 419.666 1317 405.9H1315C1315 420.963 1328.53 433 1345 433V431ZM1475 405.9C1475 419.666 1462.57 431 1447 431V433C1463.47 433 1477 420.963 1477 405.9H1475ZM1447 289C1462.57 289 1475 300.334 1475 314.1H1477C1477 299.037 1463.47 287 1447 287V289ZM1345 287C1328.53 287 1315 299.037 1315 314.1H1317C1317 300.334 1329.43 289 1345 289V287ZM-125 458.1V549.9H-123V458.1H-125ZM7 575H-95V577H7V575ZM-95 575C-110.566 575 -123 563.666 -123 549.9H-125C-125 564.963 -111.467 577 -95 577V575ZM35 549.9C35 563.666 22.5657 575 7 575V577C23.4668 577 37 564.963 37 549.9H35ZM7 433C22.5657 433 35 444.334 35 458.1H37C37 443.037 23.4668 431 7 431V433ZM-95 431C-111.467 431 -125 443.037 -125 458.1H-123C-123 444.334 -110.566 433 -95 433V431ZM167 575H65V577H167V575ZM65 575C49.4343 575 37 563.666 37 549.9H35C35 564.963 48.5332 577 65 577V575ZM195 549.9C195 563.666 182.566 575 167 575V577C183.467 577 197 564.963 197 549.9H195ZM167 433C182.566 433 195 444.334 195 458.1H197C197 443.037 183.467 431 167 431V433ZM65 431C48.5332 431 35 443.037 35 458.1H37C37 444.334 49.4343 433 65 433V431ZM225 575C209.434 575 197 563.666 197 549.9H195C195 564.963 208.533 577 225 577V575ZM355 549.9C355 563.666 342.566 575 327 575V577C343.467 577 357 564.963 357 549.9H355ZM327 433C342.566 433 355 444.334 355 458.1H357C357 443.037 343.467 431 327 431V433ZM225 431C208.533 431 195 443.037 195 458.1H197C197 444.334 209.434 433 225 433V431ZM487 575H385V577H487V575ZM385 575C369.434 575 357 563.666 357 549.9H355C355 564.963 368.533 577 385 577V575ZM515 549.9C515 563.666 502.566 575 487 575V577C503.467 577 517 564.963 517 549.9H515ZM487 433C502.566 433 515 444.334 515 458.1H517C517 443.037 503.467 431 487 431V433ZM385 431C368.533 431 355 443.037 355 458.1H357C357 444.334 369.434 433 385 433V431ZM647 575H545V577H647V575ZM545 575C529.434 575 517 563.666 517 549.9H515C515 564.963 528.533 577 545 577V575ZM675 549.9C675 563.666 662.566 575 647 575V577C663.467 577 677 564.963 677 549.9H675ZM647 433C662.566 433 675 444.334 675 458.1H677C677 443.037 663.467 431 647 431V433ZM545 431C528.533 431 515 443.037 515 458.1H517C517 444.334 529.434 433 545 433V431ZM807 575H705V577H807V575ZM705 575C689.434 575 677 563.666 677 549.9H675C675 564.963 688.533 577 705 577V575ZM835 549.9C835 563.666 822.566 575 807 575V577C823.467 577 837 564.963 837 549.9H835ZM807 433C822.566 433 835 444.334 835 458.1H837C837 443.037 823.467 431 807 431V433ZM705 431C688.533 431 675 443.037 675 458.1H677C677 444.334 689.434 433 705 433V431ZM967 575H865V577H967V575ZM865 575C849.434 575 837 563.666 837 549.9H835C835 564.963 848.533 577 865 577V575ZM995 549.9C995 563.666 982.566 575 967 575V577C983.467 577 997 564.963 997 549.9H995ZM967 433C982.566 433 995 444.334 995 458.1H997C997 443.037 983.467 431 967 431V433ZM865 431C848.533 431 835 443.037 835 458.1H837C837 444.334 849.434 433 865 433V431ZM1127 575H1025V577H1127V575ZM1025 575C1009.43 575 997 563.666 997 549.9H995C995 564.963 1008.53 577 1025 577V575ZM1155 549.9C1155 563.666 1142.57 575 1127 575V577C1143.47 577 1157 564.963 1157 549.9H1155ZM1127 433C1142.57 433 1155 444.334 1155 458.1H1157C1157 443.037 1143.47 431 1127 431V433ZM1025 431C1008.53 431 995 443.037 995 458.1H997C997 444.334 1009.43 433 1025 433V431ZM1185 575C1169.43 575 1157 563.666 1157 549.9H1155C1155 564.963 1168.53 577 1185 577V575ZM1315 549.9C1315 563.666 1302.57 575 1287 575V577C1303.47 577 1317 564.963 1317 549.9H1315ZM1287 433C1302.57 433 1315 444.334 1315 458.1H1317C1317 443.037 1303.47 431 1287 431V433ZM1185 431C1168.53 431 1155 443.037 1155 458.1H1157C1157 444.334 1169.43 433 1185 433V431ZM1475 458.1V549.9H1477V458.1H1475ZM1447 575H1345V577H1447V575ZM1345 575C1329.43 575 1317 563.666 1317 549.9H1315C1315 564.963 1328.53 577 1345 577V575ZM1475 549.9C1475 563.666 1462.57 575 1447 575V577C1463.47 577 1477 564.963 1477 549.9H1475ZM1447 433C1462.57 433 1475 444.334 1475 458.1H1477C1477 443.037 1463.47 431 1447 431V433ZM1345 431C1328.53 431 1315 443.037 1315 458.1H1317C1317 444.334 1329.43 433 1345 433V431ZM1607 575H1505V577H1607V575ZM195 602.1V693.9H197V602.1H195ZM355 602.1V693.9H357V602.1H355ZM327 719H225V721H327V719ZM225 719C209.434 719 197 707.666 197 693.9H195C195 708.963 208.533 721 225 721V719ZM355 693.9C355 707.666 342.566 719 327 719V721C343.467 721 357 708.963 357 693.9H355ZM327 577C342.566 577 355 588.334 355 602.1H357C357 587.037 343.467 575 327 575V577ZM225 575C208.533 575 195 587.037 195 602.1H197C197 588.334 209.434 577 225 577V575ZM487 719H385V721H487V719ZM967 719H865V721H967V719ZM1155 602.1V693.9H1157V602.1H1155ZM1315 602.1V693.9H1317V602.1H1315ZM1287 719H1185V721H1287V719ZM1185 719C1169.43 719 1157 707.666 1157 693.9H1155C1155 708.963 1168.53 721 1185 721V719ZM1315 693.9C1315 707.666 1302.57 719 1287 719V721C1303.47 721 1317 708.963 1317 693.9H1315ZM1287 577C1302.57 577 1315 588.334 1315 602.1H1317C1317 587.037 1303.47 575 1287 575V577ZM1185 575C1168.53 575 1155 587.037 1155 602.1H1157C1157 588.334 1169.43 577 1185 577V575ZM1475 602.1V693.9H1477V602.1H1475ZM1447 719H1345V721H1447V719ZM1635 602.1V693.9H1637V602.1H1635ZM1607 719H1505V721H1607V719ZM1505 719C1489.43 719 1477 707.666 1477 693.9H1475C1475 708.963 1488.53 721 1505 721V719ZM1635 693.9C1635 707.666 1622.57 719 1607 719V721C1623.47 721 1637 708.963 1637 693.9H1635ZM1607 577C1622.57 577 1635 588.334 1635 602.1H1637C1637 587.037 1623.47 575 1607 575V577ZM1505 575C1488.53 575 1475 587.037 1475 602.1H1477C1477 588.334 1489.43 577 1505 577V575ZM355 746.1V837.9H357V746.1H355ZM515 746.1V837.9H517V746.1H515ZM487 863H385V865H487V863ZM385 863C369.434 863 357 851.666 357 837.9H355C355 852.963 368.533 865 385 865V863ZM515 837.9C515 851.666 502.566 863 487 863V865C503.467 865 517 852.963 517 837.9H515ZM487 721C502.566 721 515 732.334 515 746.1H517C517 731.037 503.467 719 487 719V721ZM385 719C368.533 719 355 731.037 355 746.1H357C357 732.334 369.434 721 385 721V719ZM835 746.1V837.9H837V746.1H835ZM995 746.1V837.9H997V746.1H995ZM967 863H865V865H967V863ZM865 863C849.434 863 837 851.666 837 837.9H835C835 852.963 848.533 865 865 865V863ZM995 837.9C995 851.666 982.566 863 967 863V865C983.467 865 997 852.963 997 837.9H995ZM967 721C982.566 721 995 732.334 995 746.1H997C997 731.037 983.467 719 967 719V721ZM865 719C848.533 719 835 731.037 835 746.1H837C837 732.334 849.434 721 865 721V719ZM1315 746.1V837.9H1317V746.1H1315ZM1475 746.1V837.9H1477V746.1H1475ZM1447 863H1345V865H1447V863ZM1345 863C1329.43 863 1317 851.666 1317 837.9H1315C1315 852.963 1328.53 865 1345 865V863ZM1475 837.9C1475 851.666 1462.57 863 1447 863V865C1463.47 865 1477 852.963 1477 837.9H1475ZM1447 721C1462.57 721 1475 732.334 1475 746.1H1477C1477 731.037 1463.47 719 1447 719V721ZM1345 719C1328.53 719 1315 731.037 1315 746.1H1317C1317 732.334 1329.43 721 1345 721V719Z" fill="white" fill-opacity="0.05" mask="url(#path-1-inside-1_38_23)"/>
</g>
<defs>
<clipPath id="clip0_38_23">
<rect width="1352" height="494" fill="white"/>
</clipPath>
</defs>
</svg>
