<svg width="100" height="38" viewBox="0 0 100 38" fill="none" xmlns="http://www.w3.org/2000/svg">
<g clip-path="url(#clip0_19_185)">
<path d="M18 33.5C18 34.6046 18.8954 35.5 20 35.5H24.3333C25.4379 35.5 26.3333 34.6046 26.3333 33.5V29.8846C26.3333 28.78 27.2288 27.8846 28.3333 27.8846H33.5C34.6046 27.8846 35.5 26.9892 35.5 25.8846V11.2692C35.5 10.1647 34.6046 9.26923 33.5 9.26923H21.6667C20.5621 9.26923 19.6667 8.3738 19.6667 7.26923V4.5C19.6667 3.39543 18.7712 2.5 17.6667 2.5H2.5C1.39543 2.5 0.5 3.39543 0.5 4.5V19.9615C0.5 21.0661 1.39543 21.9615 2.5 21.9615H16C17.1046 21.9615 18 22.857 18 23.9615V33.5Z" fill="white"/>
<path d="M42.748 18.5V6.74H44.508V11.988L48.54 6.74H50.684L46.636 11.908L51.26 18.5H49.068L45.468 13.236L44.508 14.42V18.5H42.748ZM57.9483 18.5L55.7723 14.42L53.5963 18.5H53.2923L50.2043 11.156H52.0603L53.6443 15.428L55.7403 11.156H55.8043L57.9163 15.396L59.5003 11.156H61.3243L58.2523 18.5H57.9483ZM65.5559 18.66C64.9052 18.66 64.2972 18.5053 63.7319 18.196C63.1772 17.8867 62.7292 17.444 62.3879 16.868C62.0465 16.292 61.8759 15.604 61.8759 14.804C61.8759 14.036 62.0199 13.364 62.3079 12.788C62.6065 12.212 63.0225 11.764 63.5559 11.444C64.0999 11.124 64.7452 10.964 65.4919 10.964C65.9399 10.964 66.3452 11.044 66.7079 11.204C67.0812 11.3533 67.3905 11.54 67.6359 11.764C67.8919 11.9773 68.0625 12.1853 68.1479 12.388L68.1799 11.156H69.8279V18.5H68.1959L68.1639 17.204C68.0572 17.4387 67.8759 17.668 67.6199 17.892C67.3745 18.116 67.0759 18.3027 66.7239 18.452C66.3719 18.5907 65.9825 18.66 65.5559 18.66ZM65.8439 17.22C66.2385 17.22 66.5959 17.1293 66.9159 16.948C67.2465 16.756 67.5079 16.4893 67.6999 16.148C67.9025 15.8067 68.0039 15.4013 68.0039 14.932V14.82C68.0039 14.34 67.9025 13.924 67.6999 13.572C67.5079 13.2093 67.2465 12.932 66.9159 12.74C66.5959 12.5373 66.2385 12.436 65.8439 12.436C65.1292 12.436 64.5905 12.6653 64.2279 13.124C63.8759 13.5827 63.6999 14.148 63.6999 14.82C63.6999 15.5027 63.8759 16.0733 64.2279 16.532C64.5905 16.9907 65.1292 17.22 65.8439 17.22ZM71.886 18.5V11.156H73.582L73.598 12.5C73.79 12.0627 74.0993 11.7 74.526 11.412C74.9633 11.1133 75.486 10.964 76.094 10.964C76.8833 10.964 77.4753 11.1293 77.87 11.46C78.2647 11.78 78.526 12.2387 78.654 12.836C78.7927 13.4333 78.862 14.1427 78.862 14.964V18.5H77.134V15.012C77.134 14.1587 77.0487 13.508 76.878 13.06C76.718 12.612 76.3393 12.388 75.742 12.388C75.4327 12.388 75.1127 12.484 74.782 12.676C74.4513 12.868 74.174 13.1453 73.95 13.508C73.726 13.8707 73.614 14.3187 73.614 14.852V18.5H71.886ZM84.1809 18.66C83.5302 18.66 82.9222 18.5053 82.3569 18.196C81.8022 17.8867 81.3542 17.444 81.0129 16.868C80.6715 16.292 80.5009 15.604 80.5009 14.804C80.5009 14.0253 80.6449 13.3533 80.9329 12.788C81.2315 12.212 81.6475 11.764 82.1809 11.444C82.7249 11.124 83.3702 10.964 84.1169 10.964C84.5435 10.964 84.9435 11.0387 85.3169 11.188C85.6902 11.3267 86.0102 11.5133 86.2769 11.748C86.5435 11.9827 86.7355 12.2387 86.8529 12.516L86.7729 11.268V6.74H88.4689V18.5H86.8209L86.7889 17.204C86.6822 17.4387 86.5009 17.668 86.2449 17.892C85.9995 18.116 85.7009 18.3027 85.3489 18.452C84.9969 18.5907 84.6075 18.66 84.1809 18.66ZM84.4689 17.204C84.8635 17.204 85.2209 17.1133 85.5409 16.932C85.8715 16.74 86.1329 16.4733 86.3249 16.132C86.5275 15.7907 86.6289 15.3853 86.6289 14.916V14.804C86.6289 14.324 86.5275 13.908 86.3249 13.556C86.1329 13.1933 85.8715 12.916 85.5409 12.724C85.2209 12.5213 84.8635 12.42 84.4689 12.42C83.7542 12.42 83.2155 12.6493 82.8529 13.108C82.5009 13.5667 82.3249 14.132 82.3249 14.804C82.3249 15.4867 82.5009 16.0573 82.8529 16.516C83.2155 16.9747 83.7542 17.204 84.4689 17.204ZM94.0131 18.66C93.2451 18.66 92.5678 18.4893 91.9811 18.148C91.4051 17.8067 90.9571 17.3427 90.6371 16.756C90.3171 16.1693 90.1571 15.5187 90.1571 14.804C90.1571 14.1 90.3118 13.46 90.6211 12.884C90.9411 12.2973 91.3891 11.8333 91.9651 11.492C92.5411 11.14 93.2238 10.964 94.0131 10.964C94.8025 10.964 95.4851 11.14 96.0611 11.492C96.6371 11.8333 97.0798 12.2973 97.3891 12.884C97.6985 13.46 97.8531 14.1 97.8531 14.804C97.8531 15.5187 97.6931 16.1693 97.3731 16.756C97.0638 17.3427 96.6211 17.8067 96.0451 18.148C95.4691 18.4893 94.7918 18.66 94.0131 18.66ZM94.0611 17.252C94.7011 17.252 95.1918 17.0173 95.5331 16.548C95.8851 16.0787 96.0611 15.508 96.0611 14.836C96.0611 14.3773 95.9758 13.9667 95.8051 13.604C95.6345 13.2307 95.3891 12.932 95.0691 12.708C94.7598 12.484 94.3918 12.372 93.9651 12.372C93.5491 12.372 93.1918 12.484 92.8931 12.708C92.5945 12.932 92.3598 13.2307 92.1891 13.604C92.0291 13.9667 91.9491 14.3773 91.9491 14.836C91.9491 15.284 92.0398 15.6947 92.2211 16.068C92.4025 16.4307 92.6478 16.7187 92.9571 16.932C93.2771 17.1453 93.6451 17.252 94.0611 17.252Z" fill="white"/>
<path d="M42.732 33.5V21.74H48.252V23.292H44.508V26.62H47.42V28.188H44.508V33.5H42.732ZM49.9203 33.5V26.156H51.7123V33.5H49.9203ZM50.8163 24.78C50.4856 24.78 50.2083 24.668 49.9843 24.444C49.7709 24.22 49.6643 23.9427 49.6643 23.612C49.6643 23.3133 49.7709 23.0573 49.9843 22.844C50.2083 22.6307 50.4856 22.524 50.8163 22.524C51.1469 22.524 51.4189 22.6307 51.6323 22.844C51.8563 23.0573 51.9683 23.3133 51.9683 23.612C51.9683 23.9427 51.8563 24.22 51.6323 24.444C51.4189 24.668 51.1469 24.78 50.8163 24.78ZM53.761 33.5V26.156H55.457L55.473 27.5C55.665 27.0627 55.9743 26.7 56.401 26.412C56.8383 26.1133 57.361 25.964 57.969 25.964C58.7583 25.964 59.3503 26.1293 59.745 26.46C60.1397 26.78 60.401 27.2387 60.529 27.836C60.6677 28.4333 60.737 29.1427 60.737 29.964V33.5H59.009V30.012C59.009 29.1587 58.9237 28.508 58.753 28.06C58.593 27.612 58.2143 27.388 57.617 27.388C57.3077 27.388 56.9877 27.484 56.657 27.676C56.3263 27.868 56.049 28.1453 55.825 28.508C55.601 28.8707 55.489 29.3187 55.489 29.852V33.5H53.761ZM66.0559 33.66C65.4052 33.66 64.7972 33.5053 64.2319 33.196C63.6772 32.8867 63.2292 32.444 62.8879 31.868C62.5465 31.292 62.3759 30.604 62.3759 29.804C62.3759 29.036 62.5199 28.364 62.8079 27.788C63.1065 27.212 63.5225 26.764 64.0559 26.444C64.5999 26.124 65.2452 25.964 65.9919 25.964C66.4399 25.964 66.8452 26.044 67.2079 26.204C67.5812 26.3533 67.8905 26.54 68.1359 26.764C68.3919 26.9773 68.5625 27.1853 68.6479 27.388L68.6799 26.156H70.3279V33.5H68.6959L68.6639 32.204C68.5572 32.4387 68.3759 32.668 68.1199 32.892C67.8745 33.116 67.5759 33.3027 67.2239 33.452C66.8719 33.5907 66.4825 33.66 66.0559 33.66ZM66.3439 32.22C66.7385 32.22 67.0959 32.1293 67.4159 31.948C67.7465 31.756 68.0079 31.4893 68.1999 31.148C68.4025 30.8067 68.5039 30.4013 68.5039 29.932V29.82C68.5039 29.34 68.4025 28.924 68.1999 28.572C68.0079 28.2093 67.7465 27.932 67.4159 27.74C67.0959 27.5373 66.7385 27.436 66.3439 27.436C65.6292 27.436 65.0905 27.6653 64.7279 28.124C64.3759 28.5827 64.1999 29.148 64.1999 29.82C64.1999 30.5027 64.3759 31.0733 64.7279 31.532C65.0905 31.9907 65.6292 32.22 66.3439 32.22ZM72.386 33.5V26.156H74.082L74.098 27.5C74.29 27.0627 74.5993 26.7 75.026 26.412C75.4633 26.1133 75.986 25.964 76.594 25.964C77.3833 25.964 77.9753 26.1293 78.37 26.46C78.7647 26.78 79.026 27.2387 79.154 27.836C79.2927 28.4333 79.362 29.1427 79.362 29.964V33.5H77.634V30.012C77.634 29.1587 77.5487 28.508 77.378 28.06C77.218 27.612 76.8393 27.388 76.242 27.388C75.9327 27.388 75.6127 27.484 75.282 27.676C74.9513 27.868 74.674 28.1453 74.45 28.508C74.226 28.8707 74.114 29.3187 74.114 29.852V33.5H72.386ZM84.8413 33.66C84.1266 33.66 83.4759 33.5053 82.8893 33.196C82.3133 32.8867 81.8493 32.4387 81.4973 31.852C81.1559 31.2653 80.9853 30.5613 80.9853 29.74C80.9853 28.972 81.1399 28.3053 81.4493 27.74C81.7693 27.1747 82.2119 26.7373 82.7773 26.428C83.3533 26.1187 84.0146 25.964 84.7613 25.964C85.3799 25.964 85.8866 26.044 86.2813 26.204C86.6866 26.364 86.9906 26.5347 87.1933 26.716L86.4253 28.108C86.3826 28.0547 86.2973 27.9747 86.1693 27.868C86.0413 27.7613 85.8706 27.6653 85.6573 27.58C85.4546 27.484 85.2039 27.436 84.9053 27.436C84.2013 27.436 83.6733 27.6493 83.3213 28.076C82.9799 28.5027 82.8093 29.052 82.8093 29.724C82.8093 30.5027 82.9906 31.116 83.3533 31.564C83.7266 32.0013 84.2439 32.22 84.9053 32.22C85.2573 32.22 85.5879 32.172 85.8973 32.076C86.2066 31.9693 86.4413 31.8573 86.6013 31.74L87.2253 32.956C87.0333 33.1053 86.7293 33.26 86.3133 33.42C85.8973 33.58 85.4066 33.66 84.8413 33.66ZM92.0611 33.66C91.1438 33.66 90.3971 33.484 89.8211 33.132C89.2451 32.7693 88.8238 32.2947 88.5571 31.708C88.2905 31.1213 88.1571 30.4973 88.1571 29.836C88.1571 29.036 88.3171 28.348 88.6371 27.772C88.9678 27.196 89.4211 26.7533 89.9971 26.444C90.5731 26.124 91.2238 25.964 91.9491 25.964C93.1118 25.964 93.9598 26.2893 94.4931 26.94C95.0265 27.58 95.2931 28.444 95.2931 29.532C95.2931 29.82 95.2771 30.1187 95.2451 30.428H89.9651C90.0825 31.0893 90.3171 31.564 90.6691 31.852C91.0318 32.1293 91.5118 32.268 92.1091 32.268C92.6851 32.268 93.1385 32.2147 93.4691 32.108C93.7998 32.0013 94.0718 31.8947 94.2851 31.788L94.8131 33.02C94.5998 33.1587 94.2691 33.3027 93.8211 33.452C93.3731 33.5907 92.7865 33.66 92.0611 33.66ZM89.9651 29.228H93.6131C93.6238 28.5347 93.4691 28.06 93.1491 27.804C92.8291 27.548 92.4131 27.42 91.9011 27.42C91.3678 27.42 90.9305 27.564 90.5891 27.852C90.2585 28.1293 90.0505 28.588 89.9651 29.228Z" fill="white"/>
</g>
<defs>
<clipPath id="clip0_19_185">
<rect width="100" height="38" fill="white"/>
</clipPath>
</defs>
</svg>
