<svg width="1632" height="1134" viewBox="0 0 1632 1134" fill="none" xmlns="http://www.w3.org/2000/svg">
<g filter="url(#filter0_d_210_136)">
<g clip-path="url(#clip0_210_136)">
<rect x="70" y="81" width="1440" height="942" rx="28" fill="white"/>
<g filter="url(#filter1_d_210_136)">
<rect x="592.5" y="136.5" width="395" height="282" rx="67" fill="white"/>
</g>
<path d="M641.746 170.21H644.059V191.5H641.228L629.596 173.64H629.483C629.634 175.807 629.709 177.727 629.709 179.399V191.5H627.428V170.21H630.227L641.827 188.006H641.94C641.778 185.212 641.713 183.352 641.746 182.424V170.21ZM660.667 189.284V191.5H648.808V170.21H660.667V172.41H651.283V179.269H660.1V181.453H651.283V189.284H660.667ZM688.549 170.21L682.854 191.5H680.411L676.124 177.247C675.962 176.751 675.731 175.953 675.429 174.853C675.191 173.904 675.062 173.327 675.04 173.122C674.825 174.416 674.485 175.818 674.021 177.328L669.863 191.5H667.404L661.742 170.21H664.363L667.728 183.362C668.202 185.218 668.542 186.889 668.747 188.378C669.006 186.587 669.394 184.845 669.912 183.152L673.73 170.21H676.351L680.347 183.282C680.843 184.856 681.236 186.555 681.528 188.378C681.7 187.04 682.051 185.358 682.579 183.33L685.928 170.21H688.549ZM710.088 191.5H698.229V170.21H700.705V189.251H710.088V191.5ZM724.437 189.284V191.5H712.578V170.21H724.437V172.41H715.053V179.269H723.87V181.453H715.053V189.284H724.437ZM731.126 182.505H738.001L735.526 175.904C735.192 174.998 734.863 173.974 734.539 172.831C734.345 173.715 734.043 174.74 733.633 175.904L731.126 182.505ZM743.987 191.5H741.431L738.778 184.738H730.252L727.631 191.5H725.124L733.536 170.129H735.623L743.987 191.5ZM760.044 172.96C761.877 174.794 762.794 177.414 762.794 180.823C762.794 184.231 761.839 186.862 759.93 188.717C758.032 190.572 755.287 191.5 751.696 191.5H745.807V170.21H752.327C755.638 170.21 758.21 171.127 760.044 172.96ZM751.291 189.365C754.236 189.365 756.452 188.642 757.94 187.197C759.429 185.741 760.173 183.611 760.173 180.806C760.173 177.991 759.477 175.883 758.086 174.481C756.695 173.068 754.624 172.361 751.874 172.361H748.282V189.365H751.291ZM778.441 185.838C778.441 187.714 777.762 189.176 776.403 190.222C775.054 191.268 773.162 191.791 770.724 191.791C768.297 191.791 766.405 191.468 765.046 190.821V188.426C766.965 189.224 768.939 189.623 770.967 189.623C772.595 189.623 773.83 189.316 774.672 188.701C775.524 188.086 775.95 187.207 775.95 186.064C775.95 185.331 775.799 184.732 775.497 184.268C775.205 183.805 774.709 183.368 774.008 182.958C773.307 182.548 772.256 182.095 770.854 181.599C768.88 180.898 767.462 180.062 766.599 179.092C765.747 178.121 765.321 176.832 765.321 175.225C765.321 173.618 765.935 172.329 767.165 171.358C768.416 170.388 770.072 169.902 772.132 169.902C774.202 169.902 776.128 170.291 777.907 171.067L777.131 173.235C775.373 172.491 773.669 172.119 772.018 172.119C770.703 172.119 769.673 172.405 768.928 172.976C768.195 173.537 767.828 174.314 767.828 175.306C767.828 176.061 767.958 176.665 768.217 177.118C768.486 177.571 768.95 178.008 769.608 178.428C770.287 178.838 771.28 179.269 772.585 179.722C774.828 180.521 776.359 181.378 777.179 182.295C778.02 183.201 778.441 184.382 778.441 185.838Z" fill="black"/>
<path d="M669.297 231.335C669.297 235.38 668.116 238.745 665.754 241.43C663.424 244.116 660.108 245.928 655.804 246.866V247.206C660.917 247.853 664.751 249.454 667.307 252.011C669.895 254.534 671.19 257.916 671.19 262.154C671.19 268.269 669.022 273.01 664.686 276.375C660.383 279.707 654.203 281.374 646.146 281.374C639.157 281.374 633.188 280.225 628.237 277.928V268.803C633.899 271.586 639.691 272.977 645.612 272.977C650.595 272.977 654.3 272.071 656.726 270.259C659.153 268.415 660.367 265.681 660.367 262.057C660.367 258.433 659.008 255.829 656.29 254.243C653.572 252.625 649.317 251.816 643.525 251.816H637.992V243.469H643.622C653.814 243.469 658.911 239.942 658.911 232.888C658.911 230.138 658.021 228.035 656.241 226.579C654.462 225.09 651.841 224.346 648.379 224.346C645.984 224.346 643.639 224.702 641.341 225.414C639.076 226.094 636.439 227.404 633.43 229.345L628.431 222.211C634.32 217.875 641.115 215.707 648.815 215.707C655.222 215.707 660.237 217.099 663.861 219.881C667.485 222.631 669.297 226.449 669.297 231.335ZM692.446 268.706C694.678 271.489 697.542 272.88 701.036 272.88C704.531 272.88 707.232 271.748 709.141 269.483C711.05 267.218 712.005 264.096 712.005 260.116C712.005 256.136 711.099 253.127 709.287 251.088C707.475 249.018 704.806 247.982 701.279 247.982C698.043 247.853 695.18 248.888 692.688 251.088C690.229 253.256 689.048 255.667 689.145 258.32C689.145 262.397 690.245 265.859 692.446 268.706ZM703.706 239.877C709.465 239.877 713.962 241.657 717.198 245.216C720.466 248.743 722.1 253.709 722.1 260.116C722.1 266.49 720.223 271.634 716.47 275.55C712.717 279.432 707.491 281.374 700.794 281.374C694.096 281.374 688.741 278.898 684.729 273.948C680.749 268.997 678.759 262.106 678.759 253.272C678.759 228.294 688.935 215.804 709.287 215.804C712.523 215.804 715.224 216.047 717.392 216.532V225.123C715.16 224.476 712.603 224.152 709.724 224.152C702.8 224.152 697.639 226.013 694.241 229.734C690.844 233.422 689 239.279 688.709 247.303H689.242C690.601 244.941 692.527 243.113 695.018 241.819C697.509 240.524 700.405 239.877 703.706 239.877Z" fill="black"/>
<path d="M920.794 183.029V180.971M929.029 183.029V176.853M937.265 183.029V172.735M920.794 199.5L929.029 191.265L937.265 199.5M910.5 164.5H947.559M912.559 164.5H945.5V189.206C945.5 190.343 944.578 191.265 943.441 191.265H914.618C913.481 191.265 912.559 190.343 912.559 189.206V164.5Z" stroke="black" stroke-width="5" stroke-linecap="round" stroke-linejoin="round"/>
<path d="M884.5 232.5C896.245 232.5 907.811 235.373 918.191 240.869C928.571 246.365 937.448 254.316 944.05 264.03C950.651 273.744 954.776 284.925 956.065 296.599C957.354 308.273 955.767 320.085 951.444 331.005C947.12 341.925 940.191 351.622 931.26 359.249C922.329 366.877 911.668 372.204 900.206 374.766C888.744 377.328 876.83 377.047 865.501 373.948C854.173 370.849 843.774 365.026 835.213 356.986L884.5 304.5L884.5 232.5Z" fill="#457AE9"/>
<path d="M835.213 356.986C824.691 347.106 817.382 334.292 814.234 320.206C811.086 306.121 812.243 291.414 817.556 277.995C822.869 264.576 832.093 253.063 844.03 244.95C855.967 236.838 870.067 232.5 884.5 232.5L884.5 304.5L835.213 356.986Z" fill="#5C8DF1"/>
<path d="M628.716 338.839C628.716 339.432 628.841 339.914 629.09 340.285C629.34 340.649 629.663 340.831 630.061 340.831C630.466 340.831 630.782 340.682 631.012 340.386C631.248 340.082 631.366 339.627 631.366 339.021C631.366 337.942 630.944 337.403 630.102 337.403C629.684 337.403 629.347 337.544 629.09 337.828C628.841 338.104 628.716 338.441 628.716 338.839ZM632.023 332.802C630.816 332.802 629.92 333.069 629.333 333.601C628.747 334.134 628.427 334.993 628.373 336.179H628.484C629.03 335.148 629.899 334.632 631.093 334.632C632.292 334.632 633.216 335.013 633.863 335.775C634.517 336.53 634.844 337.615 634.844 339.031C634.844 340.44 634.429 341.569 633.6 342.418C632.778 343.261 631.605 343.682 630.081 343.682C628.558 343.682 627.351 343.173 626.462 342.155C625.579 341.131 625.137 339.705 625.137 337.878C625.13 335.148 625.707 333.16 626.866 331.913C628.032 330.659 629.778 330.022 632.104 330.002C632.663 330.002 633.297 330.055 634.005 330.163V332.974C633.378 332.86 632.717 332.802 632.023 332.802ZM645.43 340.537V343.5H635.774V341.134L639.02 337.848C639.964 336.857 640.574 336.19 640.85 335.846C641.126 335.502 641.322 335.202 641.436 334.946C641.551 334.69 641.608 334.407 641.608 334.097C641.608 333.786 641.494 333.53 641.264 333.328C641.042 333.126 640.729 333.025 640.324 333.025C639.92 333.025 639.505 333.139 639.08 333.369C638.663 333.598 638.17 333.958 637.604 334.45L635.622 332.135C636.296 331.528 636.873 331.09 637.351 330.821C638.329 330.275 639.455 330.002 640.729 330.002C642.016 329.975 643.085 330.312 643.934 331.013C644.783 331.714 645.198 332.59 645.178 333.642C645.178 334.646 644.908 335.566 644.369 336.402C644.086 336.84 643.715 337.298 643.256 337.777C642.798 338.256 641.844 339.145 640.395 340.446V340.537H645.43ZM659.819 337.524C659.583 337.524 659.407 337.683 659.293 337.999C659.185 338.31 659.131 338.808 659.131 339.496C659.131 340.81 659.36 341.468 659.819 341.468C660.284 341.468 660.516 340.81 660.516 339.496C660.516 338.181 660.284 337.524 659.819 337.524ZM659.768 335.3C660.84 335.3 661.689 335.674 662.316 336.422C662.943 337.17 663.256 338.198 663.256 339.506C663.256 340.807 662.953 341.822 662.346 342.55C661.747 343.278 660.907 343.642 659.829 343.642C658.757 343.642 657.914 343.264 657.301 342.509C656.694 341.747 656.391 340.716 656.391 339.415C656.391 338.114 656.688 337.103 657.281 336.382C657.874 335.66 658.703 335.3 659.768 335.3ZM649.707 332.226C649.465 332.226 649.286 332.384 649.172 332.701C649.064 333.018 649.01 333.52 649.01 334.208C649.01 334.895 649.064 335.398 649.172 335.714C649.286 336.024 649.461 336.179 649.697 336.179C649.933 336.179 650.105 336.024 650.213 335.714C650.328 335.404 650.385 334.899 650.385 334.198C650.385 332.883 650.159 332.226 649.707 332.226ZM657.068 330.194H659.768L652.387 343.5H649.687L657.068 330.194ZM649.647 330.002C650.719 330.002 651.568 330.376 652.195 331.124C652.822 331.872 653.135 332.9 653.135 334.208C653.135 335.516 652.835 336.537 652.235 337.271C651.635 337.999 650.796 338.363 649.718 338.363C648.639 338.363 647.793 337.986 647.18 337.231C646.573 336.476 646.27 335.445 646.27 334.137C646.27 332.829 646.566 331.815 647.159 331.094C647.753 330.366 648.582 330.002 649.647 330.002ZM684.263 341.67C687.465 341.67 689.066 340.045 689.066 336.796C689.066 333.608 687.576 332.014 684.597 332.014H682.716V341.67H684.263ZM684.647 330.194C686.764 330.194 688.412 330.767 689.592 331.913C690.771 333.052 691.361 334.69 691.361 336.827C691.361 338.957 690.751 340.601 689.531 341.761C688.311 342.92 686.555 343.5 684.263 343.5H680.542V330.194H684.647ZM704.209 343.5H701.894L700.569 339.809H695.473L694.179 343.5H691.884L696.858 330.143H699.224L704.209 343.5ZM696.11 337.929H699.993C698.961 334.916 698.392 333.237 698.284 332.893C698.176 332.55 698.092 332.256 698.031 332.014C697.869 332.748 697.63 333.564 697.313 334.461L696.11 337.929ZM707.941 343.5H705.767V330.194H707.941V343.5ZM719.057 343.5H711.251V330.194H713.425V341.64H719.057V343.5ZM725.435 343.5H723.251V338.414L718.842 330.194H721.208L724.353 336.27L727.508 330.194H729.874L725.435 338.343V343.5ZM742.048 338.151V336.281H746.941V342.964C746.16 343.22 745.401 343.402 744.666 343.51C743.932 343.625 743.126 343.682 742.25 343.682C740.234 343.682 738.681 343.085 737.589 341.892C736.497 340.699 735.951 339.024 735.951 336.867C735.951 334.71 736.564 333.028 737.791 331.822C739.024 330.608 740.723 330.002 742.887 330.002C744.262 330.002 745.576 330.271 746.83 330.81L746.072 332.62C744.98 332.122 743.898 331.872 742.826 331.872C741.411 331.872 740.288 332.317 739.459 333.207C738.637 334.103 738.226 335.344 738.226 336.928C738.226 338.505 738.596 339.718 739.338 340.568C740.079 341.417 741.148 341.842 742.543 341.842C743.237 341.842 743.992 341.754 744.808 341.579V338.151H742.048ZM759.437 336.827C759.437 335.189 759.11 333.952 758.457 333.116C757.803 332.273 756.829 331.852 755.534 331.852C754.24 331.852 753.259 332.273 752.592 333.116C751.925 333.958 751.591 335.199 751.591 336.837C751.591 338.468 751.921 339.708 752.582 340.558C753.249 341.4 754.23 341.822 755.524 341.822C758.133 341.822 759.437 340.157 759.437 336.827ZM760.125 331.791C761.21 332.984 761.753 334.663 761.753 336.827C761.753 338.99 761.21 340.676 760.125 341.882C759.046 343.082 757.506 343.682 755.504 343.682C753.509 343.682 751.972 343.085 750.893 341.892C749.822 340.699 749.286 339.004 749.286 336.806C749.286 334.609 749.825 332.924 750.904 331.751C751.982 330.578 753.516 329.991 755.504 329.991C757.499 329.991 759.04 330.591 760.125 331.791ZM774.606 343.5H772.291L770.966 339.809H765.87L764.576 343.5H762.28L767.255 330.143H769.621L774.606 343.5ZM766.507 337.929H770.39C769.358 334.916 768.789 333.237 768.681 332.893C768.573 332.55 768.489 332.256 768.428 332.014C768.266 332.748 768.027 333.564 767.71 334.461L766.507 337.929ZM783.97 343.5H776.164V330.194H778.338V341.64H783.97V343.5Z" fill="black"/>
<path d="M629.101 366.682C627.692 366.682 626.371 366.443 625.137 365.964V362.981C626.269 363.561 627.419 363.851 628.585 363.851C629.367 363.851 629.94 363.74 630.304 363.517C630.668 363.295 630.85 362.934 630.85 362.435C630.85 361.936 630.638 361.586 630.213 361.384C629.788 361.175 629.057 361.06 628.019 361.04H627.2V358.34H628.039C629.866 358.34 630.779 357.872 630.779 356.935C630.779 356.591 630.648 356.335 630.385 356.166C630.122 355.991 629.754 355.903 629.283 355.903C628.433 355.903 627.554 356.187 626.644 356.753L625.157 354.356C625.845 353.878 626.556 353.534 627.291 353.325C628.032 353.109 628.885 353.002 629.849 353.002C631.231 353.002 632.313 353.275 633.095 353.821C633.876 354.367 634.267 355.122 634.267 356.085C634.267 356.915 634.015 357.622 633.509 358.209C633.004 358.795 632.276 359.223 631.325 359.493V359.543C633.543 359.827 634.652 360.878 634.652 362.698C634.652 363.932 634.163 364.906 633.186 365.62C632.208 366.328 630.846 366.682 629.101 366.682ZM639.131 362.85C639.131 363.234 639.266 363.537 639.535 363.76C639.805 363.982 640.172 364.094 640.638 364.094C641.709 364.094 642.245 363.703 642.245 362.921C642.245 362.617 642.124 362.324 641.881 362.041C641.639 361.751 641.224 361.431 640.638 361.08C639.633 361.606 639.131 362.196 639.131 362.85ZM640.658 357.946C641.082 357.703 641.376 357.481 641.537 357.279C641.699 357.07 641.78 356.827 641.78 356.551C641.78 356.274 641.676 356.048 641.467 355.873C641.258 355.691 640.998 355.6 640.688 355.6C640.385 355.6 640.125 355.691 639.91 355.873C639.701 356.048 639.596 356.278 639.596 356.561C639.596 357.093 639.95 357.555 640.658 357.946ZM637.422 353.861C638.218 353.288 639.316 353.002 640.718 353.002C642.121 353.002 643.209 353.285 643.984 353.851C644.766 354.417 645.157 355.219 645.157 356.257C645.157 357.666 644.392 358.745 642.862 359.493C643.846 360.052 644.537 360.612 644.935 361.171C645.339 361.731 645.542 362.327 645.542 362.961C645.542 364.141 645.113 365.057 644.257 365.711C643.408 366.358 642.208 366.682 640.658 366.682C639.107 366.682 637.914 366.365 637.078 365.732C636.249 365.098 635.835 364.188 635.835 363.002C635.835 362.22 636.02 361.559 636.391 361.02C636.768 360.474 637.392 359.982 638.261 359.543C636.907 358.64 636.229 357.538 636.229 356.237C636.229 355.219 636.627 354.427 637.422 353.861ZM659.819 360.524C659.583 360.524 659.407 360.683 659.293 360.999C659.185 361.31 659.131 361.808 659.131 362.496C659.131 363.81 659.36 364.468 659.819 364.468C660.284 364.468 660.516 363.81 660.516 362.496C660.516 361.181 660.284 360.524 659.819 360.524ZM659.768 358.3C660.84 358.3 661.689 358.674 662.316 359.422C662.943 360.17 663.256 361.198 663.256 362.506C663.256 363.807 662.953 364.822 662.346 365.55C661.747 366.278 660.907 366.642 659.829 366.642C658.757 366.642 657.914 366.264 657.301 365.509C656.694 364.747 656.391 363.716 656.391 362.415C656.391 361.114 656.688 360.103 657.281 359.382C657.874 358.66 658.703 358.3 659.768 358.3ZM649.707 355.226C649.465 355.226 649.286 355.384 649.172 355.701C649.064 356.018 649.01 356.52 649.01 357.208C649.01 357.895 649.064 358.398 649.172 358.714C649.286 359.024 649.461 359.179 649.697 359.179C649.933 359.179 650.105 359.024 650.213 358.714C650.328 358.404 650.385 357.899 650.385 357.198C650.385 355.883 650.159 355.226 649.707 355.226ZM657.068 353.194H659.768L652.387 366.5H649.687L657.068 353.194ZM649.647 353.002C650.719 353.002 651.568 353.376 652.195 354.124C652.822 354.872 653.135 355.9 653.135 357.208C653.135 358.516 652.835 359.537 652.235 360.271C651.635 360.999 650.796 361.363 649.718 361.363C648.639 361.363 647.793 360.986 647.18 360.231C646.573 359.476 646.27 358.445 646.27 357.137C646.27 355.829 646.566 354.815 647.159 354.094C647.753 353.366 648.582 353.002 649.647 353.002ZM685.133 355.064V366.5H682.959V355.064H679.046V353.194H689.046V355.064H685.133ZM701.574 353.194V366.5H699.39V360.504H693.263V366.5H691.089V353.194H693.263V358.633H699.39V353.194H701.574ZM707.247 366.5H705.073V353.194H707.247V366.5ZM717.097 360.13C717.98 360.797 718.421 361.721 718.421 362.9C718.421 364.073 717.997 364.997 717.147 365.671C716.298 366.345 715.118 366.682 713.608 366.682C712.098 366.682 710.865 366.449 709.908 365.984V363.922C711.202 364.535 712.483 364.842 713.75 364.842C714.593 364.842 715.223 364.683 715.641 364.367C716.059 364.043 716.268 363.615 716.268 363.082C716.268 362.55 716.082 362.115 715.712 361.778C715.341 361.434 714.552 361.02 713.345 360.534C712.139 360.042 711.29 359.479 710.797 358.846C710.305 358.212 710.059 357.457 710.059 356.581C710.059 355.469 710.454 354.596 711.242 353.962C712.038 353.322 713.083 353.002 714.377 353.002C715.671 353.002 716.955 353.281 718.229 353.841L717.532 355.62C716.338 355.122 715.283 354.872 714.367 354.872C713.679 354.872 713.15 355.024 712.779 355.327C712.409 355.624 712.223 356.028 712.223 356.54C712.223 356.891 712.294 357.191 712.435 357.44C712.597 357.696 712.84 357.929 713.163 358.138C713.494 358.347 714.117 358.644 715.034 359.028C715.958 359.412 716.645 359.779 717.097 360.13ZM742.106 353.194L738.638 366.5H736.271L734.017 358.563C733.929 358.259 733.804 357.761 733.643 357.066C733.494 356.365 733.407 355.914 733.38 355.711C733.326 356.048 733.235 356.524 733.107 357.137C732.979 357.744 732.857 358.232 732.743 358.603L730.549 366.5H728.182L726.464 359.837L724.714 353.194H726.929L728.83 360.949C729.133 362.189 729.345 363.288 729.467 364.245C729.628 363.066 729.851 361.974 730.134 360.969L732.298 353.194H734.462L736.676 360.999C736.905 361.781 737.131 362.863 737.353 364.245C737.448 363.342 737.667 362.236 738.011 360.929L739.901 353.194H742.106ZM751.502 364.65V366.5H743.98V353.194H751.502V355.034H746.154V358.654H751.169V360.474H746.154V364.65H751.502ZM761.913 364.65V366.5H754.39V353.194H761.913V355.034H756.564V358.654H761.579V360.474H756.564V364.65H761.913ZM766.974 366.5H764.8V353.194H766.974V359.543C767.614 358.762 768.204 358.064 768.743 357.45L772.343 353.194H774.82C772.636 355.755 770.968 357.7 769.815 359.028L774.952 366.5H772.434L768.258 360.474L766.974 361.525V366.5Z" fill="black"/>
<g filter="url(#filter2_d_210_136)">
<rect x="121.5" y="136.5" width="395" height="282" rx="67" fill="white"/>
</g>
<path d="M175.746 170.21H178.059V191.5H175.228L163.596 173.64H163.483C163.634 175.807 163.709 177.727 163.709 179.399V191.5H161.428V170.21H164.227L175.827 188.006H175.94C175.778 185.212 175.713 183.352 175.746 182.424V170.21ZM194.667 189.284V191.5H182.808V170.21H194.667V172.41H185.283V179.269H194.1V181.453H185.283V189.284H194.667ZM222.549 170.21L216.854 191.5H214.411L210.124 177.247C209.962 176.751 209.731 175.953 209.429 174.853C209.191 173.904 209.062 173.327 209.04 173.122C208.825 174.416 208.485 175.818 208.021 177.328L203.863 191.5H201.404L195.742 170.21H198.363L201.728 183.362C202.202 185.218 202.542 186.889 202.747 188.378C203.006 186.587 203.394 184.845 203.912 183.152L207.73 170.21H210.351L214.347 183.282C214.843 184.856 215.236 186.555 215.528 188.378C215.7 187.04 216.051 185.358 216.579 183.33L219.928 170.21H222.549ZM234.511 177.959V191.5H232.229V170.21H235.95L242.697 187.779H242.81L249.605 170.21H253.309V191.5H250.834V177.781C250.834 176.142 250.904 174.432 251.044 172.653H250.915L243.635 191.5H241.645L234.43 172.637H234.316C234.446 174.125 234.511 175.899 234.511 177.959ZM269.874 189.284V191.5H258.016V170.21H269.874V172.41H260.491V179.269H269.308V181.453H260.491V189.284H269.874ZM285.494 185.838C285.494 187.714 284.814 189.176 283.455 190.222C282.107 191.268 280.214 191.791 277.777 191.791C275.35 191.791 273.457 191.468 272.098 190.821V188.426C274.018 189.224 275.992 189.623 278.019 189.623C279.648 189.623 280.883 189.316 281.724 188.701C282.576 188.086 283.002 187.207 283.002 186.064C283.002 185.331 282.851 184.732 282.549 184.268C282.258 183.805 281.762 183.368 281.061 182.958C280.36 182.548 279.308 182.095 277.906 181.599C275.932 180.898 274.514 180.062 273.651 179.092C272.799 178.121 272.373 176.832 272.373 175.225C272.373 173.618 272.988 172.329 274.217 171.358C275.469 170.388 277.124 169.902 279.184 169.902C281.255 169.902 283.18 170.291 284.96 171.067L284.183 173.235C282.425 172.491 280.721 172.119 279.071 172.119C277.755 172.119 276.725 172.405 275.981 172.976C275.247 173.537 274.881 174.314 274.881 175.306C274.881 176.061 275.01 176.665 275.269 177.118C275.539 177.571 276.002 178.008 276.66 178.428C277.34 178.838 278.332 179.269 279.637 179.722C281.88 180.521 283.412 181.378 284.232 182.295C285.073 183.201 285.494 184.382 285.494 185.838ZM300.749 185.838C300.749 187.714 300.069 189.176 298.71 190.222C297.362 191.268 295.469 191.791 293.032 191.791C290.605 191.791 288.712 191.468 287.353 190.821V188.426C289.273 189.224 291.247 189.623 293.274 189.623C294.903 189.623 296.138 189.316 296.979 188.701C297.831 188.086 298.257 187.207 298.257 186.064C298.257 185.331 298.106 184.732 297.804 184.268C297.513 183.805 297.017 183.368 296.316 182.958C295.615 182.548 294.563 182.095 293.161 181.599C291.187 180.898 289.769 180.062 288.906 179.092C288.054 178.121 287.628 176.832 287.628 175.225C287.628 173.618 288.243 172.329 289.472 171.358C290.724 170.388 292.379 169.902 294.439 169.902C296.51 169.902 298.435 170.291 300.215 171.067L299.438 173.235C297.68 172.491 295.976 172.119 294.326 172.119C293.01 172.119 291.98 172.405 291.236 172.976C290.502 173.537 290.136 174.314 290.136 175.306C290.136 176.061 290.265 176.665 290.524 177.118C290.794 177.571 291.257 178.008 291.915 178.428C292.595 178.838 293.587 179.269 294.892 179.722C297.135 180.521 298.667 181.378 299.487 182.295C300.328 183.201 300.749 184.382 300.749 185.838ZM307.073 182.505H313.949L311.474 175.904C311.139 174.998 310.81 173.974 310.487 172.831C310.293 173.715 309.991 174.74 309.581 175.904L307.073 182.505ZM319.935 191.5H317.379L314.725 184.738H306.2L303.579 191.5H301.071L309.484 170.129H311.571L319.935 191.5ZM330.528 182.554V180.353H337.759V190.707C336.594 191.074 335.43 191.344 334.265 191.516C333.1 191.7 331.768 191.791 330.269 191.791C327.033 191.791 324.52 190.837 322.73 188.928C320.94 187.008 320.044 184.317 320.044 180.855C320.023 178.655 320.46 176.724 321.355 175.063C322.261 173.391 323.555 172.108 325.238 171.213C326.92 170.307 328.872 169.87 331.094 169.902C333.37 169.902 335.484 170.323 337.436 171.164L336.481 173.348C334.572 172.529 332.723 172.119 330.932 172.119C328.333 172.119 326.305 172.89 324.849 174.432C323.393 175.975 322.665 178.153 322.665 180.968C322.665 183.772 323.366 185.919 324.768 187.407C326.181 188.885 328.247 189.623 330.965 189.623C332.41 189.623 333.85 189.451 335.284 189.106V182.554H330.528ZM353.618 189.284V191.5H341.759V170.21H353.618V172.41H344.235V179.269H353.052V181.453H344.235V189.284H353.618ZM369.237 185.838C369.237 187.714 368.558 189.176 367.199 190.222C365.851 191.268 363.958 191.791 361.52 191.791C359.094 191.791 357.201 191.468 355.842 190.821V188.426C357.762 189.224 359.735 189.623 361.763 189.623C363.392 189.623 364.627 189.316 365.468 188.701C366.32 188.086 366.746 187.207 366.746 186.064C366.746 185.331 366.595 184.732 366.293 184.268C366.002 183.805 365.506 183.368 364.804 182.958C364.103 182.548 363.052 182.095 361.65 181.599C359.676 180.898 358.258 180.062 357.395 179.092C356.543 178.121 356.117 176.832 356.117 175.225C356.117 173.618 356.732 172.329 357.961 171.358C359.212 170.388 360.868 169.902 362.928 169.902C364.999 169.902 366.924 170.291 368.703 171.067L367.927 173.235C366.169 172.491 364.465 172.119 362.815 172.119C361.499 172.119 360.469 172.405 359.725 172.976C358.991 173.537 358.625 174.314 358.625 175.306C358.625 176.061 358.754 176.665 359.013 177.118C359.282 177.571 359.746 178.008 360.404 178.428C361.084 178.838 362.076 179.269 363.381 179.722C365.624 180.521 367.156 181.378 367.975 182.295C368.817 183.201 369.237 184.382 369.237 185.838Z" fill="black"/>
<path d="M179.855 246.196C177.105 246.196 173.659 246.649 169.517 247.555L164.906 244.837L167.382 213.629H200.579V222.754H176.409L174.953 238.576C178.933 237.929 181.974 237.605 184.077 237.605C190.549 237.605 195.645 239.32 199.366 242.75C203.119 246.147 204.995 250.79 204.995 256.679C204.995 263.506 202.876 268.829 198.638 272.647C194.399 276.465 188.332 278.374 180.437 278.374C173.319 278.374 167.705 277.225 163.596 274.928V265.609C166.055 267.001 168.757 268.052 171.701 268.764C174.678 269.476 177.525 269.832 180.243 269.832C184.87 269.832 188.397 268.796 190.824 266.725C193.25 264.655 194.464 261.629 194.464 257.65C194.464 250.014 189.594 246.196 179.855 246.196ZM233.143 248.428C229.358 250.078 226.607 251.923 224.893 253.961C223.178 255.967 222.32 258.394 222.32 261.241C222.32 264.056 223.372 266.305 225.475 267.987C227.578 269.67 230.474 270.511 234.163 270.511C237.883 270.511 240.779 269.654 242.85 267.939C244.953 266.224 246.005 263.862 246.005 260.853C246.005 256.226 242.138 252.262 234.405 248.962L233.143 248.428ZM234.308 239.595C237.738 238.074 240.181 236.473 241.637 234.79C243.125 233.075 243.869 231.021 243.869 228.626C243.869 226.232 242.98 224.323 241.2 222.899C239.453 221.443 237.091 220.715 234.114 220.715C231.137 220.715 228.759 221.443 226.98 222.899C225.232 224.323 224.359 226.281 224.359 228.772C224.359 231.555 225.604 233.997 228.096 236.101C229.293 237.039 231.364 238.204 234.308 239.595ZM214.458 227.995C214.458 223.369 216.27 219.68 219.894 216.93C223.517 214.179 228.306 212.804 234.26 212.804C240.213 212.804 244.953 214.196 248.48 216.978C252.039 219.729 253.819 223.449 253.819 228.141C253.819 234.709 249.888 239.919 242.025 243.769C247.008 246.293 250.551 248.946 252.654 251.729C254.789 254.511 255.857 257.585 255.857 260.95C255.857 266.224 253.9 270.446 249.985 273.617C246.102 276.788 240.796 278.374 234.066 278.374C227.335 278.374 222.045 276.901 218.195 273.957C214.377 270.98 212.468 266.758 212.468 261.29C212.468 257.633 213.487 254.414 215.526 251.631C217.564 248.816 220.816 246.309 225.281 244.109C221.431 241.811 218.664 239.385 216.982 236.829C215.299 234.24 214.458 231.296 214.458 227.995Z" fill="black"/>
<path d="M435.5 174.286L450.718 184.431C452.013 185.295 453.701 185.295 454.997 184.431L470.214 174.286M439.357 195.5H466.357C468.487 195.5 470.214 193.773 470.214 191.643V172.357C470.214 170.227 468.487 168.5 466.357 168.5H439.357C437.227 168.5 435.5 170.227 435.5 172.357V191.643C435.5 193.773 437.227 195.5 439.357 195.5Z" stroke="black" stroke-width="5" stroke-linecap="round" stroke-linejoin="round"/>
<path d="M172.542 370.688V376.5H168.223V360.532H173.452C177.796 360.532 179.968 362.106 179.968 365.252C179.968 367.105 179.062 368.536 177.25 369.548L181.91 376.5H177.02L173.634 370.688H172.542ZM172.542 363.796V367.448H173.343C174.856 367.448 175.612 366.781 175.612 365.446C175.612 364.346 174.872 363.796 173.392 363.796H172.542ZM191.28 372.981V376.5H181.804V360.532H191.28V364.003H186.123V366.514H190.904V369.972H186.123V372.981H191.28ZM191.785 371.865C192.642 372.31 193.508 372.646 194.381 372.872C195.255 373.099 196.027 373.212 196.699 373.212C197.378 373.212 197.872 373.107 198.179 372.896C198.494 372.678 198.652 372.387 198.652 372.023C198.652 371.804 198.592 371.614 198.47 371.452C198.341 371.291 198.155 371.133 197.912 370.979C197.678 370.817 196.994 370.478 195.862 369.96C194.729 369.442 193.916 368.973 193.423 368.553C192.403 367.679 191.894 366.498 191.894 365.01C191.894 363.521 192.428 362.365 193.496 361.539C194.571 360.714 196.044 360.302 197.912 360.302C199.554 360.302 201.241 360.686 202.972 361.454L201.649 364.779C200.161 364.1 198.871 363.76 197.779 363.76C197.245 363.76 196.844 363.853 196.577 364.039C196.31 364.225 196.177 364.476 196.177 364.791C196.177 365.099 196.339 365.378 196.662 365.628C196.994 365.879 197.86 366.324 199.259 366.963C200.658 367.594 201.625 368.265 202.159 368.977C202.701 369.673 202.972 370.563 202.972 371.647C202.988 373.151 202.418 374.377 201.261 375.323C200.112 376.269 198.596 376.735 196.711 376.718C195.635 376.718 194.729 376.642 193.993 376.488C193.265 376.326 192.529 376.067 191.785 375.711V371.865ZM208.198 364.015V367.691H208.975C209.63 367.691 210.148 367.509 210.528 367.145C210.908 366.781 211.098 366.28 211.098 365.641C211.098 364.557 210.5 364.015 209.303 364.015H208.198ZM209.412 360.532C211.41 360.532 212.918 360.969 213.938 361.843C214.957 362.716 215.466 364.011 215.466 365.725C215.466 367.432 214.941 368.775 213.889 369.754C212.829 370.724 211.337 371.21 209.412 371.21H208.198V376.5H203.879V360.532H209.412ZM223.647 363.821C221.487 363.821 220.407 365.374 220.407 368.48C220.407 371.578 221.479 373.127 223.623 373.127C224.723 373.127 225.536 372.751 226.061 371.998C226.587 371.246 226.85 370.077 226.85 368.492C226.85 366.906 226.583 365.734 226.049 364.973C225.523 364.205 224.723 363.821 223.647 363.821ZM215.869 368.492C215.869 365.823 216.533 363.788 217.859 362.389C219.186 360.989 221.115 360.29 223.647 360.29C226.187 360.29 228.112 360.985 229.422 362.377C230.733 363.76 231.388 365.798 231.388 368.492C231.388 371.186 230.729 373.232 229.41 374.631C228.1 376.023 226.179 376.718 223.647 376.718C221.123 376.718 219.194 376.015 217.859 374.607C216.533 373.2 215.869 371.161 215.869 368.492ZM247.931 360.532V376.5H242.277L236.44 365.252H236.343C236.481 367.08 236.55 368.431 236.55 369.305V376.5H232.728V360.532H238.37L244.169 371.634H244.242C244.137 370.081 244.085 368.787 244.085 367.752V360.532H247.931ZM249.084 371.865C249.941 372.31 250.807 372.646 251.68 372.872C252.554 373.099 253.326 373.212 253.998 373.212C254.677 373.212 255.171 373.107 255.478 372.896C255.794 372.678 255.951 372.387 255.951 372.023C255.951 371.804 255.891 371.614 255.769 371.452C255.64 371.291 255.454 371.133 255.211 370.979C254.977 370.817 254.293 370.478 253.161 369.96C252.028 369.442 251.215 368.973 250.722 368.553C249.703 367.679 249.193 366.498 249.193 365.01C249.193 363.521 249.727 362.365 250.795 361.539C251.87 360.714 253.343 360.302 255.211 360.302C256.853 360.302 258.54 360.686 260.271 361.454L258.948 364.779C257.46 364.1 256.17 363.76 255.078 363.76C254.544 363.76 254.143 363.853 253.876 364.039C253.61 364.225 253.476 364.476 253.476 364.791C253.476 365.099 253.638 365.378 253.961 365.628C254.293 365.879 255.159 366.324 256.558 366.963C257.957 367.594 258.924 368.265 259.458 368.977C260 369.673 260.271 370.563 260.271 371.647C260.287 373.151 259.717 374.377 258.56 375.323C257.411 376.269 255.895 376.735 254.01 376.718C252.934 376.718 252.028 376.642 251.292 376.488C250.564 376.326 249.828 376.067 249.084 375.711V371.865ZM270.654 372.981V376.5H261.178V360.532H270.654V364.003H265.497V366.514H270.278V369.972H265.497V372.981H270.654ZM281.104 370.688V376.5H276.785V360.532H282.014C286.358 360.532 288.53 362.106 288.53 365.252C288.53 367.105 287.624 368.536 285.812 369.548L290.471 376.5H285.581L282.196 370.688H281.104ZM281.104 363.796V367.448H281.905C283.417 367.448 284.174 366.781 284.174 365.446C284.174 364.346 283.434 363.796 281.953 363.796H281.104ZM304.877 376.5H300.157L299.38 373.503H294.187L293.386 376.5H288.642L293.847 360.472H299.611L304.877 376.5ZM295.085 369.972H298.482C297.479 366.187 296.905 363.897 296.759 363.105C296.598 364.108 296.04 366.397 295.085 369.972ZM310.527 364.063V376.5H306.207V364.063H302.312V360.532H314.409V364.063H310.527ZM324.612 372.981V376.5H315.136V360.532H324.612V364.003H319.455V366.514H324.236V369.972H319.455V372.981H324.612Z" fill="#464646"/>
<path d="M491.5 330.5C495.366 330.5 498.5 327.366 498.5 323.5C498.5 319.634 495.366 316.5 491.5 316.5V330.5ZM276.5 330.5H491.5V316.5H276.5V330.5Z" fill="#5C8DF1"/>
<path d="M146.5 316.5C142.634 316.5 139.5 319.634 139.5 323.5C139.5 327.366 142.634 330.5 146.5 330.5V316.5ZM146.5 330.5H491.5V316.5H146.5V330.5Z" fill="#457AE9"/>
<g filter="url(#filter3_d_210_136)">
<rect x="258.5" y="293.5" width="37" height="21" rx="10.5" fill="#ECECEC"/>
</g>
<path d="M268.352 308.619C267.79 308.619 267.288 308.523 266.848 308.33C266.411 308.136 266.063 307.868 265.804 307.524C265.548 307.178 265.409 306.776 265.386 306.318H266.46C266.483 306.599 266.58 306.842 266.75 307.047C266.92 307.249 267.143 307.405 267.419 307.516C267.695 307.626 268 307.682 268.335 307.682C268.71 307.682 269.043 307.616 269.332 307.486C269.622 307.355 269.849 307.173 270.014 306.94C270.179 306.707 270.261 306.438 270.261 306.131C270.261 305.81 270.182 305.527 270.023 305.283C269.864 305.036 269.631 304.842 269.324 304.703C269.017 304.564 268.642 304.494 268.199 304.494H267.5V303.557H268.199C268.545 303.557 268.849 303.494 269.111 303.369C269.375 303.244 269.581 303.068 269.729 302.841C269.879 302.614 269.955 302.347 269.955 302.04C269.955 301.744 269.889 301.487 269.759 301.268C269.628 301.05 269.443 300.879 269.205 300.757C268.969 300.635 268.69 300.574 268.369 300.574C268.068 300.574 267.784 300.629 267.517 300.74C267.253 300.848 267.037 301.006 266.869 301.213C266.702 301.418 266.611 301.665 266.597 301.955H265.574C265.591 301.497 265.729 301.097 265.987 300.753C266.246 300.406 266.584 300.136 267.001 299.943C267.422 299.75 267.884 299.653 268.386 299.653C268.926 299.653 269.389 299.763 269.776 299.982C270.162 300.197 270.459 300.483 270.666 300.838C270.874 301.193 270.977 301.577 270.977 301.989C270.977 302.48 270.848 302.899 270.589 303.246C270.334 303.592 269.986 303.832 269.545 303.966V304.034C270.097 304.125 270.527 304.359 270.837 304.737C271.146 305.112 271.301 305.577 271.301 306.131C271.301 306.605 271.172 307.031 270.913 307.409C270.658 307.784 270.308 308.08 269.865 308.295C269.422 308.511 268.918 308.619 268.352 308.619ZM275.942 308.619C275.584 308.614 275.226 308.545 274.868 308.415C274.51 308.284 274.183 308.064 273.888 307.754C273.592 307.442 273.355 307.02 273.176 306.489C272.997 305.955 272.908 305.284 272.908 304.477C272.908 303.705 272.98 303.02 273.125 302.423C273.27 301.824 273.48 301.32 273.756 300.911C274.031 300.499 274.364 300.186 274.753 299.973C275.145 299.76 275.587 299.653 276.078 299.653C276.567 299.653 277.001 299.751 277.382 299.947C277.766 300.141 278.078 300.411 278.32 300.757C278.561 301.104 278.717 301.503 278.788 301.955H277.749C277.652 301.562 277.464 301.237 277.186 300.979C276.908 300.72 276.538 300.591 276.078 300.591C275.402 300.591 274.869 300.885 274.48 301.473C274.094 302.061 273.899 302.886 273.896 303.949H273.964C274.124 303.707 274.312 303.501 274.531 303.331C274.753 303.158 274.997 303.024 275.264 302.93C275.531 302.837 275.814 302.79 276.112 302.79C276.612 302.79 277.07 302.915 277.484 303.165C277.899 303.412 278.232 303.754 278.482 304.192C278.732 304.626 278.857 305.125 278.857 305.688C278.857 306.227 278.736 306.722 278.494 307.17C278.253 307.616 277.913 307.972 277.476 308.236C277.041 308.497 276.53 308.625 275.942 308.619ZM275.942 307.682C276.3 307.682 276.621 307.592 276.905 307.413C277.192 307.234 277.418 306.994 277.582 306.693C277.75 306.392 277.834 306.057 277.834 305.688C277.834 305.327 277.753 304.999 277.591 304.703C277.432 304.405 277.212 304.168 276.93 303.991C276.652 303.815 276.334 303.727 275.976 303.727C275.706 303.727 275.455 303.781 275.222 303.889C274.989 303.994 274.784 304.139 274.608 304.324C274.435 304.509 274.298 304.72 274.199 304.959C274.099 305.195 274.05 305.443 274.05 305.705C274.05 306.051 274.131 306.375 274.293 306.676C274.457 306.977 274.682 307.22 274.966 307.405C275.253 307.589 275.578 307.682 275.942 307.682ZM284.981 306.864V306.403C284.981 306.085 285.047 305.794 285.177 305.53C285.311 305.263 285.504 305.05 285.757 304.891C286.012 304.729 286.322 304.648 286.686 304.648C287.055 304.648 287.365 304.729 287.615 304.891C287.865 305.05 288.054 305.263 288.181 305.53C288.309 305.794 288.373 306.085 288.373 306.403V306.864C288.373 307.182 288.308 307.474 288.177 307.741C288.049 308.006 287.859 308.219 287.606 308.381C287.356 308.54 287.049 308.619 286.686 308.619C286.316 308.619 286.005 308.54 285.752 308.381C285.5 308.219 285.308 308.006 285.177 307.741C285.047 307.474 284.981 307.182 284.981 306.864ZM285.85 306.403V306.864C285.85 307.128 285.913 307.365 286.038 307.575C286.163 307.783 286.379 307.886 286.686 307.886C286.984 307.886 287.194 307.783 287.316 307.575C287.441 307.365 287.504 307.128 287.504 306.864V306.403C287.504 306.139 287.444 305.903 287.325 305.696C287.206 305.486 286.993 305.381 286.686 305.381C286.387 305.381 286.173 305.486 286.042 305.696C285.914 305.903 285.85 306.139 285.85 306.403ZM280.635 301.869V301.409C280.635 301.091 280.7 300.8 280.831 300.536C280.964 300.268 281.157 300.055 281.41 299.896C281.666 299.734 281.975 299.653 282.339 299.653C282.708 299.653 283.018 299.734 283.268 299.896C283.518 300.055 283.707 300.268 283.835 300.536C283.963 300.8 284.027 301.091 284.027 301.409V301.869C284.027 302.187 283.961 302.48 283.831 302.747C283.703 303.011 283.512 303.224 283.26 303.386C283.01 303.545 282.703 303.625 282.339 303.625C281.97 303.625 281.659 303.545 281.406 303.386C281.153 303.224 280.961 303.011 280.831 302.747C280.7 302.48 280.635 302.187 280.635 301.869ZM281.504 301.409V301.869C281.504 302.134 281.566 302.371 281.691 302.581C281.816 302.788 282.032 302.892 282.339 302.892C282.637 302.892 282.848 302.788 282.97 302.581C283.095 302.371 283.157 302.134 283.157 301.869V301.409C283.157 301.145 283.098 300.909 282.978 300.702C282.859 300.491 282.646 300.386 282.339 300.386C282.041 300.386 281.826 300.491 281.696 300.702C281.568 300.909 281.504 301.145 281.504 301.409ZM280.958 308.5L286.958 299.773H287.93L281.93 308.5H280.958Z" fill="#464646"/>
<g filter="url(#filter4_d_210_136)">
<rect x="1063.5" y="136.5" width="395" height="282" rx="67" fill="white"/>
</g>
<path d="M1100.9 172.378V180.515H1104.3C1106.04 180.515 1107.32 180.175 1108.13 179.496C1108.95 178.806 1109.36 177.76 1109.36 176.357C1109.36 174.955 1108.95 173.942 1108.12 173.316C1107.29 172.69 1105.96 172.378 1104.12 172.378H1100.9ZM1100.9 182.651V191.5H1098.43V170.21H1104.27C1106.87 170.21 1108.79 170.711 1110.04 171.714C1111.3 172.707 1111.92 174.211 1111.92 176.228C1111.92 179.054 1110.5 180.957 1107.65 181.939L1113.43 191.5H1110.5L1105.34 182.651H1100.9ZM1127.6 189.284V191.5H1115.75V170.21H1127.6V172.41H1118.22V179.269H1127.04V181.453H1118.22V189.284H1127.6ZM1137.77 172.41V191.5H1135.3V172.41H1128.55V170.21H1144.52V172.41H1137.77ZM1160.19 170.21H1162.66V183.993C1162.66 186.42 1161.93 188.329 1160.46 189.72C1159 191.101 1156.99 191.791 1154.43 191.791C1151.87 191.791 1149.89 191.096 1148.48 189.704C1147.07 188.302 1146.37 186.377 1146.37 183.929V170.21H1148.85V184.107C1148.85 185.897 1149.33 187.267 1150.3 188.216C1151.29 189.154 1152.69 189.623 1154.53 189.623C1156.36 189.623 1157.76 189.143 1158.73 188.184C1159.7 187.224 1160.19 185.854 1160.19 184.074V170.21ZM1169.67 172.378V180.515H1173.07C1174.81 180.515 1176.09 180.175 1176.9 179.496C1177.72 178.806 1178.13 177.76 1178.13 176.357C1178.13 174.955 1177.72 173.942 1176.89 173.316C1176.06 172.69 1174.73 172.378 1172.89 172.378H1169.67ZM1169.67 182.651V191.5H1167.2V170.21H1173.04C1175.64 170.21 1177.56 170.711 1178.81 171.714C1180.07 172.707 1180.69 174.211 1180.69 176.228C1180.69 179.054 1179.27 180.957 1176.42 181.939L1182.2 191.5H1179.27L1174.11 182.651H1169.67ZM1198.83 170.21H1201.15V191.5H1198.32L1186.68 173.64H1186.57C1186.72 175.807 1186.8 177.727 1186.8 179.399V191.5H1184.52V170.21H1187.31L1198.91 188.006H1199.03C1198.87 185.212 1198.8 183.352 1198.83 182.424V170.21ZM1213.01 188.814C1212.27 186.603 1211.9 184.225 1211.9 181.68C1211.9 179.124 1212.27 176.724 1213.01 174.481C1213.77 172.237 1214.86 170.269 1216.28 168.576H1218.63C1217.25 170.431 1216.2 172.48 1215.49 174.723C1214.78 176.967 1214.42 179.275 1214.42 181.648C1214.42 184.01 1214.78 186.301 1215.5 188.523C1216.24 190.745 1217.27 192.767 1218.61 194.59H1216.28C1214.86 192.94 1213.77 191.015 1213.01 188.814ZM1225.16 172.378V180.515H1228.56C1230.3 180.515 1231.57 180.175 1232.39 179.496C1233.21 178.806 1233.62 177.76 1233.62 176.357C1233.62 174.955 1233.21 173.942 1232.38 173.316C1231.55 172.69 1230.22 172.378 1228.38 172.378H1225.16ZM1225.16 182.651V191.5H1222.69V170.21H1228.53C1231.13 170.21 1233.05 170.711 1234.3 171.714C1235.55 172.707 1236.18 174.211 1236.18 176.228C1236.18 179.054 1234.76 180.957 1231.91 181.939L1237.68 191.5H1234.76L1229.59 182.651H1225.16ZM1241.44 188.928C1239.74 186.997 1238.89 184.295 1238.89 180.823C1238.89 177.339 1239.74 174.648 1241.44 172.75C1243.16 170.841 1245.56 169.886 1248.66 169.886C1251.77 169.886 1254.18 170.857 1255.89 172.798C1257.62 174.729 1258.48 177.404 1258.48 180.823C1258.48 184.231 1257.62 186.911 1255.89 188.863C1254.17 190.815 1251.75 191.791 1248.64 191.791C1245.55 191.791 1243.15 190.837 1241.44 188.928ZM1254.06 174.303C1252.87 172.825 1251.09 172.086 1248.72 172.086C1246.37 172.086 1244.58 172.831 1243.35 174.319C1242.12 175.807 1241.51 177.986 1241.51 180.855C1241.51 183.713 1242.12 185.892 1243.35 187.391C1244.58 188.879 1246.37 189.623 1248.72 189.623C1251.08 189.623 1252.85 188.885 1254.05 187.407C1255.25 185.919 1255.86 183.735 1255.86 180.855C1255.86 177.964 1255.26 175.78 1254.06 174.303ZM1264.58 191.5H1262.1V170.21H1264.58V191.5ZM1274.25 174.513C1275 176.756 1275.38 179.156 1275.38 181.712C1275.38 184.258 1275 186.63 1274.25 188.831C1273.5 191.031 1272.42 192.956 1270.99 194.606H1268.66C1270.01 192.773 1271.04 190.75 1271.75 188.539C1272.48 186.318 1272.84 184.026 1272.84 181.664C1272.84 179.291 1272.48 176.983 1271.77 174.74C1271.06 172.496 1270.01 170.447 1268.63 168.592H1270.99C1272.42 170.296 1273.5 172.27 1274.25 174.513Z" fill="black"/>
<path d="M1116.31 265.706C1118.54 268.489 1121.41 269.88 1124.9 269.88C1128.4 269.88 1131.1 268.748 1133.01 266.483C1134.92 264.218 1135.87 261.096 1135.87 257.116C1135.87 253.136 1134.97 250.127 1133.15 248.088C1131.34 246.018 1128.67 244.982 1125.15 244.982C1121.91 244.853 1119.05 245.888 1116.55 248.088C1114.1 250.256 1112.91 252.667 1113.01 255.32C1113.01 259.397 1114.11 262.859 1116.31 265.706ZM1127.57 236.877C1133.33 236.877 1137.83 238.657 1141.06 242.216C1144.33 245.743 1145.97 250.709 1145.97 257.116C1145.97 263.49 1144.09 268.634 1140.34 272.55C1136.58 276.432 1131.36 278.374 1124.66 278.374C1117.96 278.374 1112.61 275.898 1108.6 270.948C1104.62 265.997 1102.63 259.106 1102.63 250.272C1102.63 225.294 1112.8 212.804 1133.15 212.804C1136.39 212.804 1139.09 213.047 1141.26 213.532V222.123C1139.03 221.476 1136.47 221.152 1133.59 221.152C1126.67 221.152 1121.51 223.013 1118.11 226.734C1114.71 230.422 1112.87 236.279 1112.57 244.303H1113.11C1114.47 241.941 1116.39 240.113 1118.88 238.819C1121.38 237.524 1124.27 236.877 1127.57 236.877ZM1195.86 268.473V277.5H1152.56V269.735L1169.02 253.185C1173.87 248.234 1177.11 244.691 1178.72 242.556C1180.34 240.42 1181.51 238.446 1182.22 236.634C1182.93 234.823 1183.29 232.881 1183.29 230.81C1183.29 227.898 1182.41 225.617 1180.67 223.967C1178.95 222.317 1176.69 221.492 1173.87 221.492C1171.09 221.492 1168.55 221.961 1166.25 222.899C1163.99 223.805 1161.38 225.423 1158.44 227.753L1152.9 220.958C1156.4 218.014 1159.81 215.911 1163.15 214.649C1166.51 213.354 1170.12 212.707 1173.97 212.707C1179.92 212.707 1184.68 214.26 1188.24 217.367C1191.83 220.473 1193.62 224.647 1193.62 229.888C1193.62 232.736 1193.11 235.453 1192.07 238.042C1191.07 240.598 1189.5 243.267 1187.36 246.05C1185.23 248.8 1181.65 252.537 1176.64 257.261L1165.52 268.036V268.473H1195.86Z" fill="black"/>
<path d="M1394.39 171.722C1394.79 171.451 1395.3 171.209 1395.88 171.021L1395.88 175.479C1395.3 175.291 1394.79 175.049 1394.39 174.778C1393.43 174.141 1393.25 173.549 1393.25 173.25C1393.25 172.951 1393.43 172.359 1394.39 171.722Z" fill="black"/>
<path d="M1401.12 185.979V181.521C1401.7 181.709 1402.21 181.951 1402.61 182.222C1403.57 182.859 1403.75 183.451 1403.75 183.75C1403.75 184.049 1403.57 184.641 1402.61 185.278C1402.21 185.549 1401.7 185.791 1401.12 185.979Z" fill="black"/>
<path fill-rule="evenodd" clip-rule="evenodd" d="M1398.5 199.5C1410.1 199.5 1419.5 190.098 1419.5 178.5C1419.5 166.902 1410.1 157.5 1398.5 157.5C1386.9 157.5 1377.5 166.902 1377.5 178.5C1377.5 190.098 1386.9 199.5 1398.5 199.5ZM1401.12 165.375C1401.12 163.925 1399.95 162.75 1398.5 162.75C1397.05 162.75 1395.88 163.925 1395.88 165.375V165.616C1394.24 165.923 1392.73 166.514 1391.48 167.354C1389.58 168.616 1388 170.649 1388 173.25C1388 175.851 1389.58 177.884 1391.48 179.147C1392.73 179.985 1394.24 180.577 1395.88 180.883L1395.88 185.979C1394.85 185.646 1394.09 185.146 1393.66 184.655C1392.71 183.56 1391.05 183.442 1389.96 184.392C1388.86 185.343 1388.75 187 1389.7 188.095C1391.17 189.797 1393.41 190.918 1395.88 191.382V191.625C1395.87 193.075 1397.05 194.25 1398.5 194.25C1399.95 194.25 1401.12 193.075 1401.12 191.625V191.383C1402.76 191.077 1404.27 190.485 1405.52 189.647C1407.42 188.383 1409 186.351 1409 183.75C1409 181.149 1407.42 179.116 1405.52 177.854C1404.27 177.014 1402.76 176.423 1401.12 176.116V171.021C1402.15 171.354 1402.91 171.854 1403.34 172.345C1404.29 173.44 1405.95 173.558 1407.04 172.608C1408.14 171.658 1408.25 170 1407.3 168.905C1405.83 167.203 1403.59 166.082 1401.12 165.617V165.375Z" fill="black"/>
<path d="M1100.54 358.657V363.5H1096.94V350.194H1101.29C1104.91 350.194 1106.72 351.505 1106.72 354.127C1106.72 355.671 1105.97 356.864 1104.46 357.706L1108.34 363.5H1104.27L1101.45 358.657H1100.54ZM1100.54 352.914V355.957H1101.2C1102.46 355.957 1103.09 355.401 1103.09 354.289C1103.09 353.372 1102.48 352.914 1101.24 352.914H1100.54ZM1116.15 360.568V363.5H1108.25V350.194H1116.15V353.085H1111.85V355.178H1115.84V358.06H1111.85V360.568H1116.15ZM1123.06 353.136V363.5H1119.46V353.136H1116.22V350.194H1126.3V353.136H1123.06ZM1134.62 350.194H1138.22V358.202C1138.22 359.948 1137.73 361.299 1136.74 362.256C1135.76 363.207 1134.35 363.682 1132.51 363.682C1130.68 363.682 1129.27 363.22 1128.29 362.297C1127.32 361.367 1126.83 360.028 1126.83 358.283V350.194H1130.44V357.999C1130.44 358.93 1130.61 359.611 1130.96 360.042C1131.31 360.473 1131.84 360.689 1132.56 360.689C1133.27 360.689 1133.79 360.477 1134.12 360.052C1134.45 359.627 1134.62 358.94 1134.62 357.989V350.194ZM1143.3 358.657V363.5H1139.7V350.194H1144.06C1147.68 350.194 1149.49 351.505 1149.49 354.127C1149.49 355.671 1148.74 356.864 1147.23 357.706L1151.11 363.5H1147.04L1144.21 358.657H1143.3ZM1143.3 352.914V355.957H1143.97C1145.23 355.957 1145.86 355.401 1145.86 354.289C1145.86 353.372 1145.25 352.914 1144.01 352.914H1143.3ZM1163.69 350.194V363.5H1158.98L1154.12 354.127H1154.03C1154.15 355.65 1154.21 356.776 1154.21 357.504V363.5H1151.02V350.194H1155.72L1160.56 359.445H1160.62C1160.53 358.151 1160.49 357.073 1160.49 356.21V350.194H1163.69ZM1175.34 352.934C1173.54 352.934 1172.64 354.228 1172.64 356.816C1172.64 359.398 1173.53 360.689 1175.32 360.689C1176.23 360.689 1176.91 360.376 1177.35 359.749C1177.79 359.122 1178.01 358.148 1178.01 356.827C1178.01 355.505 1177.78 354.528 1177.34 353.894C1176.9 353.254 1176.23 352.934 1175.34 352.934ZM1168.85 356.827C1168.85 354.602 1169.41 352.907 1170.51 351.741C1171.62 350.574 1173.23 349.991 1175.34 349.991C1177.45 349.991 1179.06 350.571 1180.15 351.731C1181.24 352.883 1181.79 354.582 1181.79 356.827C1181.79 359.071 1181.24 360.777 1180.14 361.943C1179.05 363.102 1177.45 363.682 1175.34 363.682C1173.23 363.682 1171.62 363.096 1170.51 361.923C1169.41 360.75 1168.85 359.051 1168.85 356.827ZM1195.57 350.194V363.5H1190.86L1186 354.127H1185.92C1186.03 355.65 1186.09 356.776 1186.09 357.504V363.5H1182.9V350.194H1187.6L1192.44 359.445H1192.5C1192.41 358.151 1192.37 357.073 1192.37 356.21V350.194H1195.57ZM1204.83 363.5H1201.22V350.194H1204.83V363.5ZM1219.07 350.194V363.5H1214.36L1209.5 354.127H1209.42C1209.53 355.65 1209.59 356.776 1209.59 357.504V363.5H1206.41V350.194H1211.11L1215.94 359.445H1216C1215.91 358.151 1215.87 357.073 1215.87 356.21V350.194H1219.07ZM1225.69 360.072C1225.75 359.297 1225.95 358.266 1226.27 356.978L1228.12 350.194H1232.15L1227.79 363.5H1223.55L1219.22 350.194H1223.26L1225.07 356.938C1225.44 358.414 1225.65 359.459 1225.69 360.072ZM1240.18 360.568V363.5H1232.28V350.194H1240.18V353.085H1235.88V355.178H1239.87V358.06H1235.88V360.568H1240.18ZM1240.6 359.638C1241.31 360.008 1242.04 360.288 1242.76 360.477C1243.49 360.665 1244.14 360.76 1244.69 360.76C1245.26 360.76 1245.67 360.672 1245.93 360.497C1246.19 360.315 1246.32 360.072 1246.32 359.769C1246.32 359.587 1246.27 359.429 1246.17 359.294C1246.06 359.159 1245.91 359.027 1245.71 358.899C1245.51 358.765 1244.94 358.481 1244 358.05C1243.05 357.619 1242.38 357.228 1241.96 356.877C1241.12 356.149 1240.69 355.165 1240.69 353.925C1240.69 352.684 1241.14 351.72 1242.03 351.033C1242.92 350.345 1244.15 350.002 1245.71 350.002C1247.07 350.002 1248.48 350.322 1249.92 350.962L1248.82 353.733C1247.58 353.166 1246.5 352.883 1245.59 352.883C1245.15 352.883 1244.82 352.961 1244.59 353.116C1244.37 353.271 1244.26 353.48 1244.26 353.743C1244.26 353.999 1244.39 354.231 1244.66 354.44C1244.94 354.649 1245.66 355.02 1246.83 355.553C1247.99 356.078 1248.8 356.638 1249.24 357.231C1249.7 357.811 1249.92 358.552 1249.92 359.456C1249.94 360.709 1249.46 361.731 1248.5 362.519C1247.54 363.308 1246.28 363.695 1244.7 363.682C1243.81 363.682 1243.05 363.618 1242.44 363.49C1241.83 363.355 1241.22 363.139 1240.6 362.843V359.638ZM1256.55 353.136V363.5H1252.95V353.136H1249.71V350.194H1259.79V353.136H1256.55ZM1272.24 357.666C1272.24 356.897 1272.29 355.654 1272.38 353.935H1272.29L1269.62 363.5H1266.19L1263.47 353.915H1263.39C1263.51 355.499 1263.58 356.769 1263.58 357.726V363.5H1260.39V350.194H1265.19L1267.96 359.638H1268.03L1270.75 350.194H1275.55V363.5H1272.24V357.666ZM1285.02 360.568V363.5H1277.12V350.194H1285.02V353.085H1280.72V355.178H1284.7V358.06H1280.72V360.568H1285.02ZM1298.72 350.194V363.5H1294.01L1289.15 354.127H1289.07C1289.18 355.65 1289.24 356.776 1289.24 357.504V363.5H1286.06V350.194H1290.76L1295.59 359.445H1295.65C1295.56 358.151 1295.52 357.073 1295.52 356.21V350.194H1298.72ZM1306.18 353.136V363.5H1302.58V353.136H1299.33V350.194H1309.41V353.136H1306.18ZM1316.21 365.644C1314.51 363.675 1313.66 360.918 1313.66 357.373C1313.66 353.82 1314.51 351.033 1316.21 349.011H1319.17C1318.41 350.089 1317.82 351.34 1317.41 352.762C1316.99 354.184 1316.79 355.701 1316.79 357.312C1316.79 358.923 1316.99 360.446 1317.39 361.882C1317.79 363.318 1318.38 364.572 1319.15 365.644H1316.21ZM1323.71 358.657V363.5H1320.11V350.194H1324.47C1328.09 350.194 1329.9 351.505 1329.9 354.127C1329.9 355.671 1329.15 356.864 1327.64 357.706L1331.52 363.5H1327.44L1324.62 358.657H1323.71ZM1323.71 352.914V355.957H1324.38C1325.64 355.957 1326.27 355.401 1326.27 354.289C1326.27 353.372 1325.65 352.914 1324.42 352.914H1323.71ZM1337.43 352.934C1335.63 352.934 1334.73 354.228 1334.73 356.816C1334.73 359.398 1335.62 360.689 1337.41 360.689C1338.32 360.689 1339 360.376 1339.44 359.749C1339.88 359.122 1340.1 358.148 1340.1 356.827C1340.1 355.505 1339.87 354.528 1339.43 353.894C1338.99 353.254 1338.32 352.934 1337.43 352.934ZM1330.94 356.827C1330.94 354.602 1331.5 352.907 1332.6 351.741C1333.71 350.574 1335.32 349.991 1337.43 349.991C1339.54 349.991 1341.15 350.571 1342.24 351.731C1343.33 352.883 1343.88 354.582 1343.88 356.827C1343.88 359.071 1343.33 360.777 1342.23 361.943C1341.14 363.102 1339.54 363.682 1337.43 363.682C1335.32 363.682 1333.72 363.096 1332.6 361.923C1331.5 360.75 1330.94 359.051 1330.94 356.827ZM1348.6 363.5H1344.99V350.194H1348.6V363.5ZM1352.52 349.011C1353.37 350.015 1354 351.232 1354.43 352.661C1354.87 354.09 1355.08 355.667 1355.08 357.393C1355.08 359.112 1354.86 360.676 1354.42 362.084C1353.99 363.487 1353.36 364.673 1352.52 365.644H1349.57C1350.34 364.605 1350.93 363.369 1351.33 361.933C1351.74 360.49 1351.94 358.967 1351.94 357.362C1351.94 355.751 1351.74 354.228 1351.33 352.792C1350.93 351.356 1350.33 350.096 1349.55 349.011H1352.52Z" fill="#464646"/>
<path d="M1088.5 316.5C1084.63 316.5 1081.5 319.634 1081.5 323.5C1081.5 327.366 1084.63 330.5 1088.5 330.5V316.5ZM1088.5 330.5H1433.5V316.5H1088.5V330.5Z" fill="#457AE9"/>
<path d="M1431.5 330.5C1435.37 330.5 1438.5 327.366 1438.5 323.5C1438.5 319.634 1435.37 316.5 1431.5 316.5V330.5ZM1290.5 330.5H1431.5V316.5H1290.5V330.5Z" fill="#5C8DF1"/>
<g filter="url(#filter5_d_210_136)">
<rect x="1271.5" y="294.5" width="37" height="21" rx="10.5" fill="#ECECEC"/>
</g>
<path d="M1281.3 309.619C1280.94 309.614 1280.59 309.545 1280.23 309.415C1279.87 309.284 1279.54 309.064 1279.25 308.754C1278.95 308.442 1278.71 308.02 1278.54 307.489C1278.36 306.955 1278.27 306.284 1278.27 305.477C1278.27 304.705 1278.34 304.02 1278.48 303.423C1278.63 302.824 1278.84 302.32 1279.12 301.911C1279.39 301.499 1279.72 301.186 1280.11 300.973C1280.5 300.76 1280.95 300.653 1281.44 300.653C1281.93 300.653 1282.36 300.751 1282.74 300.947C1283.13 301.141 1283.44 301.411 1283.68 301.757C1283.92 302.104 1284.08 302.503 1284.15 302.955H1283.11C1283.01 302.562 1282.82 302.237 1282.55 301.979C1282.27 301.72 1281.9 301.591 1281.44 301.591C1280.76 301.591 1280.23 301.885 1279.84 302.473C1279.45 303.061 1279.26 303.886 1279.26 304.949H1279.32C1279.48 304.707 1279.67 304.501 1279.89 304.331C1280.11 304.158 1280.36 304.024 1280.62 303.93C1280.89 303.837 1281.17 303.79 1281.47 303.79C1281.97 303.79 1282.43 303.915 1282.84 304.165C1283.26 304.412 1283.59 304.754 1283.84 305.192C1284.09 305.626 1284.22 306.125 1284.22 306.688C1284.22 307.227 1284.1 307.722 1283.85 308.17C1283.61 308.616 1283.27 308.972 1282.84 309.236C1282.4 309.497 1281.89 309.625 1281.3 309.619ZM1281.3 308.682C1281.66 308.682 1281.98 308.592 1282.26 308.413C1282.55 308.234 1282.78 307.994 1282.94 307.693C1283.11 307.392 1283.19 307.057 1283.19 306.688C1283.19 306.327 1283.11 305.999 1282.95 305.703C1282.79 305.405 1282.57 305.168 1282.29 304.991C1282.01 304.815 1281.69 304.727 1281.34 304.727C1281.07 304.727 1280.81 304.781 1280.58 304.889C1280.35 304.994 1280.14 305.139 1279.97 305.324C1279.79 305.509 1279.66 305.72 1279.56 305.959C1279.46 306.195 1279.41 306.443 1279.41 306.705C1279.41 307.051 1279.49 307.375 1279.65 307.676C1279.82 307.977 1280.04 308.22 1280.33 308.405C1280.61 308.589 1280.94 308.682 1281.3 308.682ZM1285.89 309.5V308.733L1288.77 305.58C1289.11 305.21 1289.39 304.889 1289.61 304.616C1289.83 304.341 1289.99 304.082 1290.09 303.841C1290.2 303.597 1290.26 303.341 1290.26 303.074C1290.26 302.767 1290.18 302.501 1290.03 302.277C1289.89 302.053 1289.69 301.879 1289.44 301.757C1289.18 301.635 1288.9 301.574 1288.58 301.574C1288.25 301.574 1287.96 301.643 1287.71 301.783C1287.46 301.919 1287.27 302.111 1287.13 302.358C1287 302.605 1286.93 302.895 1286.93 303.227H1285.93C1285.93 302.716 1286.04 302.267 1286.28 301.881C1286.52 301.494 1286.84 301.193 1287.24 300.977C1287.65 300.761 1288.11 300.653 1288.62 300.653C1289.13 300.653 1289.58 300.761 1289.98 300.977C1290.37 301.193 1290.68 301.484 1290.91 301.851C1291.13 302.217 1291.24 302.625 1291.24 303.074C1291.24 303.395 1291.19 303.709 1291.07 304.016C1290.96 304.32 1290.76 304.659 1290.47 305.034C1290.19 305.406 1289.8 305.861 1289.3 306.398L1287.34 308.494V308.562H1291.4V309.5H1285.89ZM1297.61 307.864V307.403C1297.61 307.085 1297.67 306.794 1297.8 306.53C1297.94 306.263 1298.13 306.05 1298.38 305.891C1298.64 305.729 1298.95 305.648 1299.31 305.648C1299.68 305.648 1299.99 305.729 1300.24 305.891C1300.49 306.05 1300.68 306.263 1300.81 306.53C1300.93 306.794 1301 307.085 1301 307.403V307.864C1301 308.182 1300.93 308.474 1300.8 308.741C1300.67 309.006 1300.48 309.219 1300.23 309.381C1299.98 309.54 1299.67 309.619 1299.31 309.619C1298.94 309.619 1298.63 309.54 1298.38 309.381C1298.12 309.219 1297.93 309.006 1297.8 308.741C1297.67 308.474 1297.61 308.182 1297.61 307.864ZM1298.48 307.403V307.864C1298.48 308.128 1298.54 308.365 1298.66 308.575C1298.79 308.783 1299 308.886 1299.31 308.886C1299.61 308.886 1299.82 308.783 1299.94 308.575C1300.07 308.365 1300.13 308.128 1300.13 307.864V307.403C1300.13 307.139 1300.07 306.903 1299.95 306.696C1299.83 306.486 1299.62 306.381 1299.31 306.381C1299.01 306.381 1298.8 306.486 1298.67 306.696C1298.54 306.903 1298.48 307.139 1298.48 307.403ZM1293.26 302.869V302.409C1293.26 302.091 1293.32 301.8 1293.46 301.536C1293.59 301.268 1293.78 301.055 1294.04 300.896C1294.29 300.734 1294.6 300.653 1294.96 300.653C1295.33 300.653 1295.64 300.734 1295.89 300.896C1296.14 301.055 1296.33 301.268 1296.46 301.536C1296.59 301.8 1296.65 302.091 1296.65 302.409V302.869C1296.65 303.187 1296.59 303.48 1296.46 303.747C1296.33 304.011 1296.14 304.224 1295.88 304.386C1295.63 304.545 1295.33 304.625 1294.96 304.625C1294.59 304.625 1294.28 304.545 1294.03 304.386C1293.78 304.224 1293.59 304.011 1293.46 303.747C1293.32 303.48 1293.26 303.187 1293.26 302.869ZM1294.13 302.409V302.869C1294.13 303.134 1294.19 303.371 1294.32 303.581C1294.44 303.788 1294.66 303.892 1294.96 303.892C1295.26 303.892 1295.47 303.788 1295.59 303.581C1295.72 303.371 1295.78 303.134 1295.78 302.869V302.409C1295.78 302.145 1295.72 301.909 1295.6 301.702C1295.48 301.491 1295.27 301.386 1294.96 301.386C1294.67 301.386 1294.45 301.491 1294.32 301.702C1294.19 301.909 1294.13 302.145 1294.13 302.409ZM1293.58 309.5L1299.58 300.773H1300.56L1294.56 309.5H1293.58Z" fill="#464646"/>
<path d="M1209.75 268.495C1209.45 268.495 1209.24 268.657 1209.1 268.98C1208.97 269.304 1208.9 269.809 1208.9 270.497C1208.9 271.185 1208.97 271.695 1209.1 272.029C1209.24 272.357 1209.45 272.522 1209.75 272.522C1210.35 272.522 1210.65 271.852 1210.65 270.512C1210.65 269.167 1210.35 268.495 1209.75 268.495ZM1209.75 267.38C1210.45 267.38 1211 267.651 1211.39 268.192C1211.78 268.728 1211.97 269.506 1211.97 270.527C1211.97 271.549 1211.78 272.322 1211.4 272.848C1211.03 273.374 1210.49 273.637 1209.77 273.637C1209.07 273.637 1208.52 273.366 1208.14 272.825C1207.76 272.284 1207.57 271.508 1207.57 270.497C1207.57 268.419 1208.3 267.38 1209.75 267.38ZM1203.25 264.498C1202.95 264.498 1202.74 264.663 1202.6 264.991C1202.47 265.315 1202.4 265.823 1202.4 266.516C1202.4 267.203 1202.47 267.711 1202.6 268.04C1202.74 268.363 1202.95 268.525 1203.25 268.525C1203.85 268.525 1204.15 267.855 1204.15 266.516C1204.15 265.171 1203.85 264.498 1203.25 264.498ZM1208.62 263.52H1209.95L1204.41 273.5H1203.09L1208.62 263.52ZM1203.25 263.376C1203.97 263.376 1204.51 263.647 1204.9 264.188C1205.28 264.729 1205.47 265.499 1205.47 266.501C1205.47 268.599 1204.73 269.648 1203.25 269.648C1202.56 269.648 1202.02 269.375 1201.65 268.829C1201.27 268.283 1201.08 267.507 1201.08 266.501C1201.08 264.418 1201.8 263.376 1203.25 263.376Z" fill="black"/>
<g clip-path="url(#clip1_210_136)">
<rect x="121.5" y="508.5" width="1337" height="459" rx="47" fill="white"/>
<path d="M241.5 903.5L254.456 894.415C267.411 885.33 293.322 867.16 319.233 830.835C345.144 794.511 371.056 740.032 396.967 748.811C422.878 757.589 448.789 829.624 474.7 856.032C500.611 882.44 526.522 863.22 552.433 820.796C578.344 778.373 604.256 712.744 630.167 710.113C656.078 707.481 681.989 767.847 707.9 796.424C733.811 825.001 759.722 821.791 785.633 814.367C811.544 806.943 837.456 795.306 863.367 792.454C889.278 789.603 915.189 795.537 941.1 810.088C967.011 824.64 992.922 847.808 1018.83 811.143C1044.74 774.478 1070.66 677.979 1096.57 619.781C1122.48 561.584 1148.39 541.688 1174.3 542.525C1200.21 543.362 1226.12 564.932 1252.03 607.961C1277.94 650.989 1303.86 715.478 1329.77 718.895C1355.68 722.312 1381.59 664.659 1394.54 635.832L1407.5 607.005" stroke="#457AE9" stroke-width="6"/>
<path d="M224.459 937.308C225.871 938.376 226.578 939.853 226.578 941.741C226.578 943.617 225.898 945.095 224.539 946.173C223.18 947.252 221.293 947.791 218.877 947.791C216.461 947.791 214.488 947.419 212.956 946.675V943.375C215.027 944.356 217.076 944.847 219.104 944.847C220.452 944.847 221.46 944.593 222.129 944.086C222.798 943.569 223.132 942.884 223.132 942.032C223.132 941.18 222.835 940.484 222.242 939.945C221.649 939.395 220.387 938.732 218.457 937.955C216.526 937.168 215.167 936.267 214.38 935.253C213.592 934.239 213.199 933.032 213.199 931.629C213.199 929.85 213.83 928.453 215.092 927.439C216.364 926.415 218.036 925.902 220.107 925.902C222.177 925.902 224.232 926.35 226.27 927.245L225.154 930.093C223.245 929.294 221.557 928.895 220.09 928.895C218.99 928.895 218.144 929.138 217.551 929.623C216.957 930.098 216.661 930.745 216.661 931.565C216.661 932.126 216.774 932.605 217.001 933.005C217.259 933.414 217.648 933.786 218.165 934.121C218.694 934.455 219.691 934.93 221.158 935.544C222.636 936.159 223.736 936.747 224.459 937.308ZM244.057 947.5H241.355L240.869 945.397H240.708C240.222 946.152 239.537 946.74 238.653 947.16C237.779 947.581 236.782 947.791 235.66 947.791C233.708 947.791 232.252 947.306 231.292 946.335C230.332 945.365 229.852 943.892 229.852 941.919V931.403H233.298V941.32C233.298 942.571 233.552 943.504 234.059 944.119C234.576 944.723 235.369 945.025 236.437 945.025C237.882 945.025 238.933 944.599 239.591 943.747C240.271 942.884 240.611 941.444 240.611 939.427V931.403H244.057V947.5ZM262.787 937.001V947.5H259.341V937.599C259.341 936.348 259.088 935.42 258.581 934.816C258.085 934.202 257.298 933.894 256.219 933.894C254.774 933.894 253.717 934.326 253.048 935.189C252.379 936.051 252.045 937.48 252.045 939.476V947.5H248.615V931.403H251.301L251.77 933.506H251.948C252.433 932.74 253.118 932.153 254.003 931.743C254.898 931.322 255.895 931.112 256.996 931.112C260.857 931.112 262.787 933.075 262.787 937.001ZM407.353 937.146V947.5H404.199V926.21H409.101L415.006 943.148H415.103L421.186 926.21H426.104V947.5H422.755V936.968C422.755 936.105 422.782 934.779 422.836 932.988C422.89 931.187 422.938 930.109 422.981 929.753H422.852L416.462 947.5H413.388L407.224 929.72H407.111C407.273 932.363 407.353 934.838 407.353 937.146ZM437.687 933.894C434.969 933.894 433.61 935.744 433.61 939.443C433.61 943.143 434.98 944.992 437.719 944.992C440.437 944.992 441.796 943.143 441.796 939.443C441.796 935.744 440.426 933.894 437.687 933.894ZM430.083 939.427C430.083 936.796 430.752 934.752 432.089 933.296C433.427 931.84 435.287 931.112 437.671 931.112C440.054 931.112 441.926 931.867 443.285 933.377C444.644 934.876 445.323 936.914 445.323 939.492C445.323 942.07 444.649 944.097 443.301 945.575C441.953 947.052 440.076 947.791 437.671 947.791C435.406 947.834 433.567 947.079 432.154 945.526C430.741 943.962 430.051 941.929 430.083 939.427ZM463.109 937.001V947.5H459.663V937.599C459.663 936.348 459.409 935.42 458.902 934.816C458.406 934.202 457.619 933.894 456.54 933.894C455.095 933.894 454.038 934.326 453.369 935.189C452.701 936.051 452.366 937.48 452.366 939.476V947.5H448.937V931.403H451.622L452.091 933.506H452.269C452.755 932.74 453.439 932.153 454.324 931.743C455.219 931.322 456.217 931.112 457.317 931.112C461.178 931.112 463.109 933.075 463.109 937.001ZM611.865 929.203V947.5H608.386V929.203H602.126V926.21H618.126V929.203H611.865ZM633.262 947.5H630.56L630.074 945.397H629.913C629.427 946.152 628.742 946.74 627.858 947.16C626.984 947.581 625.987 947.791 624.865 947.791C622.913 947.791 621.457 947.306 620.497 946.335C619.537 945.365 619.057 943.892 619.057 941.919V931.403H622.503V941.32C622.503 942.571 622.757 943.504 623.264 944.119C623.781 944.723 624.574 945.025 625.642 945.025C627.087 945.025 628.139 944.599 628.796 943.747C629.476 942.884 629.816 941.444 629.816 939.427V931.403H633.262V947.5ZM646.799 934.736C646.184 934.045 645.327 933.7 644.227 933.7C643.127 933.7 642.253 934.045 641.606 934.736C640.959 935.426 640.571 936.429 640.441 937.745H647.754C647.732 936.429 647.414 935.426 646.799 934.736ZM644.858 947.791C642.356 947.791 640.398 947.058 638.985 945.591C637.572 944.124 636.866 942.097 636.866 939.508C636.866 936.92 637.518 934.876 638.823 933.377C640.139 931.867 641.897 931.112 644.097 931.112C646.308 931.112 648.029 931.759 649.258 933.053C650.499 934.326 651.119 936.1 651.119 938.376V940.22H640.393C640.436 941.784 640.856 942.986 641.655 943.828C642.453 944.669 643.574 945.089 645.02 945.089C646.778 945.089 648.541 944.701 650.31 943.925V946.707C648.757 947.43 646.939 947.791 644.858 947.791ZM816.843 926.21L811.294 947.5H807.508L803.9 934.8C803.76 934.315 803.561 933.517 803.302 932.406C803.065 931.284 802.924 930.562 802.881 930.238C802.795 930.777 802.649 931.538 802.444 932.519C802.239 933.49 802.045 934.272 801.862 934.865L798.351 947.5H794.566L791.815 936.839L789.017 926.21H792.56L795.601 938.618C796.086 940.603 796.426 942.361 796.62 943.892C796.879 942.005 797.235 940.258 797.688 938.651L801.15 926.21H804.612L808.155 938.699C808.522 939.95 808.883 941.681 809.239 943.892C809.39 942.447 809.741 940.678 810.291 938.586L813.316 926.21H816.843ZM827.534 934.736C826.919 934.045 826.062 933.7 824.962 933.7C823.862 933.7 822.988 934.045 822.341 934.736C821.694 935.426 821.306 936.429 821.176 937.745H828.489C828.467 936.429 828.149 935.426 827.534 934.736ZM825.593 947.791C823.091 947.791 821.133 947.058 819.72 945.591C818.307 944.124 817.601 942.097 817.601 939.508C817.601 936.92 818.253 934.876 819.558 933.377C820.874 931.867 822.632 931.112 824.832 931.112C827.043 931.112 828.764 931.759 829.993 933.053C831.233 934.326 831.854 936.1 831.854 938.376V940.22H821.128C821.171 941.784 821.591 942.986 822.39 943.828C823.188 944.669 824.309 945.089 825.755 945.089C827.513 945.089 829.276 944.701 831.045 943.925V946.707C829.492 947.43 827.674 947.791 825.593 947.791ZM845.68 945.397C844.58 946.993 843 947.791 840.94 947.791C838.88 947.791 837.283 947.063 836.151 945.607C835.029 944.14 834.468 942.097 834.468 939.476C834.468 936.844 835.035 934.79 836.167 933.312C837.31 931.845 838.917 931.112 840.988 931.112C843.059 931.112 844.644 931.894 845.744 933.458H845.922C845.761 932.293 845.68 931.376 845.68 930.707V924.851H849.109V947.5H846.44L845.841 945.397H845.68ZM841.748 933.894C840.54 933.894 839.613 934.385 838.966 935.367C838.319 936.337 837.995 937.723 837.995 939.524C837.995 941.325 838.313 942.695 838.95 943.633C839.586 944.561 840.567 945.025 841.894 945.025C843.221 945.025 844.202 944.631 844.838 943.844C845.486 943.046 845.82 941.762 845.841 939.993V939.508C845.841 937.491 845.507 936.051 844.838 935.189C844.17 934.326 843.14 933.894 841.748 933.894ZM997.976 929.203V947.5H994.498V929.203H988.237V926.21H1004.24V929.203H997.976ZM1020.99 937.001V947.5H1017.54V937.599C1017.54 936.348 1017.29 935.42 1016.78 934.816C1016.28 934.202 1015.5 933.894 1014.42 933.894C1012.98 933.894 1011.93 934.326 1011.25 935.189C1010.58 936.051 1010.24 937.491 1010.24 939.508V947.5H1006.81V924.851H1010.24V930.594C1010.24 931.468 1010.18 932.454 1010.07 933.555H1010.28C1011.28 931.926 1012.9 931.112 1015.13 931.112C1019.03 931.112 1020.99 933.075 1020.99 937.001ZM1039.49 947.5H1036.79L1036.3 945.397H1036.14C1035.66 946.152 1034.97 946.74 1034.09 947.16C1033.21 947.581 1032.22 947.791 1031.09 947.791C1029.14 947.791 1027.69 947.306 1026.73 946.335C1025.77 945.365 1025.29 943.892 1025.29 941.919V931.403H1028.73V941.32C1028.73 942.571 1028.99 943.504 1029.49 944.119C1030.01 944.723 1030.8 945.025 1031.87 945.025C1033.32 945.025 1034.37 944.599 1035.03 943.747C1035.7 942.884 1036.04 941.444 1036.04 939.427V931.403H1039.49V947.5ZM1184.46 938.764V947.5H1181.01V926.21H1193.02V929.154H1184.46V935.803H1192.49V938.764H1184.46ZM1204.37 931.112C1205.06 931.112 1205.62 931.16 1206.07 931.257L1205.74 934.444C1205.24 934.326 1204.73 934.266 1204.22 934.266C1202.86 934.266 1201.75 934.714 1200.89 935.609C1200.05 936.504 1199.63 937.664 1199.63 939.087V947.5H1196.2V931.403H1198.88L1199.34 934.234H1199.5C1200.05 933.263 1200.75 932.503 1201.6 931.953C1202.46 931.392 1203.39 931.112 1204.37 931.112ZM1212.18 931.403V947.5H1208.75V931.403H1212.18ZM1212.39 927.116C1212.39 927.709 1212.23 928.173 1211.89 928.507C1211.56 928.841 1211.08 929.009 1210.47 929.009C1209.86 929.009 1209.39 928.841 1209.06 928.507C1208.73 928.173 1208.56 927.709 1208.56 927.116C1208.56 926.512 1208.73 926.048 1209.06 925.724C1209.39 925.39 1209.86 925.223 1210.47 925.223C1211.08 925.223 1211.56 925.39 1211.89 925.724C1212.23 926.048 1212.39 926.512 1212.39 927.116ZM1363.85 937.308C1365.27 938.376 1365.97 939.853 1365.97 941.741C1365.97 943.617 1365.29 945.095 1363.94 946.173C1362.58 947.252 1360.69 947.791 1358.27 947.791C1355.86 947.791 1353.88 947.419 1352.35 946.675V943.375C1354.42 944.356 1356.47 944.847 1358.5 944.847C1359.85 944.847 1360.86 944.593 1361.53 944.086C1362.19 943.569 1362.53 942.884 1362.53 942.032C1362.53 941.18 1362.23 940.484 1361.64 939.945C1361.05 939.395 1359.78 938.732 1357.85 937.955C1355.92 937.168 1354.56 936.267 1353.78 935.253C1352.99 934.239 1352.59 933.032 1352.59 931.629C1352.59 929.85 1353.23 928.453 1354.49 927.439C1355.76 926.415 1357.43 925.902 1359.5 925.902C1361.57 925.902 1363.63 926.35 1365.67 927.245L1364.55 930.093C1362.64 929.294 1360.95 928.895 1359.49 928.895C1358.39 928.895 1357.54 929.138 1356.95 929.623C1356.35 930.098 1356.06 930.745 1356.06 931.565C1356.06 932.126 1356.17 932.605 1356.4 933.005C1356.66 933.414 1357.04 933.786 1357.56 934.121C1358.09 934.455 1359.09 934.93 1360.55 935.544C1362.03 936.159 1363.13 936.747 1363.85 937.308ZM1381.92 947.5H1379.47L1378.79 945.251H1378.66C1377.89 946.233 1377.11 946.901 1376.32 947.257C1375.54 947.613 1374.53 947.791 1373.29 947.791C1371.71 947.791 1370.47 947.365 1369.59 946.513C1368.7 945.65 1368.26 944.415 1368.26 942.808C1368.26 939.584 1370.76 937.896 1375.75 937.745L1378.52 937.664V936.806C1378.52 935.771 1378.28 935 1377.79 934.493C1377.32 933.986 1376.58 933.733 1375.57 933.733C1374.29 933.733 1372.77 934.137 1371.01 934.946L1369.91 932.503C1371.7 931.575 1373.63 931.112 1375.7 931.112C1377.79 931.112 1379.34 931.565 1380.36 932.471C1381.4 933.366 1381.92 934.763 1381.92 936.661V947.5ZM1371.82 942.922C1371.82 943.644 1372.04 944.2 1372.47 944.588C1372.9 944.976 1373.54 945.17 1374.38 945.17C1375.62 945.17 1376.61 944.825 1377.37 944.135C1378.12 943.445 1378.5 942.469 1378.5 941.207V939.815L1376.43 939.896C1374.81 939.961 1373.64 940.236 1372.9 940.721C1372.18 941.196 1371.82 941.929 1371.82 942.922ZM1390.11 942.614C1390.11 943.412 1390.31 944.016 1390.71 944.426C1391.12 944.825 1391.7 945.025 1392.45 945.025C1393.22 945.025 1394.02 944.895 1394.86 944.637V947.209C1393.95 947.597 1392.84 947.791 1391.55 947.791C1388.3 947.791 1386.68 946.082 1386.68 942.663V933.991H1384.48V932.471L1386.84 931.225L1388.01 927.811H1390.11V931.403H1394.7V933.991H1390.11V942.614Z" fill="#464646"/>
<path d="M203.063 899.92C203.063 907.167 200.734 910.791 196.074 910.791C193.734 910.791 191.965 909.864 190.768 908.009C189.582 906.143 188.988 903.387 188.988 899.742C188.988 896.096 189.565 893.378 190.719 891.588C191.873 889.787 193.615 888.886 195.945 888.886C198.285 888.886 200.054 889.819 201.251 891.685C202.459 893.551 203.063 896.296 203.063 899.92ZM192.515 893.076C191.793 894.478 191.431 896.733 191.431 899.839C191.431 902.934 191.793 905.188 192.515 906.601C193.249 908.003 194.413 908.704 196.01 908.704C197.617 908.704 198.781 907.998 199.504 906.585C200.227 905.161 200.588 902.913 200.588 899.839C200.588 896.765 200.221 894.522 199.488 893.109C198.765 891.685 197.6 890.973 195.993 890.973C194.397 890.973 193.238 891.674 192.515 893.076Z" fill="#464646"/>
<path d="M187.605 748.493C189.859 748.493 191.628 749.048 192.912 750.159C194.195 751.27 194.837 752.796 194.837 754.738C194.837 756.949 194.13 758.68 192.717 759.931C191.315 761.171 189.401 761.791 186.974 761.791C184.558 761.791 182.714 761.408 181.441 760.643V758.313C182.121 758.755 182.973 759.1 183.997 759.348C185.022 759.586 186.009 759.704 186.958 759.704C188.673 759.704 189.999 759.3 190.938 758.491C191.887 757.682 192.361 756.523 192.361 755.013C192.361 752.036 190.539 750.548 186.893 750.548C185.998 750.548 184.769 750.688 183.205 750.968L181.943 750.175L182.752 740.21H193.332V742.442H184.806L184.272 748.833C185.383 748.606 186.494 748.493 187.605 748.493ZM212.126 750.92C212.126 758.167 209.796 761.791 205.137 761.791C202.796 761.791 201.028 760.864 199.83 759.009C198.644 757.143 198.051 754.387 198.051 750.742C198.051 747.096 198.628 744.378 199.782 742.588C200.936 740.787 202.678 739.886 205.007 739.886C207.348 739.886 209.117 740.819 210.314 742.685C211.522 744.551 212.126 747.296 212.126 750.92ZM201.578 744.076C200.855 745.478 200.494 747.733 200.494 750.839C200.494 753.934 200.855 756.188 201.578 757.601C202.311 759.003 203.476 759.704 205.072 759.704C206.679 759.704 207.844 758.998 208.567 757.585C209.289 756.161 209.65 753.913 209.65 750.839C209.65 747.765 209.284 745.522 208.55 744.109C207.828 742.685 206.663 741.973 205.056 741.973C203.46 741.973 202.3 742.674 201.578 744.076Z" fill="#464646"/>
<path d="M167.902 557.21V578.5H165.557V563.325C165.557 561.988 165.594 560.796 165.67 559.75C165.465 559.955 165.228 560.176 164.958 560.413C164.688 560.64 163.54 561.578 161.512 563.228L160.234 561.562L165.864 557.21H167.902ZM190.126 567.92C190.126 575.167 187.796 578.791 183.137 578.791C180.796 578.791 179.028 577.864 177.83 576.009C176.644 574.143 176.051 571.387 176.051 567.742C176.051 564.096 176.628 561.378 177.782 559.588C178.936 557.787 180.678 556.886 183.007 556.886C185.348 556.886 187.117 557.819 188.314 559.685C189.522 561.551 190.126 564.296 190.126 567.92ZM179.578 561.076C178.855 562.478 178.494 564.733 178.494 567.839C178.494 570.934 178.855 573.188 179.578 574.601C180.311 576.003 181.476 576.704 183.072 576.704C184.679 576.704 185.844 575.998 186.567 574.585C187.289 573.161 187.65 570.913 187.65 567.839C187.65 564.765 187.284 562.522 186.55 561.109C185.828 559.685 184.663 558.973 183.056 558.973C181.46 558.973 180.3 559.674 179.578 561.076ZM207.188 567.92C207.188 575.167 204.859 578.791 200.199 578.791C197.859 578.791 196.09 577.864 194.893 576.009C193.707 574.143 193.113 571.387 193.113 567.742C193.113 564.096 193.69 561.378 194.844 559.588C195.998 557.787 197.74 556.886 200.07 556.886C202.41 556.886 204.179 557.819 205.376 559.685C206.584 561.551 207.188 564.296 207.188 567.92ZM196.64 561.076C195.918 562.478 195.556 564.733 195.556 567.839C195.556 570.934 195.918 573.188 196.64 574.601C197.374 576.003 198.538 576.704 200.135 576.704C201.742 576.704 202.906 575.998 203.629 574.585C204.352 573.161 204.713 570.913 204.713 567.839C204.713 564.765 204.346 562.522 203.613 561.109C202.89 559.685 201.725 558.973 200.118 558.973C198.522 558.973 197.363 559.674 196.64 561.076Z" fill="#464646"/>
<line x1="214.5" y1="750" x2="1413.5" y2="750" stroke="black"/>
<line x1="214.5" y1="900" x2="1413.5" y2="900" stroke="black"/>
<line x1="214.5" y1="566" x2="1413.5" y2="566" stroke="black"/>
</g>
</g>
</g>
<defs>
<filter id="filter0_d_210_136" x="0" y="0" width="1632" height="1134" filterUnits="userSpaceOnUse" color-interpolation-filters="sRGB">
<feFlood flood-opacity="0" result="BackgroundImageFix"/>
<feColorMatrix in="SourceAlpha" type="matrix" values="0 0 0 0 0 0 0 0 0 0 0 0 0 0 0 0 0 0 127 0" result="hardAlpha"/>
<feMorphology radius="7" operator="dilate" in="SourceAlpha" result="effect1_dropShadow_210_136"/>
<feOffset dx="26" dy="15"/>
<feGaussianBlur stdDeviation="44.5"/>
<feComposite in2="hardAlpha" operator="out"/>
<feColorMatrix type="matrix" values="0 0 0 0 0 0 0 0 0 0 0 0 0 0 0 0 0 0 0.25 0"/>
<feBlend mode="normal" in2="BackgroundImageFix" result="effect1_dropShadow_210_136"/>
<feBlend mode="normal" in="SourceGraphic" in2="effect1_dropShadow_210_136" result="shape"/>
</filter>
<filter id="filter1_d_210_136" x="484.5" y="42.5" width="611" height="498" filterUnits="userSpaceOnUse" color-interpolation-filters="sRGB">
<feFlood flood-opacity="0" result="BackgroundImageFix"/>
<feColorMatrix in="SourceAlpha" type="matrix" values="0 0 0 0 0 0 0 0 0 0 0 0 0 0 0 0 0 0 127 0" result="hardAlpha"/>
<feMorphology radius="11" operator="dilate" in="SourceAlpha" result="effect1_dropShadow_210_136"/>
<feOffset dy="14"/>
<feGaussianBlur stdDeviation="48.5"/>
<feComposite in2="hardAlpha" operator="out"/>
<feColorMatrix type="matrix" values="0 0 0 0 0 0 0 0 0 0 0 0 0 0 0 0 0 0 0.19 0"/>
<feBlend mode="normal" in2="BackgroundImageFix" result="effect1_dropShadow_210_136"/>
<feBlend mode="normal" in="SourceGraphic" in2="effect1_dropShadow_210_136" result="shape"/>
</filter>
<filter id="filter2_d_210_136" x="13.5" y="42.5" width="611" height="498" filterUnits="userSpaceOnUse" color-interpolation-filters="sRGB">
<feFlood flood-opacity="0" result="BackgroundImageFix"/>
<feColorMatrix in="SourceAlpha" type="matrix" values="0 0 0 0 0 0 0 0 0 0 0 0 0 0 0 0 0 0 127 0" result="hardAlpha"/>
<feMorphology radius="11" operator="dilate" in="SourceAlpha" result="effect1_dropShadow_210_136"/>
<feOffset dy="14"/>
<feGaussianBlur stdDeviation="48.5"/>
<feComposite in2="hardAlpha" operator="out"/>
<feColorMatrix type="matrix" values="0 0 0 0 0 0 0 0 0 0 0 0 0 0 0 0 0 0 0.19 0"/>
<feBlend mode="normal" in2="BackgroundImageFix" result="effect1_dropShadow_210_136"/>
<feBlend mode="normal" in="SourceGraphic" in2="effect1_dropShadow_210_136" result="shape"/>
</filter>
<filter id="filter3_d_210_136" x="255.5" y="289.5" width="47" height="31" filterUnits="userSpaceOnUse" color-interpolation-filters="sRGB">
<feFlood flood-opacity="0" result="BackgroundImageFix"/>
<feColorMatrix in="SourceAlpha" type="matrix" values="0 0 0 0 0 0 0 0 0 0 0 0 0 0 0 0 0 0 127 0" result="hardAlpha"/>
<feOffset dx="2" dy="1"/>
<feGaussianBlur stdDeviation="2.5"/>
<feComposite in2="hardAlpha" operator="out"/>
<feColorMatrix type="matrix" values="0 0 0 0 0 0 0 0 0 0 0 0 0 0 0 0 0 0 0.25 0"/>
<feBlend mode="normal" in2="BackgroundImageFix" result="effect1_dropShadow_210_136"/>
<feBlend mode="normal" in="SourceGraphic" in2="effect1_dropShadow_210_136" result="shape"/>
</filter>
<filter id="filter4_d_210_136" x="955.5" y="42.5" width="611" height="498" filterUnits="userSpaceOnUse" color-interpolation-filters="sRGB">
<feFlood flood-opacity="0" result="BackgroundImageFix"/>
<feColorMatrix in="SourceAlpha" type="matrix" values="0 0 0 0 0 0 0 0 0 0 0 0 0 0 0 0 0 0 127 0" result="hardAlpha"/>
<feMorphology radius="11" operator="dilate" in="SourceAlpha" result="effect1_dropShadow_210_136"/>
<feOffset dy="14"/>
<feGaussianBlur stdDeviation="48.5"/>
<feComposite in2="hardAlpha" operator="out"/>
<feColorMatrix type="matrix" values="0 0 0 0 0 0 0 0 0 0 0 0 0 0 0 0 0 0 0.19 0"/>
<feBlend mode="normal" in2="BackgroundImageFix" result="effect1_dropShadow_210_136"/>
<feBlend mode="normal" in="SourceGraphic" in2="effect1_dropShadow_210_136" result="shape"/>
</filter>
<filter id="filter5_d_210_136" x="1268.5" y="290.5" width="47" height="31" filterUnits="userSpaceOnUse" color-interpolation-filters="sRGB">
<feFlood flood-opacity="0" result="BackgroundImageFix"/>
<feColorMatrix in="SourceAlpha" type="matrix" values="0 0 0 0 0 0 0 0 0 0 0 0 0 0 0 0 0 0 127 0" result="hardAlpha"/>
<feOffset dx="2" dy="1"/>
<feGaussianBlur stdDeviation="2.5"/>
<feComposite in2="hardAlpha" operator="out"/>
<feColorMatrix type="matrix" values="0 0 0 0 0 0 0 0 0 0 0 0 0 0 0 0 0 0 0.25 0"/>
<feBlend mode="normal" in2="BackgroundImageFix" result="effect1_dropShadow_210_136"/>
<feBlend mode="normal" in="SourceGraphic" in2="effect1_dropShadow_210_136" result="shape"/>
</filter>
<clipPath id="clip0_210_136">
<rect x="70" y="81" width="1440" height="942" rx="28" fill="white"/>
</clipPath>
<clipPath id="clip1_210_136">
<rect x="121.5" y="508.5" width="1337" height="459" rx="47" fill="white"/>
</clipPath>
</defs>
</svg>
