<svg width="639" height="226" viewBox="0 0 639 226" fill="none" xmlns="http://www.w3.org/2000/svg">
<path d="M2 6.00001C2 3.79087 3.79086 2 6 2H301.112C303.321 2 305.112 3.79086 305.112 6V207.005C305.112 209.214 303.321 211.005 301.112 211.005H6C3.79087 211.005 2 209.214 2 207.005V6.00001Z" fill="#D9D9D9"/>
<path d="M353.073 163.688C353.073 165.897 354.863 167.688 357.073 167.688H423.891C426.1 167.688 427.891 165.897 427.891 163.688V131.62C427.891 129.41 426.1 127.62 423.891 127.62H357.073C354.863 127.62 353.073 129.41 353.073 131.62V163.688Z" fill="#D9D9D9"/>
<path d="M477.77 87.8829C477.77 90.0921 479.561 91.8829 481.77 91.8829H550.508C552.717 91.8829 554.508 90.0921 554.508 87.8829V53.6488C554.508 51.4396 552.717 49.6488 550.508 49.6488H481.77C479.561 49.6488 477.77 51.4396 477.77 53.6488V87.8829Z" fill="#D9D9D9"/>
<path d="M566.018 184.683C566.018 182.474 567.809 180.683 570.018 180.683H633C635.209 180.683 637 182.474 637 184.683V220C637 222.209 635.209 224 633 224H570.018C567.809 224 566.018 222.209 566.018 220V184.683Z" fill="#D9D9D9"/>
<path d="M2 6.00001C2 3.79087 3.79086 2 6 2H301.112C303.321 2 305.112 3.79086 305.112 6V207.005C305.112 209.214 303.321 211.005 301.112 211.005H6C3.79087 211.005 2 209.214 2 207.005V6.00001Z" stroke="black" stroke-width="4"/>
<path d="M353.073 163.688C353.073 165.897 354.863 167.688 357.073 167.688H423.891C426.1 167.688 427.891 165.897 427.891 163.688V131.62C427.891 129.41 426.1 127.62 423.891 127.62H357.073C354.863 127.62 353.073 129.41 353.073 131.62V163.688Z" stroke="black" stroke-width="4"/>
<path d="M477.77 87.8829C477.77 90.0921 479.561 91.8829 481.77 91.8829H550.508C552.717 91.8829 554.508 90.0921 554.508 87.8829V53.6488C554.508 51.4396 552.717 49.6488 550.508 49.6488H481.77C479.561 49.6488 477.77 51.4396 477.77 53.6488V87.8829Z" stroke="black" stroke-width="4"/>
<path d="M566.018 184.683C566.018 182.474 567.809 180.683 570.018 180.683H633C635.209 180.683 637 182.474 637 184.683V220C637 222.209 635.209 224 633 224H570.018C567.809 224 566.018 222.209 566.018 220V184.683Z" stroke="black" stroke-width="4"/>
<path d="M447.659 145.374H450.735" stroke="#111111" stroke-width="3" stroke-linecap="round"/>
<path d="M468.421 146.245C470.571 146.731 473.076 146.859 475.342 147.115" stroke="#111111" stroke-width="3" stroke-linecap="round"/>
<path d="M489.952 149.292C491.681 149.642 496.092 150.15 496.872 151.034" stroke="#111111" stroke-width="3" stroke-linecap="round"/>
<path d="M516.865 154.516C518.947 154.634 520.991 155.495 523.016 155.822" stroke="#111111" stroke-width="3" stroke-linecap="round"/>
<path d="M538.397 159.741C540.03 159.909 541.586 160.586 543.011 161.047" stroke="#111111" stroke-width="3" stroke-linecap="round"/>
<path d="M555.314 166.706C556.029 167.56 556.516 168.257 557.621 168.883" stroke="#111111" stroke-width="3" stroke-linecap="round"/>
<path d="M605.296 167.577V171.06" stroke="#111111" stroke-width="3" stroke-linecap="round"/>
<path d="M605.296 159.74C606.042 158.578 605.911 157.476 606.065 156.258" stroke="#111111" stroke-width="3" stroke-linecap="round"/>
<path d="M606.064 141.02V145.809" stroke="#111111" stroke-width="3" stroke-linecap="round"/>
<path d="M604.527 130.572C604.383 129.107 603.357 127.678 602.989 126.218" stroke="#111111" stroke-width="3" stroke-linecap="round"/>
<path d="M595.3 115.77C594.926 114.606 593.662 113.423 592.993 112.287" stroke="#111111" stroke-width="3" stroke-linecap="round"/>
<path d="M584.535 104.45C583.659 103.086 580.296 101.834 578.383 100.968" stroke="#111111" stroke-width="3" stroke-linecap="round"/>
<path d="M563.002 93.5668C562.923 93.1604 562.615 93.0205 562.233 92.696" stroke="#111111" stroke-width="3" stroke-linecap="round"/>
</svg>
