<svg width="705" height="239" viewBox="0 0 705 239" fill="none" xmlns="http://www.w3.org/2000/svg">
<g clip-path="url(#clip0_19_351)">
<rect y="35" width="315" height="184" rx="30" fill="url(#paint0_linear_19_351)"/>
<mask id="mask0_19_351" style="mask-type:alpha" maskUnits="userSpaceOnUse" x="0" y="35" width="315" height="184">
<rect y="35" width="315" height="184" rx="30" fill="#ED713C"/>
</mask>
<g mask="url(#mask0_19_351)">
<ellipse opacity="0.1" cx="24.5" cy="248" rx="160.5" ry="113" fill="black"/>
<ellipse opacity="0.08" cx="290.5" cy="6" rx="160.5" ry="113" fill="black"/>
</g>
<path d="M244.629 189.296C244.629 192.026 245.791 194.154 248.157 194.154C250.537 194.154 251.671 192.026 251.671 189.296C251.671 187.882 251.377 186.748 250.775 185.894C250.187 185.04 249.319 184.606 248.157 184.606C246.995 184.606 246.127 185.04 245.525 185.908C244.923 186.762 244.629 187.896 244.629 189.296ZM250.131 189.31C250.131 191.494 249.515 192.796 248.157 192.796C246.799 192.796 246.169 191.494 246.169 189.31C246.169 187.084 246.827 185.964 248.157 185.964C249.473 185.964 250.131 187.084 250.131 189.31ZM260.193 187.812C260.235 185.992 258.681 184.578 256.931 184.606C255.167 184.606 253.655 185.992 253.655 187.798C253.655 189.548 255.097 190.892 256.679 190.892C256.833 190.892 256.959 190.878 257.085 190.85L254.859 194H256.623L258.919 190.738C259.241 190.29 259.479 189.94 259.633 189.688C259.787 189.422 259.927 189.142 260.025 188.834C260.137 188.512 260.193 188.176 260.193 187.812ZM258.723 187.798C258.723 188.316 258.555 188.75 258.205 189.1C257.855 189.45 257.435 189.632 256.931 189.632C256.413 189.632 255.979 189.464 255.629 189.114C255.279 188.764 255.111 188.316 255.111 187.798C255.111 187.28 255.279 186.846 255.629 186.496C255.979 186.146 256.413 185.964 256.931 185.964C257.435 185.964 257.855 186.146 258.205 186.496C258.555 186.846 258.723 187.28 258.723 187.798ZM259.693 195.694H261.331L268.653 183.08H267.015L259.693 195.694ZM272.028 192.712L273.652 190.99C274.296 190.304 274.786 189.716 275.108 189.198C275.444 188.68 275.612 188.106 275.612 187.476C275.612 185.852 274.31 184.606 272.546 184.606C270.656 184.606 269.438 186.048 269.438 187.56C269.438 187.84 269.466 188.106 269.536 188.358H271.034C270.992 188.078 270.964 187.84 270.964 187.644C270.964 186.692 271.594 185.964 272.532 185.964C273.47 185.964 274.072 186.65 274.072 187.588C274.072 188.372 273.624 189.044 272.602 190.122L269.312 193.664V194H275.934V192.712H272.028ZM284.32 191.018C284.32 189.156 282.822 188.134 281.17 188.134C280.75 188.134 280.358 188.176 279.994 188.26V186.09H283.802V184.76H278.538V189.408H280.666C282.024 189.408 282.794 189.996 282.794 191.046C282.794 192.11 281.982 192.796 280.876 192.796C279.882 192.796 279.196 192.278 278.636 191.424L277.6 192.166C278.23 193.356 279.392 194.154 280.918 194.154C282.752 194.154 284.32 192.88 284.32 191.018Z" fill="white"/>
<path opacity="0.9" d="M37.14 191.018C37.14 189.156 35.642 188.134 33.99 188.134C33.57 188.134 33.178 188.176 32.814 188.26V186.09H36.622V184.76H31.358V189.408H33.486C34.844 189.408 35.614 189.996 35.614 191.046C35.614 192.11 34.802 192.796 33.696 192.796C32.702 192.796 32.016 192.278 31.456 191.424L30.42 192.166C31.05 193.356 32.212 194.154 33.738 194.154C35.572 194.154 37.14 192.88 37.14 191.018ZM41.6803 192.712L43.3043 190.99C43.9483 190.304 44.4383 189.716 44.7603 189.198C45.0963 188.68 45.2643 188.106 45.2643 187.476C45.2643 185.852 43.9623 184.606 42.1983 184.606C40.3083 184.606 39.0903 186.048 39.0903 187.56C39.0903 187.84 39.1183 188.106 39.1883 188.358H40.6863C40.6443 188.078 40.6163 187.84 40.6163 187.644C40.6163 186.692 41.2463 185.964 42.1843 185.964C43.1223 185.964 43.7243 186.65 43.7243 187.588C43.7243 188.372 43.2763 189.044 42.2543 190.122L38.9643 193.664V194H45.5863V192.712H41.6803ZM54.266 191.592C54.266 190.416 53.482 189.646 52.264 189.198C53.286 188.652 53.832 187.938 53.832 186.972C53.832 186.23 53.552 185.642 53.006 185.236C52.46 184.816 51.76 184.606 50.92 184.606C50.066 184.606 49.366 184.816 48.806 185.236C48.26 185.642 47.98 186.23 47.98 186.972C47.98 187.966 48.54 188.652 49.548 189.198C48.316 189.646 47.546 190.416 47.546 191.592C47.546 193.146 48.932 194.154 50.92 194.154C52.894 194.154 54.266 193.146 54.266 191.592ZM49.394 187.028C49.394 186.286 50.024 185.824 50.92 185.824C51.802 185.824 52.418 186.286 52.418 187.028C52.418 187.714 51.956 188.078 50.906 188.526C49.856 188.064 49.394 187.7 49.394 187.028ZM52.768 191.536C52.768 192.376 52.11 192.922 50.92 192.922C49.73 192.922 49.044 192.376 49.044 191.536C49.044 190.71 49.674 190.276 50.906 189.842C52.138 190.29 52.768 190.696 52.768 191.536ZM58.8541 192.712L60.4781 190.99C61.1221 190.304 61.6121 189.716 61.9341 189.198C62.2701 188.68 62.4381 188.106 62.4381 187.476C62.4381 185.852 61.1361 184.606 59.3721 184.606C57.4821 184.606 56.2641 186.048 56.2641 187.56C56.2641 187.84 56.2921 188.106 56.3621 188.358H57.8601C57.8181 188.078 57.7901 187.84 57.7901 187.644C57.7901 186.692 58.4201 185.964 59.3581 185.964C60.2961 185.964 60.8981 186.65 60.8981 187.588C60.8981 188.372 60.4501 189.044 59.4281 190.122L56.1381 193.664V194H62.7601V192.712H58.8541ZM75.3457 191.032C75.3457 190.234 75.1077 189.59 74.6317 189.1C74.1557 188.61 73.5817 188.302 72.8957 188.19L75.1357 185.166V184.76H69.3817V186.118H72.8257L70.6697 189.016V189.422H71.6917C73.0497 189.422 73.8197 189.996 73.8197 191.046C73.8197 192.096 73.0357 192.796 71.9297 192.796C70.9777 192.796 70.3197 192.278 69.7597 191.424L68.7237 192.152C69.3397 193.342 70.4737 194.154 71.9717 194.154C73.7917 194.154 75.3457 192.908 75.3457 191.032ZM84.1473 191.116H82.8873V188.274H81.4033V191.116H78.6453L81.2633 184.76H79.7373L76.7833 191.984V192.39H81.4033V194H82.8873V192.39H84.1473V191.116ZM92.0326 191.018C92.0326 189.156 90.5346 188.134 88.8826 188.134C88.4626 188.134 88.0706 188.176 87.7066 188.26V186.09H91.5146V184.76H86.2506V189.408H88.3786C89.7366 189.408 90.5066 189.996 90.5066 191.046C90.5066 192.11 89.6946 192.796 88.5886 192.796C87.5946 192.796 86.9086 192.278 86.3486 191.424L85.3126 192.166C85.9426 193.356 87.1046 194.154 88.6306 194.154C90.4646 194.154 92.0326 192.88 92.0326 191.018ZM100.381 190.962C100.381 189.212 98.9529 187.868 97.3429 187.868C97.1889 187.868 97.0629 187.882 96.9369 187.91L99.1629 184.76H97.4129L95.1029 188.022C94.7809 188.484 94.5429 188.834 94.3889 189.086C94.2349 189.338 94.1089 189.618 93.9969 189.94C93.8989 190.248 93.8429 190.584 93.8429 190.948C93.8009 192.768 95.3549 194.182 97.1049 194.154C98.8689 194.154 100.381 192.768 100.381 190.962ZM98.9109 190.962C98.9109 191.48 98.7289 191.928 98.3789 192.278C98.0289 192.628 97.6089 192.796 97.1049 192.796C96.5869 192.796 96.1669 192.628 95.8169 192.278C95.4669 191.928 95.2989 191.48 95.2989 190.962C95.2989 190.444 95.4669 190.01 95.8169 189.66C96.1669 189.31 96.5869 189.128 97.1049 189.128C97.6089 189.128 98.0289 189.31 98.3789 189.66C98.7289 190.01 98.9109 190.444 98.9109 190.962ZM106.42 184.76V186.09H110.76L106.686 194H108.296L112.762 185.166V184.76H106.42ZM120.604 191.592C120.604 190.416 119.82 189.646 118.602 189.198C119.624 188.652 120.17 187.938 120.17 186.972C120.17 186.23 119.89 185.642 119.344 185.236C118.798 184.816 118.098 184.606 117.258 184.606C116.404 184.606 115.704 184.816 115.144 185.236C114.598 185.642 114.318 186.23 114.318 186.972C114.318 187.966 114.878 188.652 115.886 189.198C114.654 189.646 113.884 190.416 113.884 191.592C113.884 193.146 115.27 194.154 117.258 194.154C119.232 194.154 120.604 193.146 120.604 191.592ZM115.732 187.028C115.732 186.286 116.362 185.824 117.258 185.824C118.14 185.824 118.756 186.286 118.756 187.028C118.756 187.714 118.294 188.078 117.244 188.526C116.194 188.064 115.732 187.7 115.732 187.028ZM119.106 191.536C119.106 192.376 118.448 192.922 117.258 192.922C116.068 192.922 115.382 192.376 115.382 191.536C115.382 190.71 116.012 190.276 117.244 189.842C118.476 190.29 119.106 190.696 119.106 191.536ZM129 187.812C129.042 185.992 127.488 184.578 125.738 184.606C123.974 184.606 122.462 185.992 122.462 187.798C122.462 189.548 123.904 190.892 125.486 190.892C125.64 190.892 125.766 190.878 125.892 190.85L123.666 194H125.43L127.726 190.738C128.048 190.29 128.286 189.94 128.44 189.688C128.594 189.422 128.734 189.142 128.832 188.834C128.944 188.512 129 188.176 129 187.812ZM127.53 187.798C127.53 188.316 127.362 188.75 127.012 189.1C126.662 189.45 126.242 189.632 125.738 189.632C125.22 189.632 124.786 189.464 124.436 189.114C124.086 188.764 123.918 188.316 123.918 187.798C123.918 187.28 124.086 186.846 124.436 186.496C124.786 186.146 125.22 185.964 125.738 185.964C126.242 185.964 126.662 186.146 127.012 186.496C127.362 186.846 127.53 187.28 127.53 187.798ZM130.965 189.296C130.965 192.026 132.127 194.154 134.493 194.154C136.873 194.154 138.007 192.026 138.007 189.296C138.007 187.882 137.713 186.748 137.111 185.894C136.523 185.04 135.655 184.606 134.493 184.606C133.331 184.606 132.463 185.04 131.861 185.908C131.259 186.762 130.965 187.896 130.965 189.296ZM136.467 189.31C136.467 191.494 135.851 192.796 134.493 192.796C133.135 192.796 132.505 191.494 132.505 189.31C132.505 187.084 133.163 185.964 134.493 185.964C135.809 185.964 136.467 187.084 136.467 189.31ZM147.327 184.76L144.121 185.81L144.485 187.112L146.361 186.51V194H147.845V184.76H147.327ZM153.1 192.712L154.724 190.99C155.368 190.304 155.858 189.716 156.18 189.198C156.516 188.68 156.684 188.106 156.684 187.476C156.684 185.852 155.382 184.606 153.618 184.606C151.728 184.606 150.51 186.048 150.51 187.56C150.51 187.84 150.538 188.106 150.608 188.358H152.106C152.064 188.078 152.036 187.84 152.036 187.644C152.036 186.692 152.666 185.964 153.604 185.964C154.542 185.964 155.144 186.65 155.144 187.588C155.144 188.372 154.696 189.044 153.674 190.122L150.384 193.664V194H157.006V192.712H153.1ZM165.686 191.592C165.686 190.416 164.902 189.646 163.684 189.198C164.706 188.652 165.252 187.938 165.252 186.972C165.252 186.23 164.972 185.642 164.426 185.236C163.88 184.816 163.18 184.606 162.34 184.606C161.486 184.606 160.786 184.816 160.226 185.236C159.68 185.642 159.4 186.23 159.4 186.972C159.4 187.966 159.96 188.652 160.968 189.198C159.736 189.646 158.966 190.416 158.966 191.592C158.966 193.146 160.352 194.154 162.34 194.154C164.314 194.154 165.686 193.146 165.686 191.592ZM160.814 187.028C160.814 186.286 161.444 185.824 162.34 185.824C163.222 185.824 163.838 186.286 163.838 187.028C163.838 187.714 163.376 188.078 162.326 188.526C161.276 188.064 160.814 187.7 160.814 187.028ZM164.188 191.536C164.188 192.376 163.53 192.922 162.34 192.922C161.15 192.922 160.464 192.376 160.464 191.536C160.464 190.71 161.094 190.276 162.326 189.842C163.558 190.29 164.188 190.696 164.188 191.536ZM174.082 187.812C174.124 185.992 172.57 184.578 170.82 184.606C169.056 184.606 167.544 185.992 167.544 187.798C167.544 189.548 168.986 190.892 170.568 190.892C170.722 190.892 170.848 190.878 170.974 190.85L168.748 194H170.512L172.808 190.738C173.13 190.29 173.368 189.94 173.522 189.688C173.676 189.422 173.816 189.142 173.914 188.834C174.026 188.512 174.082 188.176 174.082 187.812ZM172.612 187.798C172.612 188.316 172.444 188.75 172.094 189.1C171.744 189.45 171.324 189.632 170.82 189.632C170.302 189.632 169.868 189.464 169.518 189.114C169.168 188.764 169 188.316 169 187.798C169 187.28 169.168 186.846 169.518 186.496C169.868 186.146 170.302 185.964 170.82 185.964C171.324 185.964 171.744 186.146 172.094 186.496C172.444 186.846 172.612 187.28 172.612 187.798Z" fill="white"/>
<path d="M256.417 62.9741H268.584V84.8366H256.417V62.9741Z" fill="#FF5F00"/>
<path d="M248.189 95.8409V93.5234C248.189 92.6348 247.648 92.0556 246.721 92.0556C246.258 92.0556 245.756 92.2101 245.408 92.7123C245.138 92.2873 244.751 92.0556 244.172 92.0556C243.786 92.0556 243.4 92.1714 243.09 92.5963V92.1328H242.279V95.8409H243.09V93.7937C243.09 93.1372 243.438 92.828 243.979 92.828C244.52 92.828 244.79 93.1757 244.79 93.7937V95.8409H245.601V93.7937C245.601 93.1372 245.987 92.828 246.49 92.828C247.03 92.828 247.301 93.1757 247.301 93.7937V95.8409H248.189V95.8409ZM260.202 92.1328H258.889V91.0127H258.078V92.1328H257.344V92.8666H258.077V94.5663C258.077 95.4162 258.425 95.9182 259.352 95.9182C259.7 95.9182 260.086 95.8024 260.357 95.6479L260.125 94.9525C259.893 95.107 259.623 95.1457 259.429 95.1457C259.043 95.1457 258.889 94.914 258.889 94.5276V92.8666H260.202V92.1328V92.1328ZM267.077 92.0554C266.614 92.0554 266.305 92.2873 266.112 92.5963V92.1328H265.301V95.8409H266.112V93.7551C266.112 93.1372 266.382 92.7895 266.884 92.7895C267.039 92.7895 267.232 92.8282 267.386 92.8668L267.618 92.0943C267.464 92.0556 267.232 92.0556 267.077 92.0556V92.0554ZM256.687 92.4418C256.301 92.1714 255.76 92.0556 255.18 92.0556C254.254 92.0556 253.636 92.5191 253.636 93.253C253.636 93.8711 254.099 94.2186 254.91 94.3346L255.296 94.3733C255.721 94.4503 255.953 94.5663 255.953 94.7595C255.953 95.0298 255.644 95.223 255.103 95.223C254.562 95.223 254.138 95.0298 253.867 94.8367L253.481 95.4547C253.906 95.7637 254.485 95.9182 255.064 95.9182C256.146 95.9182 256.764 95.4162 256.764 94.7208C256.764 94.0641 256.262 93.7164 255.489 93.6007L255.103 93.562C254.756 93.5232 254.485 93.4462 254.485 93.2144C254.485 92.944 254.756 92.7895 255.18 92.7895C255.644 92.7895 256.108 92.9825 256.339 93.0985L256.687 92.4418V92.4418ZM278.241 92.0556C277.777 92.0556 277.468 92.2873 277.275 92.5963V92.1328H276.464V95.8409H277.275V93.7551C277.275 93.1372 277.545 92.7895 278.047 92.7895C278.202 92.7895 278.395 92.8282 278.549 92.8668L278.781 92.0943C278.627 92.0556 278.395 92.0556 278.241 92.0556V92.0556ZM267.889 93.9869C267.889 95.107 268.661 95.9182 269.859 95.9182C270.399 95.9182 270.785 95.8024 271.172 95.4934L270.785 94.8367C270.477 95.0685 270.168 95.1843 269.82 95.1843C269.163 95.1843 268.7 94.7208 268.7 93.9869C268.7 93.2917 269.163 92.828 269.82 92.7895C270.168 92.7895 270.477 92.9053 270.785 93.1372L271.172 92.4805C270.785 92.1714 270.399 92.0556 269.859 92.0556C268.661 92.0556 267.889 92.8668 267.889 93.9869ZM275.382 93.9869V92.1328H274.571V92.5963C274.301 92.2488 273.914 92.0556 273.412 92.0556C272.369 92.0556 271.558 92.8668 271.558 93.9869C271.558 95.107 272.369 95.9182 273.412 95.9182C273.953 95.9182 274.339 95.7251 274.571 95.3774V95.8409H275.382V93.9869V93.9869ZM272.408 93.9869C272.408 93.3302 272.833 92.7895 273.528 92.7895C274.185 92.7895 274.648 93.2917 274.648 93.9869C274.648 94.6435 274.185 95.1843 273.528 95.1843C272.833 95.1455 272.408 94.6435 272.408 93.9869V93.9869ZM262.713 92.0556C261.631 92.0556 260.859 92.828 260.859 93.9869C260.859 95.1457 261.631 95.9182 262.751 95.9182C263.292 95.9182 263.833 95.7637 264.258 95.4162L263.871 94.8367C263.562 95.0685 263.176 95.223 262.79 95.223C262.288 95.223 261.786 94.9912 261.67 94.3344H264.412V94.0256C264.451 92.828 263.756 92.0556 262.713 92.0556H262.713ZM262.713 92.7508C263.215 92.7508 263.563 93.06 263.64 93.6394H261.708C261.786 93.1372 262.133 92.7508 262.713 92.7508ZM282.837 93.9869V90.665H282.026V92.5963C281.755 92.2488 281.369 92.0556 280.867 92.0556C279.824 92.0556 279.013 92.8668 279.013 93.9869C279.013 95.107 279.824 95.9182 280.867 95.9182C281.408 95.9182 281.794 95.7251 282.026 95.3774V95.8409H282.837V93.9869V93.9869ZM279.863 93.9869C279.863 93.3302 280.288 92.7895 280.983 92.7895C281.64 92.7895 282.103 93.2917 282.103 93.9869C282.103 94.6435 281.64 95.1843 280.983 95.1843C280.288 95.1455 279.863 94.6435 279.863 93.9869V93.9869ZM252.747 93.9869V92.1328H251.936V92.5963C251.665 92.2488 251.279 92.0556 250.777 92.0556C249.734 92.0556 248.923 92.8668 248.923 93.9869C248.923 95.107 249.734 95.9182 250.777 95.9182C251.318 95.9182 251.704 95.7251 251.936 95.3774V95.8409H252.747V93.9869V93.9869ZM249.734 93.9869C249.734 93.3302 250.159 92.7895 250.854 92.7895C251.511 92.7895 251.975 93.2917 251.975 93.9869C251.975 94.6435 251.511 95.1843 250.854 95.1843C250.159 95.1455 249.734 94.6435 249.734 93.9869V93.9869Z" fill="white"/>
<path d="M257.189 73.9055C257.189 69.4635 259.275 65.5236 262.48 62.9742C260.124 61.1201 257.15 60 253.906 60C246.219 60 240 66.2188 240 73.9055C240 81.5921 246.219 87.811 253.906 87.811C257.15 87.811 260.124 86.6909 262.48 84.8367C259.275 82.326 257.189 78.3475 257.189 73.9055V73.9055Z" fill="#EB001B"/>
<path d="M285 73.9055C285 81.5921 278.781 87.811 271.094 87.811C267.849 87.811 264.875 86.6909 262.519 84.8367C265.764 82.2874 267.811 78.3475 267.811 73.9055C267.811 69.4635 265.725 65.5236 262.519 62.9742C264.875 61.1201 267.849 60 271.094 60C278.781 60 285 66.2575 285 73.9055H285Z" fill="#F79E1B"/>
<path d="M31.288 115.648L31.82 113.436H33.836V111.504H30.952L31.484 109.012H33.836V97.42H37.588C39.5293 97.42 41.0973 97.7093 42.292 98.288C43.5053 98.8667 44.3827 99.6693 44.924 100.696C45.484 101.723 45.764 102.899 45.764 104.224C45.764 106.613 45.1013 108.461 43.776 109.768C42.4693 111.075 40.3973 111.728 37.56 111.728H37V113.436H42.348L41.844 115.648H37V118H33.836V115.648H31.288ZM37 108.984H38.176C39.1653 108.984 39.9493 108.844 40.528 108.564C41.1253 108.284 41.5733 107.929 41.872 107.5C42.1707 107.052 42.3667 106.576 42.46 106.072C42.5533 105.549 42.6 105.055 42.6 104.588C42.6 103.823 42.4693 103.104 42.208 102.432C41.9653 101.76 41.5267 101.219 40.892 100.808C40.276 100.379 39.3893 100.164 38.232 100.164H37V108.984ZM55.9026 118.42C54.6706 118.42 53.5319 118.261 52.4866 117.944C51.4599 117.627 50.5919 117.16 49.8826 116.544L51.3106 113.912C51.4786 114.043 51.7679 114.239 52.1786 114.5C52.6079 114.743 53.1306 114.967 53.7466 115.172C54.3813 115.377 55.0719 115.48 55.8186 115.48C57.0693 115.48 58.1053 115.125 58.9266 114.416C59.7479 113.707 60.1586 112.727 60.1586 111.476C60.1586 110.785 60.0093 110.141 59.7106 109.544C59.4306 108.928 58.9453 108.433 58.2546 108.06C57.5826 107.668 56.6586 107.472 55.4826 107.472C54.9226 107.472 54.3346 107.509 53.7186 107.584C53.1213 107.64 52.5706 107.724 52.0666 107.836C51.5626 107.948 51.1799 108.079 50.9186 108.228L51.3386 97.42H61.8946V100.164H54.3906L54.1106 105.036C54.3719 104.961 54.6893 104.905 55.0626 104.868C55.4546 104.831 55.9213 104.812 56.4626 104.812C58.6279 104.812 60.3266 105.381 61.5586 106.52C62.8093 107.64 63.4346 109.189 63.4346 111.168C63.4346 112.587 63.1359 113.847 62.5386 114.948C61.9599 116.031 61.1106 116.88 59.9906 117.496C58.8706 118.112 57.5079 118.42 55.9026 118.42ZM69.2244 118.28C68.6644 118.28 68.1884 118.093 67.7964 117.72C67.4044 117.328 67.2084 116.852 67.2084 116.292C67.2084 115.713 67.3951 115.237 67.7684 114.864C68.1604 114.472 68.6458 114.276 69.2244 114.276C69.8218 114.276 70.3071 114.472 70.6804 114.864C71.0538 115.237 71.2404 115.713 71.2404 116.292C71.2404 116.852 71.0444 117.328 70.6524 117.72C70.2791 118.093 69.8031 118.28 69.2244 118.28ZM75.8346 118L82.6946 100.164H73.1186V97.42H86.6426L79.4186 118H75.8346ZM96.5198 118.42C95.2878 118.42 94.1491 118.261 93.1038 117.944C92.0771 117.627 91.2091 117.16 90.4998 116.544L91.9278 113.912C92.0958 114.043 92.3851 114.239 92.7958 114.5C93.2251 114.743 93.7478 114.967 94.3638 115.172C94.9984 115.377 95.6891 115.48 96.4358 115.48C97.6864 115.48 98.7224 115.125 99.5438 114.416C100.365 113.707 100.776 112.727 100.776 111.476C100.776 110.785 100.626 110.141 100.328 109.544C100.048 108.928 99.5624 108.433 98.8718 108.06C98.1998 107.668 97.2758 107.472 96.0998 107.472C95.5398 107.472 94.9518 107.509 94.3358 107.584C93.7384 107.64 93.1878 107.724 92.6838 107.836C92.1798 107.948 91.7971 108.079 91.5358 108.228L91.9558 97.42H102.512V100.164H95.0078L94.7278 105.036C94.9891 104.961 95.3064 104.905 95.6798 104.868C96.0718 104.831 96.5384 104.812 97.0798 104.812C99.2451 104.812 100.944 105.381 102.176 106.52C103.426 107.64 104.052 109.189 104.052 111.168C104.052 112.587 103.753 113.847 103.156 114.948C102.577 116.031 101.728 116.88 100.608 117.496C99.4878 118.112 98.1251 118.42 96.5198 118.42ZM116.693 118.42C115.33 118.42 114.173 118.14 113.221 117.58C112.269 117.02 111.494 116.255 110.897 115.284C110.3 114.295 109.861 113.156 109.581 111.868C109.32 110.561 109.189 109.18 109.189 107.724C109.189 106.212 109.32 104.812 109.581 103.524C109.842 102.236 110.262 101.116 110.841 100.164C111.42 99.1933 112.185 98.4373 113.137 97.896C114.108 97.3547 115.293 97.084 116.693 97.084C118.56 97.084 120.034 97.5413 121.117 98.456C122.2 99.3707 122.974 100.631 123.441 102.236C123.926 103.823 124.169 105.652 124.169 107.724C124.169 109.721 123.917 111.532 123.413 113.156C122.928 114.78 122.134 116.068 121.033 117.02C119.95 117.953 118.504 118.42 116.693 118.42ZM116.693 115.564C117.533 115.564 118.214 115.34 118.737 114.892C119.278 114.444 119.689 113.837 119.969 113.072C120.268 112.307 120.473 111.467 120.585 110.552C120.697 109.619 120.753 108.676 120.753 107.724C120.753 106.679 120.697 105.689 120.585 104.756C120.473 103.823 120.268 102.992 119.969 102.264C119.689 101.536 119.278 100.967 118.737 100.556C118.214 100.127 117.533 99.912 116.693 99.912C115.853 99.912 115.162 100.127 114.621 100.556C114.08 100.967 113.66 101.536 113.361 102.264C113.081 102.992 112.885 103.823 112.773 104.756C112.661 105.689 112.605 106.679 112.605 107.724C112.605 108.676 112.661 109.619 112.773 110.552C112.885 111.467 113.081 112.307 113.361 113.072C113.66 113.819 114.08 114.425 114.621 114.892C115.162 115.34 115.853 115.564 116.693 115.564ZM129.369 118.28C128.809 118.28 128.333 118.093 127.941 117.72C127.549 117.328 127.353 116.852 127.353 116.292C127.353 115.713 127.54 115.237 127.913 114.864C128.305 114.472 128.79 114.276 129.369 114.276C129.966 114.276 130.452 114.472 130.825 114.864C131.198 115.237 131.385 115.713 131.385 116.292C131.385 116.852 131.189 117.328 130.797 117.72C130.424 118.093 129.948 118.28 129.369 118.28ZM135.183 118L142.099 109.348C142.473 108.863 142.893 108.275 143.359 107.584C143.845 106.875 144.265 106.147 144.619 105.4C144.993 104.635 145.179 103.925 145.179 103.272C145.179 102.245 144.899 101.452 144.339 100.892C143.798 100.332 142.977 100.052 141.875 100.052C141.11 100.052 140.466 100.22 139.943 100.556C139.421 100.892 138.991 101.284 138.655 101.732C138.338 102.18 138.086 102.581 137.899 102.936L135.295 101.536C135.65 100.864 136.107 100.192 136.667 99.52C137.246 98.8293 137.965 98.2507 138.823 97.784C139.682 97.3173 140.727 97.084 141.959 97.084C143.378 97.084 144.563 97.336 145.515 97.84C146.467 98.344 147.177 99.0347 147.643 99.912C148.129 100.789 148.371 101.788 148.371 102.908C148.371 104.103 148.073 105.325 147.475 106.576C146.897 107.827 146.075 109.105 145.011 110.412L141.203 115.228H149.183V118H135.183ZM161.658 118.42C160.295 118.42 159.138 118.14 158.186 117.58C157.234 117.02 156.459 116.255 155.862 115.284C155.265 114.295 154.826 113.156 154.546 111.868C154.285 110.561 154.154 109.18 154.154 107.724C154.154 106.212 154.285 104.812 154.546 103.524C154.807 102.236 155.227 101.116 155.806 100.164C156.385 99.1933 157.15 98.4373 158.102 97.896C159.073 97.3547 160.258 97.084 161.658 97.084C163.525 97.084 164.999 97.5413 166.082 98.456C167.165 99.3707 167.939 100.631 168.406 102.236C168.891 103.823 169.134 105.652 169.134 107.724C169.134 109.721 168.882 111.532 168.378 113.156C167.893 114.78 167.099 116.068 165.998 117.02C164.915 117.953 163.469 118.42 161.658 118.42ZM161.658 115.564C162.498 115.564 163.179 115.34 163.702 114.892C164.243 114.444 164.654 113.837 164.934 113.072C165.233 112.307 165.438 111.467 165.55 110.552C165.662 109.619 165.718 108.676 165.718 107.724C165.718 106.679 165.662 105.689 165.55 104.756C165.438 103.823 165.233 102.992 164.934 102.264C164.654 101.536 164.243 100.967 163.702 100.556C163.179 100.127 162.498 99.912 161.658 99.912C160.818 99.912 160.127 100.127 159.586 100.556C159.045 100.967 158.625 101.536 158.326 102.264C158.046 102.992 157.85 103.823 157.738 104.756C157.626 105.689 157.57 106.679 157.57 107.724C157.57 108.676 157.626 109.619 157.738 110.552C157.85 111.467 158.046 112.307 158.326 113.072C158.625 113.819 159.045 114.425 159.586 114.892C160.127 115.34 160.818 115.564 161.658 115.564ZM181.787 118.42C180.424 118.42 179.267 118.14 178.315 117.58C177.363 117.02 176.588 116.255 175.991 115.284C175.394 114.295 174.955 113.156 174.675 111.868C174.414 110.561 174.283 109.18 174.283 107.724C174.283 106.212 174.414 104.812 174.675 103.524C174.936 102.236 175.356 101.116 175.935 100.164C176.514 99.1933 177.279 98.4373 178.231 97.896C179.202 97.3547 180.387 97.084 181.787 97.084C183.654 97.084 185.128 97.5413 186.211 98.456C187.294 99.3707 188.068 100.631 188.535 102.236C189.02 103.823 189.263 105.652 189.263 107.724C189.263 109.721 189.011 111.532 188.507 113.156C188.022 114.78 187.228 116.068 186.127 117.02C185.044 117.953 183.598 118.42 181.787 118.42ZM181.787 115.564C182.627 115.564 183.308 115.34 183.831 114.892C184.372 114.444 184.783 113.837 185.063 113.072C185.362 112.307 185.567 111.467 185.679 110.552C185.791 109.619 185.847 108.676 185.847 107.724C185.847 106.679 185.791 105.689 185.679 104.756C185.567 103.823 185.362 102.992 185.063 102.264C184.783 101.536 184.372 100.967 183.831 100.556C183.308 100.127 182.627 99.912 181.787 99.912C180.947 99.912 180.256 100.127 179.715 100.556C179.174 100.967 178.754 101.536 178.455 102.264C178.175 102.992 177.979 103.823 177.867 104.756C177.755 105.689 177.699 106.679 177.699 107.724C177.699 108.676 177.755 109.619 177.867 110.552C177.979 111.467 178.175 112.307 178.455 113.072C178.754 113.819 179.174 114.425 179.715 114.892C180.256 115.34 180.947 115.564 181.787 115.564Z" fill="white"/>
<path opacity="0.54" d="M30.602 73.38C30.546 76.026 32.828 78.196 35.46 78.154C37.182 78.154 38.638 77.328 39.422 76.026L38.302 75.2C37.644 76.222 36.692 76.796 35.474 76.796C33.584 76.796 32.142 75.34 32.142 73.38C32.142 71.42 33.584 69.964 35.474 69.964C36.692 69.964 37.644 70.538 38.302 71.56L39.422 70.734C38.624 69.432 37.154 68.606 35.46 68.606C32.828 68.564 30.546 70.734 30.602 73.38ZM41.0292 75.116C41.0292 76.964 42.3172 78.154 44.0392 78.154C45.7192 78.154 47.0212 76.964 47.0212 75.116V71.126H45.5512V75.228C45.5512 76.18 44.8932 76.796 44.0392 76.796C43.1432 76.796 42.4852 76.18 42.4852 75.228V71.126H41.0292V75.116ZM53.0175 71.126C52.8495 71.084 52.6675 71.056 52.4575 71.056C51.6735 71.056 50.9455 71.406 50.4555 72.022V71.126H49.0835V78H50.5535V74.332C50.5535 73.114 51.4075 72.428 52.5695 72.428H53.0175V71.126ZM58.2675 71.126C58.0995 71.084 57.9175 71.056 57.7075 71.056C56.9235 71.056 56.1955 71.406 55.7055 72.022V71.126H54.3335V78H55.8035V74.332C55.8035 73.114 56.6575 72.428 57.8195 72.428H58.2675V71.126ZM65.6348 75.046C65.7048 74.724 65.7468 74.416 65.7468 74.122C65.7468 72.33 64.3888 70.972 62.5688 70.972C60.6228 70.93 58.9708 72.596 59.0128 74.57C59.0128 76.6 60.6088 78.154 62.7088 78.154C63.7588 78.154 64.6688 77.79 65.4528 77.048L64.7528 76.04C64.1368 76.586 63.4648 76.852 62.7508 76.852C61.5748 76.852 60.6928 76.166 60.5108 75.046H65.6348ZM60.5388 73.898C60.7628 72.876 61.5468 72.218 62.5128 72.218C63.4788 72.218 64.2628 72.848 64.2768 73.898H60.5388ZM73.4372 73.702C73.4372 72.064 72.4712 70.972 70.8612 70.972C70.0072 70.972 69.3212 71.252 68.8032 71.798V71.126H67.4312V78H68.9012V73.898C68.9012 72.96 69.5592 72.302 70.4692 72.302C71.3652 72.302 71.9672 72.946 71.9672 73.898V78H73.4372V73.702ZM79.5719 76.754C79.1659 76.796 78.8719 76.824 78.6619 76.824C77.7659 76.824 77.3039 76.516 77.3039 75.634V72.4H79.3479V71.126H77.3039V69.32H75.8199V71.126H74.6999V72.4H75.8199V75.76C75.8199 77.37 76.7719 78.154 78.3539 78.154C78.7039 78.154 79.1099 78.098 79.5719 78V76.754ZM92.0419 75.312C92.0419 74.178 91.3979 73.31 90.3199 72.96C90.8239 72.526 91.0899 71.938 91.0899 71.224C91.0899 69.796 89.9839 68.76 88.3179 68.76H85.0839V78H89.0459C90.8519 78 92.0419 76.866 92.0419 75.312ZM88.1779 70.062C89.0879 70.062 89.6059 70.524 89.6059 71.294C89.6059 72.064 89.0879 72.554 88.1779 72.554H86.5399V70.062H88.1779ZM90.5439 75.27C90.5439 76.152 89.9419 76.698 88.9199 76.698H86.5399V73.828H88.9199C89.9419 73.828 90.5439 74.388 90.5439 75.27ZM99.1002 73.842C99.1002 71.994 97.9802 70.972 96.2862 70.972C95.0962 70.972 94.0742 71.448 93.3882 72.442L94.2422 73.31C94.8162 72.624 95.3762 72.288 96.1462 72.288C97.0842 72.288 97.6162 72.806 97.6162 73.758V74.206H95.6702C94.1162 74.206 93.1362 74.976 93.1362 76.166C93.1362 77.356 94.0882 78.154 95.5302 78.154C96.4682 78.154 97.2242 77.832 97.7282 77.23V78H99.1002V73.842ZM97.6162 75.396C97.6162 76.334 96.8322 77.02 95.8382 77.02C95.1242 77.02 94.6342 76.684 94.6342 76.11C94.6342 75.55 95.0682 75.27 95.8522 75.27H97.6162V75.396ZM101.146 78H102.616V67.5H101.146V78ZM110.202 73.842C110.202 71.994 109.082 70.972 107.388 70.972C106.198 70.972 105.176 71.448 104.49 72.442L105.344 73.31C105.918 72.624 106.478 72.288 107.248 72.288C108.186 72.288 108.718 72.806 108.718 73.758V74.206H106.772C105.218 74.206 104.238 74.976 104.238 76.166C104.238 77.356 105.19 78.154 106.632 78.154C107.57 78.154 108.326 77.832 108.83 77.23V78H110.202V73.842ZM108.718 75.396C108.718 76.334 107.934 77.02 106.94 77.02C106.226 77.02 105.736 76.684 105.736 76.11C105.736 75.55 106.17 75.27 106.954 75.27H108.718V75.396ZM118.254 73.702C118.254 72.064 117.288 70.972 115.678 70.972C114.824 70.972 114.138 71.252 113.62 71.798V71.126H112.248V78H113.718V73.898C113.718 72.96 114.376 72.302 115.286 72.302C116.182 72.302 116.784 72.946 116.784 73.898V78H118.254V73.702ZM119.866 74.556C119.866 76.558 121.476 78.154 123.506 78.154C124.752 78.154 125.788 77.552 126.404 76.558L125.368 75.76C124.864 76.446 124.248 76.796 123.52 76.796C122.288 76.796 121.364 75.816 121.364 74.556C121.364 73.31 122.288 72.33 123.52 72.33C124.262 72.33 124.878 72.68 125.368 73.38L126.404 72.568C125.802 71.574 124.78 70.972 123.506 70.972C121.532 70.944 119.824 72.582 119.866 74.556ZM134.076 75.046C134.146 74.724 134.188 74.416 134.188 74.122C134.188 72.33 132.83 70.972 131.01 70.972C129.064 70.93 127.412 72.596 127.454 74.57C127.454 76.6 129.05 78.154 131.15 78.154C132.2 78.154 133.11 77.79 133.894 77.048L133.194 76.04C132.578 76.586 131.906 76.852 131.192 76.852C130.016 76.852 129.134 76.166 128.952 75.046H134.076ZM128.98 73.898C129.204 72.876 129.988 72.218 130.954 72.218C131.92 72.218 132.704 72.848 132.718 73.898H128.98Z" fill="white"/>
<rect x="330" y="35" width="145" height="184" rx="30" fill="url(#paint1_linear_19_351)"/>
<mask id="mask1_19_351" style="mask-type:alpha" maskUnits="userSpaceOnUse" x="330" y="35" width="145" height="184">
<rect x="330" y="35" width="145" height="184" rx="30" fill="#ED713C"/>
</mask>
<g mask="url(#mask1_19_351)">
<circle opacity="0.1" cx="302" cy="228" r="95" fill="black" stroke="black" stroke-width="36"/>
<path opacity="0.1" d="M608 8.5C608 77.2781 562.434 127 513 127C463.566 127 418 77.2781 418 8.5C418 -60.2781 463.566 -110 513 -110C562.434 -110 608 -60.2781 608 8.5Z" fill="black" stroke="black" stroke-width="36"/>
</g>
<path d="M427.852 184.304C427.852 186.449 428.765 188.121 430.624 188.121C432.494 188.121 433.385 186.449 433.385 184.304C433.385 183.193 433.154 182.302 432.681 181.631C432.219 180.96 431.537 180.619 430.624 180.619C429.711 180.619 429.029 180.96 428.556 181.642C428.083 182.313 427.852 183.204 427.852 184.304ZM432.175 184.315C432.175 186.031 431.691 187.054 430.624 187.054C429.557 187.054 429.062 186.031 429.062 184.315C429.062 182.566 429.579 181.686 430.624 181.686C431.658 181.686 432.175 182.566 432.175 184.315ZM439.688 183.138C439.721 181.708 438.5 180.597 437.125 180.619C435.739 180.619 434.551 181.708 434.551 183.127C434.551 184.502 435.684 185.558 436.927 185.558C437.048 185.558 437.147 185.547 437.246 185.525L435.497 188H436.883L438.687 185.437C438.94 185.085 439.127 184.81 439.248 184.612C439.369 184.403 439.479 184.183 439.556 183.941C439.644 183.688 439.688 183.424 439.688 183.138ZM438.533 183.127C438.533 183.534 438.401 183.875 438.126 184.15C437.851 184.425 437.521 184.568 437.125 184.568C436.718 184.568 436.377 184.436 436.102 184.161C435.827 183.886 435.695 183.534 435.695 183.127C435.695 182.72 435.827 182.379 436.102 182.104C436.377 181.829 436.718 181.686 437.125 181.686C437.521 181.686 437.851 181.829 438.126 182.104C438.401 182.379 438.533 182.72 438.533 183.127ZM438.902 189.331H440.189L445.942 179.42H444.655L438.902 189.331ZM448.201 186.988L449.477 185.635C449.983 185.096 450.368 184.634 450.621 184.227C450.885 183.82 451.017 183.369 451.017 182.874C451.017 181.598 449.994 180.619 448.608 180.619C447.123 180.619 446.166 181.752 446.166 182.94C446.166 183.16 446.188 183.369 446.243 183.567H447.42C447.387 183.347 447.365 183.16 447.365 183.006C447.365 182.258 447.86 181.686 448.597 181.686C449.334 181.686 449.807 182.225 449.807 182.962C449.807 183.578 449.455 184.106 448.652 184.953L446.067 187.736V188H451.27V186.988H448.201ZM457.465 185.657C457.465 184.194 456.288 183.391 454.99 183.391C454.66 183.391 454.352 183.424 454.066 183.49V181.785H457.058V180.74H452.922V184.392H454.594C455.661 184.392 456.266 184.854 456.266 185.679C456.266 186.515 455.628 187.054 454.759 187.054C453.978 187.054 453.439 186.647 452.999 185.976L452.185 186.559C452.68 187.494 453.593 188.121 454.792 188.121C456.233 188.121 457.465 187.12 457.465 185.657Z" fill="white"/>
<path d="M398.289 142.42L395.312 143.395L395.65 144.604L397.392 144.045V151H398.77V142.42H398.289ZM403.185 149.804L404.693 148.205C405.291 147.568 405.746 147.022 406.045 146.541C406.357 146.06 406.513 145.527 406.513 144.942C406.513 143.434 405.304 142.277 403.666 142.277C401.911 142.277 400.78 143.616 400.78 145.02C400.78 145.28 400.806 145.527 400.871 145.761H402.262C402.223 145.501 402.197 145.28 402.197 145.098C402.197 144.214 402.782 143.538 403.653 143.538C404.524 143.538 405.083 144.175 405.083 145.046C405.083 145.774 404.667 146.398 403.718 147.399L400.663 150.688V151H406.812V149.804H403.185ZM414.408 148.764C414.408 147.672 413.68 146.957 412.549 146.541C413.498 146.034 414.005 145.371 414.005 144.474C414.005 143.785 413.745 143.239 413.238 142.862C412.731 142.472 412.081 142.277 411.301 142.277C410.508 142.277 409.858 142.472 409.338 142.862C408.831 143.239 408.571 143.785 408.571 144.474C408.571 145.397 409.091 146.034 410.027 146.541C408.883 146.957 408.168 147.672 408.168 148.764C408.168 150.207 409.455 151.143 411.301 151.143C413.134 151.143 414.408 150.207 414.408 148.764ZM409.884 144.526C409.884 143.837 410.469 143.408 411.301 143.408C412.12 143.408 412.692 143.837 412.692 144.526C412.692 145.163 412.263 145.501 411.288 145.917C410.313 145.488 409.884 145.15 409.884 144.526ZM413.017 148.712C413.017 149.492 412.406 149.999 411.301 149.999C410.196 149.999 409.559 149.492 409.559 148.712C409.559 147.945 410.144 147.542 411.288 147.139C412.432 147.555 413.017 147.932 413.017 148.712ZM421.74 145.254C421.779 143.564 420.336 142.251 418.711 142.277C417.073 142.277 415.669 143.564 415.669 145.241C415.669 146.866 417.008 148.114 418.477 148.114C418.62 148.114 418.737 148.101 418.854 148.075L416.787 151H418.425L420.557 147.971C420.856 147.555 421.077 147.23 421.22 146.996C421.363 146.749 421.493 146.489 421.584 146.203C421.688 145.904 421.74 145.592 421.74 145.254ZM420.375 145.241C420.375 145.722 420.219 146.125 419.894 146.45C419.569 146.775 419.179 146.944 418.711 146.944C418.23 146.944 417.827 146.788 417.502 146.463C417.177 146.138 417.021 145.722 417.021 145.241C417.021 144.76 417.177 144.357 417.502 144.032C417.827 143.707 418.23 143.538 418.711 143.538C419.179 143.538 419.569 143.707 419.894 144.032C420.219 144.357 420.375 144.76 420.375 145.241Z" fill="white"/>
<circle cx="379" cy="147" r="2" fill="white"/>
<circle cx="359" cy="147" r="2" fill="white"/>
<circle cx="369" cy="147" r="2" fill="white"/>
<circle cx="349" cy="147" r="2" fill="white"/>
<rect x="347" y="172" width="33" height="22" rx="5" fill="url(#paint2_radial_19_351)"/>
<path fill-rule="evenodd" clip-rule="evenodd" d="M363.5 172.219L359.833 177.968C359.833 177.968 361.3 182.999 359.833 187.311L363.5 193.779L367.167 187.311C367.167 187.311 365.7 183.718 367.167 177.968C367.167 177.968 363.5 172.219 363.5 172.219Z" stroke="#C7C7B6" stroke-width="1.3" stroke-linejoin="bevel"/>
<path d="M347 178.232H359.833" stroke="#C7C7B6" stroke-width="1.3" stroke-linejoin="bevel"/>
<path d="M366.8 178.232H380" stroke="#C7C7B6" stroke-width="1.3" stroke-linejoin="bevel"/>
<path d="M347 187.032H359.833" stroke="#C7C7B6" stroke-width="1.3" stroke-linejoin="bevel"/>
<path d="M366.8 187.032H380" stroke="#C7C7B6" stroke-width="1.3" stroke-linejoin="bevel"/>
<path opacity="0.5" d="M347.516 126.04C347.468 128.308 349.424 130.168 351.68 130.132C353.156 130.132 354.404 129.424 355.076 128.308L354.116 127.6C353.552 128.476 352.736 128.968 351.692 128.968C350.072 128.968 348.836 127.72 348.836 126.04C348.836 124.36 350.072 123.112 351.692 123.112C352.736 123.112 353.552 123.604 354.116 124.48L355.076 123.772C354.392 122.656 353.132 121.948 351.68 121.948C349.424 121.912 347.468 123.772 347.516 126.04ZM359.886 124.108C359.742 124.072 359.586 124.048 359.406 124.048C358.734 124.048 358.11 124.348 357.69 124.876V124.108H356.514V130H357.774V126.856C357.774 125.812 358.506 125.224 359.502 125.224H359.886V124.108ZM366.2 127.468C366.26 127.192 366.296 126.928 366.296 126.676C366.296 125.14 365.132 123.976 363.572 123.976C361.904 123.94 360.488 125.368 360.524 127.06C360.524 128.8 361.892 130.132 363.692 130.132C364.592 130.132 365.372 129.82 366.044 129.184L365.444 128.32C364.916 128.788 364.34 129.016 363.728 129.016C362.72 129.016 361.964 128.428 361.808 127.468H366.2ZM361.832 126.484C362.024 125.608 362.696 125.044 363.524 125.044C364.352 125.044 365.024 125.584 365.036 126.484H361.832ZM372.216 121V124.828C371.772 124.288 371.064 123.976 370.248 123.976C368.616 123.94 367.332 125.344 367.368 127.06C367.368 128.8 368.592 130.132 370.248 130.132C371.124 130.132 371.88 129.772 372.312 129.16V130H373.488V121H372.216ZM372.24 127.06C372.24 128.344 371.388 128.98 370.464 128.98C369.42 128.98 368.652 128.176 368.652 127.048C368.652 125.92 369.456 125.128 370.464 125.128C371.376 125.128 372.24 125.788 372.24 127.06ZM375.31 130H376.57V124.108H375.31V130ZM375.082 121.912C375.082 122.38 375.466 122.74 375.946 122.74C376.414 122.74 376.798 122.38 376.798 121.912C376.798 121.444 376.414 121.072 375.946 121.072C375.466 121.072 375.082 121.444 375.082 121.912ZM381.896 128.932C381.548 128.968 381.296 128.992 381.116 128.992C380.348 128.992 379.952 128.728 379.952 127.972V125.2H381.704V124.108H379.952V122.56H378.68V124.108H377.72V125.2H378.68V128.08C378.68 129.46 379.496 130.132 380.852 130.132C381.152 130.132 381.5 130.084 381.896 130V128.932ZM386.141 126.04C386.093 128.308 388.049 130.168 390.305 130.132C391.781 130.132 393.029 129.424 393.701 128.308L392.741 127.6C392.177 128.476 391.361 128.968 390.317 128.968C388.697 128.968 387.461 127.72 387.461 126.04C387.461 124.36 388.697 123.112 390.317 123.112C391.361 123.112 392.177 123.604 392.741 124.48L393.701 123.772C393.017 122.656 391.757 121.948 390.305 121.948C388.049 121.912 386.093 123.772 386.141 126.04ZM399.76 126.436C399.76 124.852 398.8 123.976 397.348 123.976C396.328 123.976 395.452 124.384 394.864 125.236L395.596 125.98C396.088 125.392 396.568 125.104 397.228 125.104C398.032 125.104 398.488 125.548 398.488 126.364V126.748H396.82C395.488 126.748 394.648 127.408 394.648 128.428C394.648 129.448 395.464 130.132 396.7 130.132C397.504 130.132 398.152 129.856 398.584 129.34V130H399.76V126.436ZM398.488 127.768C398.488 128.572 397.816 129.16 396.964 129.16C396.352 129.16 395.932 128.872 395.932 128.38C395.932 127.9 396.304 127.66 396.976 127.66H398.488V127.768ZM404.886 124.108C404.742 124.072 404.586 124.048 404.406 124.048C403.734 124.048 403.11 124.348 402.69 124.876V124.108H401.514V130H402.774V126.856C402.774 125.812 403.506 125.224 404.502 125.224H404.886V124.108ZM410.372 121V124.828C409.928 124.288 409.22 123.976 408.404 123.976C406.772 123.94 405.488 125.344 405.524 127.06C405.524 128.8 406.748 130.132 408.404 130.132C409.28 130.132 410.036 129.772 410.468 129.16V130H411.644V121H410.372ZM410.396 127.06C410.396 128.344 409.544 128.98 408.62 128.98C407.576 128.98 406.808 128.176 406.808 127.048C406.808 125.92 407.612 125.128 408.62 125.128C409.532 125.128 410.396 125.788 410.396 127.06Z" fill="white"/>
<path d="M363.417 57.9741H375.584V79.8366H363.417V57.9741Z" fill="#FF5F00"/>
<path d="M364.189 68.9055C364.189 64.4635 366.275 60.5236 369.48 57.9742C367.124 56.1201 364.15 55 360.906 55C353.219 55 347 61.2188 347 68.9055C347 76.5921 353.219 82.811 360.906 82.811C364.15 82.811 367.124 81.6909 369.48 79.8367C366.275 77.326 364.189 73.3475 364.189 68.9055V68.9055Z" fill="#EB001B"/>
<path d="M392 68.9055C392 76.5921 385.781 82.811 378.094 82.811C374.849 82.811 371.875 81.6909 369.519 79.8367C372.764 77.2874 374.811 73.3475 374.811 68.9055C374.811 64.4635 372.725 60.5236 369.519 57.9742C371.875 56.1201 374.849 55 378.094 55C385.781 55 392 61.2575 392 68.9055H392Z" fill="#F79E1B"/>
<rect x="490" y="35" width="145" height="184" rx="30" fill="url(#paint3_linear_19_351)"/>
<mask id="mask2_19_351" style="mask-type:alpha" maskUnits="userSpaceOnUse" x="490" y="35" width="145" height="184">
<rect x="490" y="35" width="145" height="184" rx="30" fill="#ED713C"/>
</mask>
<g mask="url(#mask2_19_351)">
<circle opacity="0.1" cx="462" cy="228" r="95" fill="black" stroke="black" stroke-width="36"/>
<path opacity="0.1" d="M768 8.5C768 77.2781 722.434 127 673 127C623.566 127 578 77.2781 578 8.5C578 -60.2781 623.566 -110 673 -110C722.434 -110 768 -60.2781 768 8.5Z" fill="black" stroke="black" stroke-width="36"/>
</g>
<path d="M587.852 184.304C587.852 186.449 588.765 188.121 590.624 188.121C592.494 188.121 593.385 186.449 593.385 184.304C593.385 183.193 593.154 182.302 592.681 181.631C592.219 180.96 591.537 180.619 590.624 180.619C589.711 180.619 589.029 180.96 588.556 181.642C588.083 182.313 587.852 183.204 587.852 184.304ZM592.175 184.315C592.175 186.031 591.691 187.054 590.624 187.054C589.557 187.054 589.062 186.031 589.062 184.315C589.062 182.566 589.579 181.686 590.624 181.686C591.658 181.686 592.175 182.566 592.175 184.315ZM599.688 183.138C599.721 181.708 598.5 180.597 597.125 180.619C595.739 180.619 594.551 181.708 594.551 183.127C594.551 184.502 595.684 185.558 596.927 185.558C597.048 185.558 597.147 185.547 597.246 185.525L595.497 188H596.883L598.687 185.437C598.94 185.085 599.127 184.81 599.248 184.612C599.369 184.403 599.479 184.183 599.556 183.941C599.644 183.688 599.688 183.424 599.688 183.138ZM598.533 183.127C598.533 183.534 598.401 183.875 598.126 184.15C597.851 184.425 597.521 184.568 597.125 184.568C596.718 184.568 596.377 184.436 596.102 184.161C595.827 183.886 595.695 183.534 595.695 183.127C595.695 182.72 595.827 182.379 596.102 182.104C596.377 181.829 596.718 181.686 597.125 181.686C597.521 181.686 597.851 181.829 598.126 182.104C598.401 182.379 598.533 182.72 598.533 183.127ZM598.902 189.331H600.189L605.942 179.42H604.655L598.902 189.331ZM608.201 186.988L609.477 185.635C609.983 185.096 610.368 184.634 610.621 184.227C610.885 183.82 611.017 183.369 611.017 182.874C611.017 181.598 609.994 180.619 608.608 180.619C607.123 180.619 606.166 181.752 606.166 182.94C606.166 183.16 606.188 183.369 606.243 183.567H607.42C607.387 183.347 607.365 183.16 607.365 183.006C607.365 182.258 607.86 181.686 608.597 181.686C609.334 181.686 609.807 182.225 609.807 182.962C609.807 183.578 609.455 184.106 608.652 184.953L606.067 187.736V188H611.27V186.988H608.201ZM617.465 185.657C617.465 184.194 616.288 183.391 614.99 183.391C614.66 183.391 614.352 183.424 614.066 183.49V181.785H617.058V180.74H612.922V184.392H614.594C615.661 184.392 616.266 184.854 616.266 185.679C616.266 186.515 615.628 187.054 614.759 187.054C613.978 187.054 613.439 186.647 612.999 185.976L612.185 186.559C612.68 187.494 613.593 188.121 614.792 188.121C616.233 188.121 617.465 187.12 617.465 185.657Z" fill="white"/>
<path d="M558.289 142.42L555.312 143.395L555.65 144.604L557.392 144.045V151H558.77V142.42H558.289ZM563.185 149.804L564.693 148.205C565.291 147.568 565.746 147.022 566.045 146.541C566.357 146.06 566.513 145.527 566.513 144.942C566.513 143.434 565.304 142.277 563.666 142.277C561.911 142.277 560.78 143.616 560.78 145.02C560.78 145.28 560.806 145.527 560.871 145.761H562.262C562.223 145.501 562.197 145.28 562.197 145.098C562.197 144.214 562.782 143.538 563.653 143.538C564.524 143.538 565.083 144.175 565.083 145.046C565.083 145.774 564.667 146.398 563.718 147.399L560.663 150.688V151H566.812V149.804H563.185ZM574.408 148.764C574.408 147.672 573.68 146.957 572.549 146.541C573.498 146.034 574.005 145.371 574.005 144.474C574.005 143.785 573.745 143.239 573.238 142.862C572.731 142.472 572.081 142.277 571.301 142.277C570.508 142.277 569.858 142.472 569.338 142.862C568.831 143.239 568.571 143.785 568.571 144.474C568.571 145.397 569.091 146.034 570.027 146.541C568.883 146.957 568.168 147.672 568.168 148.764C568.168 150.207 569.455 151.143 571.301 151.143C573.134 151.143 574.408 150.207 574.408 148.764ZM569.884 144.526C569.884 143.837 570.469 143.408 571.301 143.408C572.12 143.408 572.692 143.837 572.692 144.526C572.692 145.163 572.263 145.501 571.288 145.917C570.313 145.488 569.884 145.15 569.884 144.526ZM573.017 148.712C573.017 149.492 572.406 149.999 571.301 149.999C570.196 149.999 569.559 149.492 569.559 148.712C569.559 147.945 570.144 147.542 571.288 147.139C572.432 147.555 573.017 147.932 573.017 148.712ZM581.74 145.254C581.779 143.564 580.336 142.251 578.711 142.277C577.073 142.277 575.669 143.564 575.669 145.241C575.669 146.866 577.008 148.114 578.477 148.114C578.62 148.114 578.737 148.101 578.854 148.075L576.787 151H578.425L580.557 147.971C580.856 147.555 581.077 147.23 581.22 146.996C581.363 146.749 581.493 146.489 581.584 146.203C581.688 145.904 581.74 145.592 581.74 145.254ZM580.375 145.241C580.375 145.722 580.219 146.125 579.894 146.45C579.569 146.775 579.179 146.944 578.711 146.944C578.23 146.944 577.827 146.788 577.502 146.463C577.177 146.138 577.021 145.722 577.021 145.241C577.021 144.76 577.177 144.357 577.502 144.032C577.827 143.707 578.23 143.538 578.711 143.538C579.179 143.538 579.569 143.707 579.894 144.032C580.219 144.357 580.375 144.76 580.375 145.241Z" fill="white"/>
<circle cx="539" cy="147" r="2" fill="white"/>
<circle cx="519" cy="147" r="2" fill="white"/>
<circle cx="529" cy="147" r="2" fill="white"/>
<circle cx="509" cy="147" r="2" fill="white"/>
<rect x="507" y="172" width="33" height="22" rx="5" fill="url(#paint4_radial_19_351)"/>
<path fill-rule="evenodd" clip-rule="evenodd" d="M523.5 172.219L519.833 177.968C519.833 177.968 521.3 182.999 519.833 187.311L523.5 193.779L527.167 187.311C527.167 187.311 525.7 183.718 527.167 177.968C527.167 177.968 523.5 172.219 523.5 172.219Z" stroke="#C7C7B6" stroke-width="1.3" stroke-linejoin="bevel"/>
<path d="M507 178.232H519.833" stroke="#C7C7B6" stroke-width="1.3" stroke-linejoin="bevel"/>
<path d="M526.8 178.232H540" stroke="#C7C7B6" stroke-width="1.3" stroke-linejoin="bevel"/>
<path d="M507 187.032H519.833" stroke="#C7C7B6" stroke-width="1.3" stroke-linejoin="bevel"/>
<path d="M526.8 187.032H540" stroke="#C7C7B6" stroke-width="1.3" stroke-linejoin="bevel"/>
<path opacity="0.5" d="M507.516 126.04C507.468 128.308 509.424 130.168 511.68 130.132C513.156 130.132 514.404 129.424 515.076 128.308L514.116 127.6C513.552 128.476 512.736 128.968 511.692 128.968C510.072 128.968 508.836 127.72 508.836 126.04C508.836 124.36 510.072 123.112 511.692 123.112C512.736 123.112 513.552 123.604 514.116 124.48L515.076 123.772C514.392 122.656 513.132 121.948 511.68 121.948C509.424 121.912 507.468 123.772 507.516 126.04ZM519.886 124.108C519.742 124.072 519.586 124.048 519.406 124.048C518.734 124.048 518.11 124.348 517.69 124.876V124.108H516.514V130H517.774V126.856C517.774 125.812 518.506 125.224 519.502 125.224H519.886V124.108ZM526.2 127.468C526.26 127.192 526.296 126.928 526.296 126.676C526.296 125.14 525.132 123.976 523.572 123.976C521.904 123.94 520.488 125.368 520.524 127.06C520.524 128.8 521.892 130.132 523.692 130.132C524.592 130.132 525.372 129.82 526.044 129.184L525.444 128.32C524.916 128.788 524.34 129.016 523.728 129.016C522.72 129.016 521.964 128.428 521.808 127.468H526.2ZM521.832 126.484C522.024 125.608 522.696 125.044 523.524 125.044C524.352 125.044 525.024 125.584 525.036 126.484H521.832ZM532.216 121V124.828C531.772 124.288 531.064 123.976 530.248 123.976C528.616 123.94 527.332 125.344 527.368 127.06C527.368 128.8 528.592 130.132 530.248 130.132C531.124 130.132 531.88 129.772 532.312 129.16V130H533.488V121H532.216ZM532.24 127.06C532.24 128.344 531.388 128.98 530.464 128.98C529.42 128.98 528.652 128.176 528.652 127.048C528.652 125.92 529.456 125.128 530.464 125.128C531.376 125.128 532.24 125.788 532.24 127.06ZM535.31 130H536.57V124.108H535.31V130ZM535.082 121.912C535.082 122.38 535.466 122.74 535.946 122.74C536.414 122.74 536.798 122.38 536.798 121.912C536.798 121.444 536.414 121.072 535.946 121.072C535.466 121.072 535.082 121.444 535.082 121.912ZM541.896 128.932C541.548 128.968 541.296 128.992 541.116 128.992C540.348 128.992 539.952 128.728 539.952 127.972V125.2H541.704V124.108H539.952V122.56H538.68V124.108H537.72V125.2H538.68V128.08C538.68 129.46 539.496 130.132 540.852 130.132C541.152 130.132 541.5 130.084 541.896 130V128.932ZM546.141 126.04C546.093 128.308 548.049 130.168 550.305 130.132C551.781 130.132 553.029 129.424 553.701 128.308L552.741 127.6C552.177 128.476 551.361 128.968 550.317 128.968C548.697 128.968 547.461 127.72 547.461 126.04C547.461 124.36 548.697 123.112 550.317 123.112C551.361 123.112 552.177 123.604 552.741 124.48L553.701 123.772C553.017 122.656 551.757 121.948 550.305 121.948C548.049 121.912 546.093 123.772 546.141 126.04ZM559.76 126.436C559.76 124.852 558.8 123.976 557.348 123.976C556.328 123.976 555.452 124.384 554.864 125.236L555.596 125.98C556.088 125.392 556.568 125.104 557.228 125.104C558.032 125.104 558.488 125.548 558.488 126.364V126.748H556.82C555.488 126.748 554.648 127.408 554.648 128.428C554.648 129.448 555.464 130.132 556.7 130.132C557.504 130.132 558.152 129.856 558.584 129.34V130H559.76V126.436ZM558.488 127.768C558.488 128.572 557.816 129.16 556.964 129.16C556.352 129.16 555.932 128.872 555.932 128.38C555.932 127.9 556.304 127.66 556.976 127.66H558.488V127.768ZM564.886 124.108C564.742 124.072 564.586 124.048 564.406 124.048C563.734 124.048 563.11 124.348 562.69 124.876V124.108H561.514V130H562.774V126.856C562.774 125.812 563.506 125.224 564.502 125.224H564.886V124.108ZM570.372 121V124.828C569.928 124.288 569.22 123.976 568.404 123.976C566.772 123.94 565.488 125.344 565.524 127.06C565.524 128.8 566.748 130.132 568.404 130.132C569.28 130.132 570.036 129.772 570.468 129.16V130H571.644V121H570.372ZM570.396 127.06C570.396 128.344 569.544 128.98 568.62 128.98C567.576 128.98 566.808 128.176 566.808 127.048C566.808 125.92 567.612 125.128 568.62 125.128C569.532 125.128 570.396 125.788 570.396 127.06Z" fill="white"/>
<path d="M523.417 57.9741H535.584V79.8366H523.417V57.9741Z" fill="#FF5F00"/>
<path d="M524.189 68.9055C524.189 64.4635 526.275 60.5236 529.48 57.9742C527.124 56.1201 524.15 55 520.906 55C513.219 55 507 61.2188 507 68.9055C507 76.5921 513.219 82.811 520.906 82.811C524.15 82.811 527.124 81.6909 529.48 79.8367C526.275 77.326 524.189 73.3475 524.189 68.9055V68.9055Z" fill="#EB001B"/>
<path d="M552 68.9055C552 76.5921 545.781 82.811 538.094 82.811C534.849 82.811 531.875 81.6909 529.519 79.8367C532.764 77.2874 534.811 73.3475 534.811 68.9055C534.811 64.4635 532.725 60.5236 529.519 57.9742C531.875 56.1201 534.849 55 538.094 55C545.781 55 552 61.2575 552 68.9055H552Z" fill="#F79E1B"/>
<rect x="650" y="35" width="145" height="184" rx="30" fill="url(#paint5_linear_19_351)"/>
<mask id="mask3_19_351" style="mask-type:alpha" maskUnits="userSpaceOnUse" x="650" y="35" width="145" height="184">
<rect x="650" y="35" width="145" height="184" rx="30" fill="#ED713C"/>
</mask>
<g mask="url(#mask3_19_351)">
<circle opacity="0.1" cx="622" cy="228" r="95" fill="black" stroke="black" stroke-width="36"/>
</g>
<circle cx="699" cy="147" r="2" fill="white"/>
<circle cx="679" cy="147" r="2" fill="white"/>
<circle cx="689" cy="147" r="2" fill="white"/>
<circle cx="669" cy="147" r="2" fill="white"/>
<rect x="667" y="172" width="33" height="22" rx="5" fill="url(#paint6_radial_19_351)"/>
<path fill-rule="evenodd" clip-rule="evenodd" d="M683.5 172.219L679.833 177.968C679.833 177.968 681.3 182.999 679.833 187.311L683.5 193.779L687.167 187.311C687.167 187.311 685.7 183.718 687.167 177.968C687.167 177.968 683.5 172.219 683.5 172.219Z" stroke="#C7C7B6" stroke-width="1.3" stroke-linejoin="bevel"/>
<path d="M667 178.232H679.833" stroke="#C7C7B6" stroke-width="1.3" stroke-linejoin="bevel"/>
<path d="M686.8 178.232H700" stroke="#C7C7B6" stroke-width="1.3" stroke-linejoin="bevel"/>
<path d="M667 187.032H679.833" stroke="#C7C7B6" stroke-width="1.3" stroke-linejoin="bevel"/>
<path d="M686.8 187.032H700" stroke="#C7C7B6" stroke-width="1.3" stroke-linejoin="bevel"/>
<path opacity="0.5" d="M667.516 126.04C667.468 128.308 669.424 130.168 671.68 130.132C673.156 130.132 674.404 129.424 675.076 128.308L674.116 127.6C673.552 128.476 672.736 128.968 671.692 128.968C670.072 128.968 668.836 127.72 668.836 126.04C668.836 124.36 670.072 123.112 671.692 123.112C672.736 123.112 673.552 123.604 674.116 124.48L675.076 123.772C674.392 122.656 673.132 121.948 671.68 121.948C669.424 121.912 667.468 123.772 667.516 126.04ZM679.886 124.108C679.742 124.072 679.586 124.048 679.406 124.048C678.734 124.048 678.11 124.348 677.69 124.876V124.108H676.514V130H677.774V126.856C677.774 125.812 678.506 125.224 679.502 125.224H679.886V124.108ZM686.2 127.468C686.26 127.192 686.296 126.928 686.296 126.676C686.296 125.14 685.132 123.976 683.572 123.976C681.904 123.94 680.488 125.368 680.524 127.06C680.524 128.8 681.892 130.132 683.692 130.132C684.592 130.132 685.372 129.82 686.044 129.184L685.444 128.32C684.916 128.788 684.34 129.016 683.728 129.016C682.72 129.016 681.964 128.428 681.808 127.468H686.2ZM681.832 126.484C682.024 125.608 682.696 125.044 683.524 125.044C684.352 125.044 685.024 125.584 685.036 126.484H681.832ZM692.216 121V124.828C691.772 124.288 691.064 123.976 690.248 123.976C688.616 123.94 687.332 125.344 687.368 127.06C687.368 128.8 688.592 130.132 690.248 130.132C691.124 130.132 691.88 129.772 692.312 129.16V130H693.488V121H692.216ZM692.24 127.06C692.24 128.344 691.388 128.98 690.464 128.98C689.42 128.98 688.652 128.176 688.652 127.048C688.652 125.92 689.456 125.128 690.464 125.128C691.376 125.128 692.24 125.788 692.24 127.06ZM695.31 130H696.57V124.108H695.31V130ZM695.082 121.912C695.082 122.38 695.466 122.74 695.946 122.74C696.414 122.74 696.798 122.38 696.798 121.912C696.798 121.444 696.414 121.072 695.946 121.072C695.466 121.072 695.082 121.444 695.082 121.912ZM701.896 128.932C701.548 128.968 701.296 128.992 701.116 128.992C700.348 128.992 699.952 128.728 699.952 127.972V125.2H701.704V124.108H699.952V122.56H698.68V124.108H697.72V125.2H698.68V128.08C698.68 129.46 699.496 130.132 700.852 130.132C701.152 130.132 701.5 130.084 701.896 130V128.932ZM706.141 126.04C706.093 128.308 708.049 130.168 710.305 130.132C711.781 130.132 713.029 129.424 713.701 128.308L712.741 127.6C712.177 128.476 711.361 128.968 710.317 128.968C708.697 128.968 707.461 127.72 707.461 126.04C707.461 124.36 708.697 123.112 710.317 123.112C711.361 123.112 712.177 123.604 712.741 124.48L713.701 123.772C713.017 122.656 711.757 121.948 710.305 121.948C708.049 121.912 706.093 123.772 706.141 126.04ZM719.76 126.436C719.76 124.852 718.8 123.976 717.348 123.976C716.328 123.976 715.452 124.384 714.864 125.236L715.596 125.98C716.088 125.392 716.568 125.104 717.228 125.104C718.032 125.104 718.488 125.548 718.488 126.364V126.748H716.82C715.488 126.748 714.648 127.408 714.648 128.428C714.648 129.448 715.464 130.132 716.7 130.132C717.504 130.132 718.152 129.856 718.584 129.34V130H719.76V126.436ZM718.488 127.768C718.488 128.572 717.816 129.16 716.964 129.16C716.352 129.16 715.932 128.872 715.932 128.38C715.932 127.9 716.304 127.66 716.976 127.66H718.488V127.768ZM724.886 124.108C724.742 124.072 724.586 124.048 724.406 124.048C723.734 124.048 723.11 124.348 722.69 124.876V124.108H721.514V130H722.774V126.856C722.774 125.812 723.506 125.224 724.502 125.224H724.886V124.108ZM730.372 121V124.828C729.928 124.288 729.22 123.976 728.404 123.976C726.772 123.94 725.488 125.344 725.524 127.06C725.524 128.8 726.748 130.132 728.404 130.132C729.28 130.132 730.036 129.772 730.468 129.16V130H731.644V121H730.372ZM730.396 127.06C730.396 128.344 729.544 128.98 728.62 128.98C727.576 128.98 726.808 128.176 726.808 127.048C726.808 125.92 727.612 125.128 728.62 125.128C729.532 125.128 730.396 125.788 730.396 127.06Z" fill="white"/>
<path d="M683.417 57.9741H695.584V79.8366H683.417V57.9741Z" fill="#FF5F00"/>
<path d="M684.189 68.9055C684.189 64.4635 686.275 60.5236 689.48 57.9742C687.124 56.1201 684.15 55 680.906 55C673.219 55 667 61.2188 667 68.9055C667 76.5921 673.219 82.811 680.906 82.811C684.15 82.811 687.124 81.6909 689.48 79.8367C686.275 77.326 684.189 73.3475 684.189 68.9055V68.9055Z" fill="#EB001B"/>
<path d="M712 68.9055C712 76.5921 705.781 82.811 698.094 82.811C694.849 82.811 691.875 81.6909 689.519 79.8367C692.764 77.2874 694.811 73.3475 694.811 68.9055C694.811 64.4635 692.725 60.5236 689.519 57.9742C691.875 56.1201 694.849 55 698.094 55C705.781 55 712 61.2575 712 68.9055H712Z" fill="#F79E1B"/>
</g>
<defs>
<linearGradient id="paint0_linear_19_351" x1="158.586" y1="4.49474" x2="165.299" y2="242.036" gradientUnits="userSpaceOnUse">
<stop stop-color="#457AE9"/>
<stop offset="1" stop-color="#3A49F9"/>
</linearGradient>
<linearGradient id="paint1_linear_19_351" x1="403" y1="4.49474" x2="417.54" y2="241.333" gradientUnits="userSpaceOnUse">
<stop stop-color="#457AE9"/>
<stop offset="1" stop-color="#3A49F9"/>
</linearGradient>
<radialGradient id="paint2_radial_19_351" cx="0" cy="0" r="1" gradientUnits="userSpaceOnUse" gradientTransform="translate(365.95 180.014) rotate(141.302) scale(22.37 22.2003)">
<stop stop-color="white"/>
<stop offset="1" stop-color="#DDDCDA"/>
</radialGradient>
<linearGradient id="paint3_linear_19_351" x1="563" y1="4.49474" x2="577.54" y2="241.333" gradientUnits="userSpaceOnUse">
<stop stop-color="#457AE9"/>
<stop offset="1" stop-color="#3A49F9"/>
</linearGradient>
<radialGradient id="paint4_radial_19_351" cx="0" cy="0" r="1" gradientUnits="userSpaceOnUse" gradientTransform="translate(525.95 180.014) rotate(141.302) scale(22.37 22.2003)">
<stop stop-color="white"/>
<stop offset="1" stop-color="#DDDCDA"/>
</radialGradient>
<linearGradient id="paint5_linear_19_351" x1="723" y1="4.49474" x2="737.54" y2="241.333" gradientUnits="userSpaceOnUse">
<stop stop-color="#457AE9"/>
<stop offset="1" stop-color="#3A49F9"/>
</linearGradient>
<radialGradient id="paint6_radial_19_351" cx="0" cy="0" r="1" gradientUnits="userSpaceOnUse" gradientTransform="translate(685.95 180.014) rotate(141.302) scale(22.37 22.2003)">
<stop stop-color="white"/>
<stop offset="1" stop-color="#DDDCDA"/>
</radialGradient>
<clipPath id="clip0_19_351">
<rect width="705" height="239" fill="white"/>
</clipPath>
</defs>
</svg>
